<?xml version="1.0" encoding="UTF-8"?>
<svg xmlns="http://www.w3.org/2000/svg" version="1.1" viewBox="0 0 292.4 289.7">
  <defs>
    <style>
      .cls-1 {
        fill: #fff;
      }
    </style>
  </defs>
  <!-- Generator: Adobe Illustrator 28.7.1, SVG Export Plug-In . SVG Version: 1.2.0 Build 142)  -->
  <g>
    <g id="Camada_1">
      <g id="_x35_49_x2C__Factory_x2C__Damage_x2C__Deforestation_x2C__Destruction_x2C__Environment">
        <g>
          <path class="cls-1" d="M210.7,215.1c-7.3-6.4-12-16.8-14.1-30.1-1.2-9-1.2-16.5-.9-20.3h-55.1v25.2c0,.9-.9,1.7-1.8,1.7s-1.8-.9-1.8-1.7v-25.2h-14.4c.3,3.8.3,10.7-.9,19.4-2.1,13.3-7,23.8-14.1,31h70.6v-34.2c0-.9.9-1.7,1.8-1.7s1.8.9,1.8,1.7v34.2h28.7ZM159.1,194.5c0,.9-.9,1.7-1.8,1.7s-2.1-.9-2.1-1.7v-9c0-.9.9-1.7,1.8-1.7s1.8.9,1.8,1.7v9h.3Z"/>
          <path class="cls-1" d="M109.3,146.1v-19.7c0-.9.9-1.7,1.8-1.7s1.8.9,1.8,1.7v19.7h14.9c-7.9-8.7-7.9-23.2-7.9-28.7h-31.1v14.5c0,.9-.9,1.7-1.8,1.7s-2.1-.9-2.1-1.7v-14.5h-7c.3,5.5,0,19.4-8.2,28.7h39.6ZM95.5,129.3c0-.9.9-1.7,1.8-1.7s1.8.9,1.8,1.7v5.2c0,.9-.9,1.7-1.8,1.7s-1.8-.9-1.8-1.7v-5.2Z"/>
          <path class="cls-1" d="M71.5,168.1c5,0,9.1,4,9.1,9s-4.1,9-9.1,9-9.1-4-9.1-9,4.1-9,9.1-9Z"/>
          <path class="cls-1" d="M183.2,70.2c7.1,0,12.9,5.7,12.9,12.7s-5.8,12.7-12.9,12.7-12.9-5.7-12.9-12.7,5.8-12.7,12.9-12.7Z"/>
          <path class="cls-1" d="M82.4,95.4h33.1c.9,0,1.8-.9,1.8-1.7s-.9-1.7-1.8-1.7h-33.1c-.9,0-1.8.9-1.8,1.7s.9,1.7,1.8,1.7Z"/>
          <path class="cls-1" d="M126.3,95.4h11.1c.9,0,1.8-.9,1.8-1.7s-.9-1.7-1.8-1.7h-11.1c-.9,0-1.8.9-1.8,1.7s.9,1.7,1.8,1.7Z"/>
          <path class="cls-1" d="M148.3,128.2h33.1c.9,0,1.8-.9,1.8-1.7s-.9-1.7-1.8-1.7h-33.1c-.9,0-1.8.9-1.8,1.7s.9,1.7,1.8,1.7Z"/>
          <path class="cls-1" d="M190.5,126.4c0,.9.9,1.7,1.8,1.7h11.1c.9,0,1.8-.9,1.8-1.7s-.9-1.7-1.8-1.7h-11.1c-.9-.3-1.8.6-1.8,1.7Z"/>
        </g>
      </g>
    </g>
  </g>
</svg>