<?xml version="1.0" encoding="UTF-8"?>
<svg xmlns="http://www.w3.org/2000/svg" version="1.1" viewBox="0 0 292.4 289.7">
  <defs>
    <style>
      .cls-1 {
        fill: #fff;
      }
    </style>
  </defs>
  <!-- Generator: Adobe Illustrator 28.7.1, SVG Export Plug-In . SVG Version: 1.2.0 Build 142)  -->
  <g>
    <g id="Camada_1">
      <g id="_x35_28_x2C__Factory_x2C__Industry_x2C__Landscape">
        <g>
          <rect class="cls-1" x="119" y="210.9" width="11.1" height="11"/>
          <polygon class="cls-1" points="111.7 196.5 111.7 207.5 117.2 207.5 130.1 207.5 130.1 202 130.1 196.5 117.2 196.5 111.7 196.5"/>
          <polygon class="cls-1" points="104.3 210.9 104.3 222 115.5 222 115.5 210.9 109.9 210.9 104.3 210.9"/>
          <polygon class="cls-1" points="119 193 130.1 193 130.1 182.6 130.1 182 119 182 119 193"/>
          <polygon class="cls-1" points="108.1 196.5 102.6 196.5 89.7 196.5 89.7 207.5 102.6 207.5 108.1 207.5 108.1 196.5"/>
          <polygon class="cls-1" points="115.5 193 115.5 182 104.3 182 104.3 193 109.9 193 115.5 193"/>
          <rect class="cls-1" x="75" y="196.5" width="11.1" height="11"/>
          <polygon class="cls-1" points="100.8 193 100.8 182 75 182 75 193 87.9 193 100.8 193"/>
          <polygon class="cls-1" points="75 178.5 102.6 178.5 117.2 178.5 130.1 178.5 130.1 156.8 75 156.8 75 178.5"/>
          <rect class="cls-1" x="188.7" y="203.7" width="14.7" height="18.3"/>
          <polygon class="cls-1" points="133.6 194.7 133.6 200.2 221.6 200.2 221.6 184.3 133.6 184.3 133.6 194.7"/>
          <rect class="cls-1" x="206.9" y="203.7" width="14.7" height="18.3"/>
          <path class="cls-1" d="M93.5,93.3v.6c0,.6-.3,1.2-.6,1.4-.6.3-1.2.6-1.8.3-.9-.3-2.1-.6-2.9-.6-5,0-9.1,4.1-9.1,9s4.1,9,9.1,9,5-1.2,6.7-2.9c.3-.6,1.2-.6,1.8-.6s1.2.6,1.5,1.2c1.5,3.5,4.7,5.8,8.5,5.8s9.1-4.1,9.1-9v-.3c0-.6.3-1.2.6-1.4.6-.3,1.2-.6,1.5-.3,1.2.3,2.1.3,3.2.3,4.4,0,8.8-2.3,11.1-6.1.3-.6.9-.9,1.5-.9h0c.6,0,1.2.6,1.5,1.2,1.8,3.8,4.7,6.7,8.5,8.4.6.3.9.9,1.2,1.4.9,6.1,6.4,10.7,12.6,10.7s9.4-2.6,11.4-7.2c.3-.9,1.5-1.2,2.3-.9,1.5.6,2.9.9,4.4.9,4.7,0,9.1-2.6,11.1-6.7.3-.6.9-.9,1.5-.9s1.2.3,1.5.9c2.3,4.1,6.4,6.7,11.1,6.7,7,0,12.9-5.8,12.9-12.7s-5.9-12.7-12.9-12.7-9.1,2.6-11.1,6.7c-.3.6-.9.9-1.5.9s-1.2-.3-1.5-.9c-1.2-2-2.6-3.5-4.7-4.6-.6-.3-.9-.9-.9-1.2,0-.6,0-1.2.3-1.4,2.1-2.3,2.9-5.2,2.9-8.1,0-7-5.9-12.7-12.9-12.7s-11.7,4.6-12.6,11c0,.6-.3,1.2-.9,1.4-.6.3-1.2.3-1.8,0-2.1-.9-4.4-1.4-6.7-1.4-6.4,0-12.3,3.8-14.9,9.6.3.3-.3.6-.9.6s-1.5-.3-1.8-.9c-2.3-3.8-6.4-6.1-11.1-6.1s-7.9,1.7-10.3,5.2c-.3.3-.6.6-1.2.6s-.9,0-1.5-.3c-1.5-1.2-3.5-1.7-5.6-1.7-4.7-.3-8.8,3.8-8.8,9Z"/>
          <rect class="cls-1" x="152.1" y="203.7" width="14.7" height="18.3"/>
          <polygon class="cls-1" points="133.6 209.2 133.6 222 148.3 222 148.3 203.7 133.6 203.7 133.6 209.2"/>
          <polygon class="cls-1" points="141 142.3 64.2 142.3 64.2 153 73.3 153 131.9 153 141 153 141 142.3"/>
          <polygon class="cls-1" points="75 210.9 75 222 100.8 222 100.8 210.9 87.9 210.9 75 210.9"/>
          <rect class="cls-1" x="170.3" y="203.7" width="14.7" height="18.3"/>
          <path class="cls-1" d="M195.8,135.3c-10.3-9-40.7-.9-41.9-.3-.9.3-1.5,1.2-1.2,2.3.3.9,1.2,1.4,2.3,1.2,8.2-2.3,31.4-6.7,38.7-.3,3.5,3.2,8.8,4.1,14.1,4.1,10,0,19.9-3.5,20.8-3.8.9-.3,1.5-1.4,1.2-2.3-.3-.9-1.5-1.4-2.3-1.2-.9,0-22.9,7.8-31.7.3Z"/>
          <path class="cls-1" d="M101.7,69.3c.9.6,2.1.6,2.6-.3.6-.9.6-2-.3-2.6-10.3-9-40.7-.9-41.9-.3-.9.3-1.5,1.2-1.2,2.3.3.9.9,1.4,1.8,1.4h.6c8.2-2.3,31.1-7,38.4-.6Z"/>
          <path class="cls-1" d="M229.2,154.2c-.3-.9-1.5-1.4-2.3-.9-5.6,2.3-21.4,6.7-27.8.3-9.4-9-36.9-.9-38.1-.3-.9.3-1.5,1.4-1.2,2.3s1.5,1.4,2.3,1.2c7.3-2.3,27.8-6.7,34.6-.3,3.2,3.2,7.9,4.3,12.9,4.3,9.1,0,18.2-3.5,18.8-3.8.9-.9,1.2-2,.9-2.9Z"/>
        </g>
      </g>
    </g>
  </g>
</svg>