<?xml version="1.0" encoding="UTF-8"?>
<svg xmlns="http://www.w3.org/2000/svg" version="1.1" viewBox="0 0 292.4 289.7">
  <defs>
    <style>
      .cls-1 {
        fill: #fff;
        fill-rule: evenodd;
      }
    </style>
  </defs>
  <!-- Generator: Adobe Illustrator 28.7.1, SVG Export Plug-In . SVG Version: 1.2.0 Build 142)  -->
  <g>
    <g id="Camada_1">
      <path class="cls-1" d="M134.4,61.6c0-9.8-8-18-17.7-18s-18,8.2-18,18,4.4,13.1,10.3,16.2l-11,7.5c-25.7.5-24.7,19.3-24.7,19.3v43.9h0v.3c0,4.4,3.3,7.7,7.4,7.7s7.5-3.3,7.5-7.7v-.3h0v-40.6h4.9l-.2,128c0,5.7,4.6,10.3,10.3,10.3s10.3-4.6,10.3-10.3v-68.6h4.4v68.6l.3.3c0,5.4,4.4,10,10,10s10-4.6,10-10.3V107.6h4.9l31.1,28.3h.3c2.8,3.1,7.7,3.1,10.5,0,3.1-2.8,3.1-7.7,0-10.5h0l-29.3-29.6c-9.5-9.5-21.9-10.5-21.9-10.5l-9-7.7c5.9-2.8,9.8-9,9.8-15.9h0ZM165.2,246.1h44.5l9.5-73.5h-62.7l8.7,73.5ZM195.6,199.9l2.6-8.2-1.8.8c-.3-.8-.8-1.8-1.5-2.6-1.5-1.8-3.3-1.8-4.9-1.8h-6.7c-1,0-1.8.3-2.1,1.3l-3.8,6.2,6.7,3.6.3-.3c.8-1.3,1.5-2.6,2.3-3.9,0-.5.2-.8.5-1.3l1.8,3.1-2.1,1,8.7,2.1ZM179.6,209.1l1.8-3.1c.2.3,1,.8,1,.8l.8.5-2.6-8.7-8.5,2.1,1.5,1c-.5.8-1,1.8-1.5,2.8-.5,2.3.3,3.9,1,5.1,0,0,2.8,4.6,3.4,5.6.5.8,1.3,1.3,2.3,1.3h6.9v-7.7l-6.2.3ZM203.3,204.5l-3.8-6.2-6.2,4.4v.3c.8,1,1.5,2.3,2.3,3.6.3.5.5,1,.8,1.3h-3.3v-2.1l-6.2,6.7,6.4,6.2v-2.1h1c.8,0,1.5,0,2-.3,2.3-.5,3.1-2,3.9-3.3l3.1-5.7c.5-1,.5-1.8,0-2.8h0ZM197.9,147.4h1.3v1.3h1.8v3.1h-.5v2.1h0v3.1h-.3v2.6h-.8v1h-3.1v.3h-1.3v1.8h-3.1v-1.3h-1.8v2.1h-3.1v-1.5h-2v-3.1h1.3v-1.5h-.5v-.3h-.5v-.3h0v-1h-1.5v2.1h-3.1v-1.5h-2.1v-3.1h1.3v-1.5h-.8v-3.1h1.8v-1.3h1.5v-1.5h-1v-3.1h2.1v-.8h3.1v1.5h.2v-1.5h2.8v1.3h.5v-.8h3.1v1.5h.3v-1.5h3.1v1.3h1.8v3.1h-.5v.8Z"/>
    </g>
  </g>
</svg>