<?xml version="1.0" encoding="UTF-8"?>
<svg xmlns="http://www.w3.org/2000/svg" version="1.1" viewBox="0 0 292.4 289.7">
  <defs>
    <style>
      .cls-1 {
        fill: #fff;
        fill-rule: evenodd;
      }
    </style>
  </defs>
  <!-- Generator: Adobe Illustrator 28.7.1, SVG Export Plug-In . SVG Version: 1.2.0 Build 142)  -->
  <g>
    <g id="Camada_1">
      <path class="cls-1" d="M149.8,77.5c0,15.4-12.6,28.3-28.3,28.3h-.3c.9,4.9.9,11.4,0,20,0,1.4-.3,3.1-.6,4.9-.3.9-1.1,2.9-.3,5.4.9,2.3,2.3,6.3,4.6,10.3,3.1,5.4,7.7,10.6,13.1,15.4h3.2c6.3,0,12,4,14.3,10.3.3.6.3,1.1.6,1.7,7.4,4.3,16.3,8,25.7,11.1,15.1,5.1,11.4,27.7-4.3,27.7-1.7,0-3.1-.3-4.6-.9-11.1-3.7-21.2-8-30.3-12.9-.9-.6-2.9-1.7-4.3-.3-1.7,1.7-47.5,38.3-47.5,38.3-2.9,2.3-6.3,3.4-9.4,3.4-4.6,0-8.9-2-12-5.7-5.1-6.6-4-16,2.3-21.4,0,0,9.2-7.1,12.6-10,3.7-2.9-.9-1.7-2.6-1.7-10.6,0-20-7.2-22.3-17.7-7.2-30.9,10.9-59.2,18-69.2,2.6-4.9,12.6-14.6,22.3-19.2-4-4.9-6.6-11.2-6.6-18,0-15.7,12.6-28.3,28.3-28.3,15.7,0,28.3,12.6,28.3,28.3h0ZM190.4,237.6h40.3c2.6-1.4,4.9-4,3.4-5.2-5.4-.9-7.2,1.4-7.4,1.1h-1.4c-.6-.3-.9-.9-1.1-1.4-.3-.6-.6-1.4-1.4-1.7-1.1-.6-2.9-.9-4.3-.3-.3,0-.6,0-.9.3-.9.3-2,.6-2.9.6s-.3,0-.3-.3c-.3-1.1-.6-2.3-.9-3.4h0c-.3-.6-.3-1.1-.6-1.7-.6-1.7-1.4-3.7-.6-5.4,3.1-6,3.1-4.3,7.7-5.7,1.7-.6,3.1-1.4,4.6-2.6.3,0,1.4-.9,1.1-1.4,0-.6-.9-1.1-1.7-1.4-2.9-1.7-6.9-.3-8.6,2.6h0c-.3.6-.6,1.1-.9,1.7-.3.6-.3,1.4-.6,2.6-1.1,1.4-2,2.9-2.6,4.3-.3-1.1-.6-2-.8-3.1-.9-3.4-2-6.9-.6-9.7,1.4-3.7,4.3-4,7.7-5.4,1.7-.3,3.1-1.1,4.6-2.3.3-.3,1.4-1.1,1.4-1.4-.3-.6-1.1-1.4-1.7-1.7-3.4-1.7-8,.3-9.4,3.7h0v.6s-.8,2.3-.8,2.3h0c-1.1,1.4-2.6,3.1-2.9,4.9-.6-4.6-.6-8.9.3-12.6,0-1.1.3-2.3.9-3.7h0c1.4-.6,3.1-1.1,4.3-2,2.3-1.1,3.7-3.2,4.9-5.1.3-.6,1.1-2,.9-2.6-.3-.6-1.7-1.1-2.9-1.1-5.4-.6-9.4,4.9-9.1,10.3h0c.3.3.3.6.3.9h0c-.6.9-.9,1.7-1.2,2.9-1.1,4-1.1,8-1.1,11.2-.3-.9-.9-2-1.4-2.6h0l-.9-3.1c-.3-.3-.3-.6-.6-1.1h0c-1.4-3.1-5.7-4.9-8.9-3.1-.9.3-1.7,1.1-1.7,1.4-.3.6.9,1.4,1.1,1.7,1.4.9,2.9,1.7,4.6,2.3,2.3-.6,7.4,2.3,8.3,10,.6,2,1.1,4.3,1.7,6.3.6,1.7,1.1,3.4,1.4,5.1-1.1-2.3-2.6-4.3-4.3-5.7h0l-.6-1.7h0v-.3h0c-1.4-3.7-6.6-5.1-10-3.1-.6.6-1.4,1.4-1.4,2s1.1,1.1,1.4,1.1c1.4,1.2,3.1,1.7,4.9,2,3.2.6,2.9-1.1,6.3,1.7,2.3,2,3.1,4.9,4,7.4,0,0,1.4,4,0,4h-.9c-.6-.3-1.1-.3-1.7-.3-.9-.3-1.4-.3-2.3-.6h-.6c-2.3,0-4,1.1-5.7,2.6-4.6,3.1-2.9-.9-9.2-.3-1.7.3-3.4,2,.6,5.7v.3Z"/>
    </g>
  </g>
</svg>