<?xml version="1.0" encoding="UTF-8"?>
<svg xmlns="http://www.w3.org/2000/svg" version="1.1" viewBox="0 0 292.4 289.7">
  <defs>
    <style>
      .cls-1 {
        fill: #fff;
      }
    </style>
  </defs>
  <!-- Generator: Adobe Illustrator 28.7.1, SVG Export Plug-In . SVG Version: 1.2.0 Build 142)  -->
  <g>
    <g id="Camada_1">
      <g id="_x35_45_x2C__Pipe_x2C__Pollution_x2C__Radioactive_x2C__Sewage_x2C__Waste">
        <g>
          <path class="cls-1" d="M91.1,100c0-.9.9-1.7,1.8-1.7s1.8.9,1.8,1.7v20h22v-36.2h-11.1v16.2c0,.9-.9,1.7-1.8,1.7s-1.8-.9-1.8-1.7v-16.2h-32.8v36.2h22v-20Z"/>
          <path class="cls-1" d="M192,72.7c3.1,0,5.6,2.5,5.6,5.5s-2.5,5.5-5.6,5.5-5.6-2.5-5.6-5.5,2.5-5.5,5.6-5.5Z"/>
          <path class="cls-1" d="M96.7,148.9c5,0,9.1,4,9.1,9s-4.1,9-9.1,9-9.1-4-9.1-9,4.1-9,9.1-9Z"/>
          <path class="cls-1" d="M221,182.5c-.6-2.6-2.9-4.6-5.9-4.6h-1.8c-.9,0-1.5-.3-1.8-.9-.3-.6-.6-1.4-.3-2l2.9-7c.6-1.7.6-3.8-.6-5.5-1.2-1.7-2.9-2.6-5-2.6s-1.2-.3-1.8-.9c-.3-.6-.6-1.2-.6-1.7,1.8-11.9-1.2-23.2-8.8-33.6-5.9-8.1-14.9-15.9-26.4-22.6-17.6-10.4-36.3-15.9-39.9-16.8v-7.5h-11.1v50.4h11.1v-5.8c7.6,6.4,31.7,29.6,23.7,50.4-.3,1.2-1.2,2.6-2.6,2.6h-16.4c-2.1,0-3.8.9-5,2.3-1.2,1.4-1.5,3.5-1.2,5.2.3.9,0,2-.9,2.6-.9.6-1.8.9-2.6.3l-2.3-1.2c-2.6-1.4-5.9-2-8.8-2h-34.9c-3.5,0-6.7.6-10,1.4l-6.4,2c-.9.3-1.5,1.4-1.2,2.3.3.9.9,1.2,1.8,1.2h.6l6.4-2c2.9-.9,5.9-1.4,8.8-1.4h34.9c2.3,0,5,.6,7,1.7l2.3,1.2c2.1,1.2,4.7.9,6.7-.6s2.6-4.1,2.1-6.4c-.3-.9,0-1.4.6-2,.6-.6,1.2-.9,2.1-.9h16.4c2.6,0,5-1.7,6.2-4.9,4.4-11.3.9-24.6-9.7-38.5-7.9-10.4-16.7-17.4-17.3-17.7h0v-29c5,1.4,22,6.7,37.8,16.2,25.2,15.1,36.3,32.7,33.4,52.7-.3,1.7.3,3.5,1.5,4.6,1.2,1.2,2.6,2,4.4,2s1.5.3,1.8.9c.3.6.6,1.4.3,2l-2.9,7c-.6,1.7-.6,3.8.6,5.5,1.2,1.7,2.9,2.6,5,2.6h1.8c1.2,0,2.1.9,2.3,1.7.9,4.1,2.6,14.5-1.2,20-1.2,2-3.2,3.2-5.6,3.8-.9.3-1.8,1.2-1.5,2,.3.9.9,1.4,1.8,1.4h.3c3.5-.6,6.2-2.3,7.9-5.2,4.4-6.7,2.9-17.4,1.8-22.9Z"/>
          <path class="cls-1" d="M133.3,200.2c-6.4,3.2-17.9,7.8-22,6.1-.6-.3-.9-.6-1.2-1.2-.6-2-1.8-3.5-3.5-4.3-6.4-3.2-19.6,2.3-21.1,2.9-.9.3-1.5,1.4-.9,2.3.3.9,1.5,1.4,2.3.9,5-2,14.4-4.9,17.9-3.2.9.3,1.2.9,1.5,1.7.3,1.7,1.5,2.9,3.2,3.8,1.2.6,2.3.6,3.8.6,7.9,0,19.9-6.1,21.4-7,.9-.6,1.2-1.4.9-2.3-.3-.3-1.5-.6-2.3-.3Z"/>
          <path class="cls-1" d="M195.5,207.1l-7.3,4.6c-.6.3-1.2.6-1.8.3-.6-.3-1.2-.6-1.5-1.2-1.5-2.6-4.7-3.8-7.3-2.9l-12.6,4.9c-.9.3-1.8,0-2.3-.6l-3.5-3.5c-1.8-1.7-4.4-2.3-6.7-1.2l-11.7,6.4c-.9.6-1.2,1.4-.9,2.3.3.6.9.9,1.8.9s.6,0,.9-.3l12-6.1c.9-.3,1.8-.3,2.6.3l3.5,3.5c1.8,1.7,4.1,2,6.2,1.2l12.6-4.9c1.2-.3,2.3,0,2.6,1.2.9,1.4,2.1,2.6,3.8,2.9,1.8.3,3.2,0,4.7-.9l7.3-4.6c.9-.6,1.2-1.7.6-2.6-.9,0-2.1-.3-2.9.3Z"/>
          <path class="cls-1" d="M68.3,214.1h0c-1.2,0-2.1.9-2.1,1.7s.9,1.7,1.8,1.7h.3c.9,0,1.8-.9,1.8-1.7s-.6-1.7-1.8-1.7Z"/>
          <path class="cls-1" d="M160,192.4c.9,0,1.8-.9,1.8-1.7s-.9-1.7-1.8-1.7h-.3c-.9,0-1.8.9-1.8,1.7s.9,1.7,2.1,1.7h0Z"/>
          <path class="cls-1" d="M185.5,152.4c.9,0,1.8-.9,1.8-1.7s-.9-1.7-1.8-1.7h-.3c-.9,0-1.8.9-1.8,1.7s.9,1.7,2.1,1.7h0Z"/>
          <path class="cls-1" d="M200.5,195.8h0c-1.2,0-2.1.9-2.1,1.7s.9,1.7,1.8,1.7h.3c.9,0,1.8-.9,1.8-1.7s-.9-1.7-1.8-1.7Z"/>
        </g>
      </g>
    </g>
  </g>
</svg>