<?xml version="1.0" encoding="UTF-8"?>
<svg xmlns="http://www.w3.org/2000/svg" version="1.1" viewBox="0 0 292.4 289.7">
  <defs>
    <style>
      .cls-1 {
        fill: #fff;
      }
    </style>
  </defs>
  <!-- Generator: Adobe Illustrator 28.7.1, SVG Export Plug-In . SVG Version: 1.2.0 Build 142)  -->
  <g>
    <g id="Camada_1">
      <g id="_x35_42_x2C__Barrels_x2C__Environment_x2C__Garbage_x2C__Pollution">
        <g>
          <path class="cls-1" d="M113.4,142.6c.9.9,2.3,1.4,3.8,1.4s2.6-.6,3.8-1.4l5.6-5.5c2.1-2,2.1-5.2,0-7.2l-5.6-5.5c-.9-.9-2.3-1.4-3.8-1.4s-2.6.6-3.8,1.4l-5.6,5.5c-2.1,2-2.1,5.2,0,7.2l5.6,5.5Z"/>
          <path class="cls-1" d="M70.6,93.9c9.7,5.5,27.5,8.7,46.6,8.7s37.2-3.5,46.6-8.7c2.9-1.7,6.4-4.3,6.4-7.5s-5.6-8.1-14.9-11c-10.3-3.5-23.7-5.2-38.4-5.2s-28.1,1.7-38.4,5.2c-9.4,3.2-14.9,7.2-14.9,11,.6,3.2,4.1,5.8,7,7.5Z"/>
          <path class="cls-1" d="M192,136.5c.6,0,1.2.3,1.5.9.3.6.3,1.2,0,1.7-.3.3-.3.6-.3.9,0,2.9,6.2,6.1,14.1,6.1s14.1-3.2,14.1-6.1-4.4-5.5-11.4-6.1c-.6,0-1.2-.3-1.5-.9-.3-.6-.3-1.2,0-1.7.3-.3.3-.6.3-.9,0-2.9-6.2-6.1-14.1-6.1s-14.1,3.2-14.1,6.1,4.4,5.5,11.4,6.1Z"/>
          <path class="cls-1" d="M70.6,151.9c9.7,5.5,27.5,8.7,46.6,8.7s37.2-3.5,46.6-8.7c2.9-1.7,6.4-4.3,6.4-7.5s-3.5-5.8-6.4-7.5c-.6-.3-.9-.9-.9-1.4v-36.8h-.3q-.3,0-.6.3c-.3,0-.3.3-.6.3s-.3,0-.6.3c-.3,0-.3.3-.6.3s-.3,0-.6.3c-.3,0-.3.3-.6.3s-.3,0-.6.3c-.3,0-.6.3-.6.3q-.3,0-.6.3c-.3,0-.6.3-.9.3s-.3,0-.6.3c-.3,0-.6.3-.9.3h-.3c-.3,0-.6.3-1.2.3h-.3c-.6,0-.9.3-1.5.3h-.3c-.3,0-.9.3-1.2.3h-.6c-.3,0-.6.3-.9.3h-.6c-.3,0-.6,0-.9.3h-.6c-.3,0-.6,0-.9.3h-.6c-.3,0-.6,0-.9.3h-.6c-.3,0-.6,0-.9.3h-.6c-.3,0-.6,0-.9.3h-.6c-.3,0-.6,0-.9.3h-.6c-.3,0-.9,0-1.2.3h-.6c-.6,0-.9,0-1.5.3h0c-.6,0-1.2,0-1.8.3h-36.3c-.6,0-1.2,0-1.8-.3h0c-.6,0-.9,0-1.5-.3h-.6c-.3,0-.6,0-1.2-.3h-.6c-.3,0-.6,0-.9-.3h-.6c-.3,0-.6,0-.9-.3h-.6c-.3,0-.6,0-.9-.3h-.6c-.3,0-.6,0-.9-.3h-.6c-.3,0-.6,0-.9-.3h-.6c-.3,0-.6,0-.9-.3h-.6c-.3,0-.6-.3-.9-.3h-.6c-.3,0-.6-.3-1.2-.3h-.3c-.6,0-.9-.3-1.5-.3h-.3c-.3,0-.6-.3-.9-.3h-.6c-.3,0-.6-.3-.9-.3s-.3,0-.6-.3c-.3,0-.6-.3-.9-.3s-.3,0-.6-.3c-.3,0-.6-.3-.6-.3q-.3,0-.6-.3c-.3,0-.3-.3-.6-.3s-.3,0-.6-.3c-.3,0-.3-.3-.6-.3s-.3,0-.6-.3c-.3,0-.3-.3-.6-.3s-.3,0-.6-.3h-.3v36.8c0,.6-.3,1.2-.9,1.4-2.9,1.7-6.4,4.3-6.4,7.5s5.3,5.8,8.2,7.5ZM105.5,127.3l5.6-5.5c1.8-1.7,3.8-2.6,6.4-2.6s4.7.9,6.4,2.6l5.6,5.5c3.5,3.5,3.5,9,0,12.5l-5.6,5.5c-1.8,1.7-3.8,2.6-6.4,2.6s-4.7-.9-6.4-2.6l-5.6-5.5c-3.5-3.5-3.5-9,0-12.5Z"/>
          <path class="cls-1" d="M202.2,198.8c-.9,0-1.5-.6-1.5-1.4s.3-1.4.9-2c3.5-1.7,5.6-4.1,5.6-6.1s-.9-2.9-2.6-4.3c-.6-.6-.9-1.2-.6-2,.3-.6.9-1.2,1.5-1.2,9.4-1.2,16.4-4.9,16.4-8.7s-9.7-9-23.7-9-23.7,4.6-23.7,9,.3,1.7,1.2,2.6c.6.6.6,1.2.3,1.7-.3.6-.9,1.2-1.5,1.2-2.6.3-5,.6-7.3,1.2v8.7c6.2,3.8,7.3,7.5,7.3,10.1s-1.8,7.2-10,11.6c-.3.3-.6.3-.9.6h-.3c-.3,0-.6.3-.9.3h-.3c-.3.3-.6.3-1.2.6h-.3c-.3,0-.6.3-.9.3h-.3c-.3,0-.6.3-.9.3h-.3c-.3,0-.9.3-1.2.3h-.3c-.3,0-.6.3-.9.3h-.3c-.3,0-.9.3-1.2.3h0c-.3,0-.9.3-1.2.3h-.3c-.3,0-.6.3-1.2.3h-.3c-.6,0-.9.3-1.5.3h-.3c-.3,0-.6,0-.9.3,8.5,2,19.6,3.2,31.4,3.2s24.3-1.2,33.1-3.5c9.4-2.3,12.6-5.2,12.6-7-.6-1.2-6.7-5.5-23.7-8.1Z"/>
          <path class="cls-1" d="M162.4,206.9c5-2.6,7.9-5.5,7.9-8.1s-3.5-5.8-6.4-7.5c-.6-.3-.9-.9-.9-1.4v-33.3h-.3q-.3,0-.6.3c-.3,0-.3.3-.6.3s-.3,0-.6.3c-.3,0-.3.3-.6.3s-.3,0-.6.3c-.3,0-.3.3-.6.3s-.3,0-.6.3c-.3,0-.6.3-.6.3q-.3,0-.6.3c-.3,0-.6.3-.6.3q-.3,0-.6.3c-.3,0-.6.3-.9.3s-.3,0-.6.3c-.3,0-.6.3-.9.3h-.3c-.3,0-.9.3-1.5.3h-.3c-.3,0-.6.3-.9.3h-.6c-.3,0-.6,0-.9.3h-.6c-.3,0-.6,0-.9.3h-.6c-.3,0-.6,0-.9.3h-.6c-.3,0-.6,0-.9.3h-.6c-.3,0-.6,0-.9.3h-.6c-.3,0-.6,0-.9.3h-.6c-.3,0-.6,0-.9.3h-.6c-.3,0-.6,0-1.2.3h-.6c-.6,0-.9,0-1.5.3h-.3c-.6,0-1.2,0-1.8.3h-35.8c-.6,0-1.2,0-1.8-.3h-.3c-.6,0-.9,0-1.5-.3h-.6c-.3,0-.6,0-1.2-.3h-.6c-.3,0-.6,0-.9-.3h-.6c-.3,0-.6,0-.9-.3h-.6c-.3,0-.6,0-.9-.3h-.6c-.3,0-.6,0-.9-.3h-.6c-.3,0-.6,0-.9-.3h-.6c-.3,0-.6,0-.9-.3h-.6c-.3,0-.6,0-.9-.3h-.6c0-.9-.6-.9-.9-.9h-.3c-.6,0-.9-.3-1.5-.3h-.3c-.3,0-.6-.3-.9-.3s-.3,0-.6-.3c-.3,0-.6-.3-.9-.3s-.3,0-.6-.3c-.3,0-.6-.3-.6-.3q-.3,0-.6-.3c-.3,0-.6-.3-.6-.3q-.3,0-.6-.3c-.3,0-.3-.3-.6-.3s-.3,0-.6-.3c-.3,0-.3-.3-.6-.3s-.3,0-.6-.3c-.3,0-.3-.3-.6-.3s-.3,0-.6-.3h-.3v33.3c0,.6-.3,1.2-.9,1.4-2.9,1.7-6.4,4.3-6.4,7.5s5.6,8.1,14.9,11c10.3,3.5,23.7,5.2,38.4,5.2s15.8-.6,22.9-1.7h0c5.9-.9,10.8-2,15.2-3.5,2.9-.3,5.6-1.2,7.3-2.3Z"/>
        </g>
      </g>
    </g>
  </g>
</svg>