<?xml version="1.0" encoding="UTF-8"?>
<svg xmlns="http://www.w3.org/2000/svg" version="1.1" viewBox="0 0 292.4 289.7">
  <defs>
    <style>
      .cls-1 {
        fill: #fff;
      }
    </style>
  </defs>
  <!-- Generator: Adobe Illustrator 28.7.1, SVG Export Plug-In . SVG Version: 1.2.0 Build 142)  -->
  <g>
    <g id="Camada_1">
      <g id="_x35_43_x2C__Air_x2C__Carbone_Dioxide_x2C__Co2_x2C__Pollution">
        <g>
          <path class="cls-1" d="M196.1,111.8h-.6c-.6,0-1.2-.3-1.5-.6-.3-.3-.6-.9-.3-1.4.3-2,.6-4.1.6-5.8,0-19.4-15.8-35.1-35.5-35.1s-25.8,7.5-31.7,19.4c-.3.9-1.5,1.2-2.3.9-2.9-1.2-6.2-2-9.4-2-12.6,0-22.9,10.1-22.9,22.9v.6c0,.9-.6,1.7-1.5,1.7-13.5,2.6-23.4,14.8-23.4,28.4s8.5,26.1,20.5,29.3h5.3v-9.3c0-.3,0-.6.3-.6v-.6c0-.3,0-.6.3-.6v-.6c0-.3,0-.6.3-.6v-.6c0-.3,0-.6.3-.6q0-.3.3-.6c0-.3.3-.6.3-.6q0-.3.3-.6c0-.3.3-.6.3-.6q0-.3.3-.6c0-.3.3-.6.3-.6q0-.3.3-.6c0-.3.3-.6.3-.6q0-.3.3-.6c0-.3.3-.6.3-.6q0-.3.3-.6c0-.3.3-.6.3-.6,0,0,0-.3.3-.3,0-.3.3-.6.3-.6,0,0,0-.3.3-.3,0-.3.3-.6.3-.6,0,0,0-.3.3-.3,0-.3.3-.6.3-.6l.3-.3c0-.3.3-.6.3-.6l.3-.3c0-.3.3-.6.3-.6l.3-.3c0-.3.3-.6.6-.6l.3-.3c.3-.3.3-.6.6-.6l.3-.3c.3-.3.3-.6.6-.6l.3-.3q.3-.3.6-.6l.3-.3q.3-.3.6-.6l.3-.3.6-.6.3-.3q.3-.3.6-.6l.3-.3q.3-.3.6-.6l.3-.3q.3-.3.6-.6l.3-.3q.3-.3.6-.6l.3-.3.6-.6.3-.3q.3-.3.6-.6l.3-.3q.3-.3.6-.6l.3-.3q.3-.3.6-.6l.3-.3c.3-.3.6-.3.6-.6l.3-.3c.3-.3.6-.3.6-.6l.3-.3c.3-.3.6-.3.6-.6l.3-.3c.3-.3.6-.3.6-.6l.3-.3c.3-.3.6-.3.6-.6l.3-.3c.3,0,.6-.3.6-.3,0,0,.3,0,.3-.3.3,0,.6-.3.6-.3,0,0,.3,0,.3-.3.3,0,.6-.3.6-.3,0,0,.3,0,.3-.3.3,0,.6-.3.6-.3,0,0,.3,0,.3-.3.3,0,.6-.3.6-.3,0,0,.3,0,.3-.3.3,0,.6-.3.9-.3,0,0,.3,0,.3-.3.3,0,.6-.3.9-.3,0,0,.3,0,.3-.3.3,0,.6-.3.9-.3,0,0,.3,0,.3-.3.3,0,.6-.3.9-.3s.3,0,.6-.3c.3,0,.6-.3.9-.3s.3,0,.6-.3c.3,0,.6-.3.9-.3h.6c.3,0,.6,0,.9-.3h.6c.3,0,.6,0,.9-.3h.6c.3,0,.6,0,.9-.3h23.4c.3,0,.6,0,.9.3h.6c.3,0,.6,0,.9.3h.6c.3,0,.6,0,.9.3h.6c.3,0,.6,0,.6.3q.3,0,.6.3c.3,0,.6.3.6.3q.3,0,.6.3c.3,0,.6.3.6.3q.3,0,.6.3c.3,0,.6.3.6.3q.3,0,.6.3c.3,0,.6.3.6.3q.3,0,.6.3c.3,0,.6.3.6.3q.3,0,.6.3c.3,0,.6.3.6.3,0,0,.3,0,.3.3.3,0,.6.3.6.3,0,0,.3,0,.3.3.3,0,.6.3.6.3l.3.3c.3,0,.6.3.6.3l.3.3c.3,0,.6.3.6.3l.3.3c.3,0,.6.3.6.3l.3.3c.3,0,.6.3.6.3l.3.3q.3.3.6.6l.3.3q.3.3.6.6l.3.3q.3.3.6.6l.3.3q.3.3.6.6l.3.3q.3.3.6.6l.3.3.6.6.3.3q.3.3.6.6l.3.3q.3.3.6.6l.3.3q.3.3.6.6l.3.3q.3.3.6.6l.3.3q.3.3.6.6l.3.3q.3.3.6.6l.3.3q.3.3.6.6l.3.3q.3.3.6.6l.3.3q.3.3.6.6l.3.3q.3.3.6.6l.3.3c0,.3.3.3.3.6l.3.3c0,.3.3.3.3.6l.3.3c0,.3.3.3.3.6l.3.3c0,.3.3.6.3.6l.3.3c0,.3.3.6.3.6,0,.3.3.3.3.6s.3.6.3.6q0,.3.3.6c0,.3.3.6.3.6q0,.3.3.6c0,.3.3.6.3.6q0,.3.3.6c0,.3.3.6.3.6q0,.3.3.6c0,.3.3.6.3.6q0,.3.3.6c0,.3.3.6.3.6q0,.3.3.6c0,.3.3.6.3.6q0,.3.3.6c0,.3,0,.6.3.6q0,.3.3.6c0,.3,0,.6.3.6v.6c0,.3,0,.6.3.6v10.4h1.2c15.5-.6,27.5-13.3,27.5-29.3-.9-15.9-14.1-29-30.2-29Z"/>
          <path class="cls-1" d="M145.1,123.1h-1.2c-20.5.6-37.8,13.9-44.3,32.2,0,.3-.3.9-.3,1.2-.3,1.2-.6,2.3-.9,3.5,0,.3-.3.9-.3,1.2-.3,1.2-.3,2.3-.6,3.5-.3,2-.3,4.1-.3,6.1v1.4h0c.9,25.8,22,46.1,48.1,46.1s47.2-20.3,48.1-46.1v-1.4c-.3-26.4-22-47.5-48.4-47.5ZM167.3,153.3c.3-.3.9-.6,1.2-.6.6,0,.9.3,1.2.6.3.3.6.9.6,1.2,0,.6-.3.9-.6,1.2-.3.3-.9.6-1.2.6-.6,0-.9-.3-1.2-.6-.3-.3-.6-.9-.6-1.2s0-.9.6-1.2ZM145.4,153.3c.3-.3.9-.6,1.2-.6.6,0,.9.3,1.2.6.3.3.6.9.6,1.2s-.3.9-.6,1.2c-.3.6-.6.9-1.2.9s-.9-.3-1.2-.6c-.3-.3-.6-.9-.6-1.2,0-.6,0-1.2.6-1.4ZM138,135.3c.3-.3.9-.6,1.2-.6s.9.3,1.2.6c.3.3.6.9.6,1.2s-.3.9-.6,1.2c-.3.3-.9.6-1.2.6s-.9-.3-1.2-.6c-.3-.3-.6-.9-.6-1.2s0-.9.6-1.2ZM126.9,153.3c.3-.3.9-.6,1.2-.6s.9.3,1.2.6c.3.3.6.9.6,1.2,0,.6-.3.9-.6,1.2-.3.3-.9.6-1.2.6s-.9-.3-1.2-.6c-.3-.3-.6-.9-.6-1.2s.3-.9.6-1.2ZM116.1,149.8c.3-.3.9-.6,1.2-.6s.9.3,1.2.6c.3.3.6.9.6,1.2,0,.6-.3.9-.6,1.2-.3.3-.9.6-1.2.6s-.9-.3-1.2-.6c-.3-.3-.6-.9-.6-1.2s0-.9.6-1.2ZM116.1,167.7c.3-.3.9-.6,1.2-.6s.9.3,1.2.6c.3.3.6.9.6,1.2,0,.6-.3.9-.6,1.2-.3.6-.6.9-1.2.9s-.9-.3-1.2-.6c-.3-.3-.6-.9-.6-1.2,0-.6,0-1.2.6-1.4ZM131.6,198.7c-.6.6-1.5,1.2-2.1,1.4-.9.3-1.8.9-2.6.9-.9.3-1.8.3-2.6.3-1.5,0-2.9-.3-4.4-.9-1.2-.6-2.3-1.4-3.2-2.6-.9-1.2-1.8-2.3-2.1-3.5-.6-1.4-.9-2.6-.9-4.1s.3-2.6.6-3.8c.6-1.2,1.2-2.3,2.1-3.5.9-.9,2.1-1.7,3.5-2.3,1.5-.6,2.9-.9,4.4-.9s3.8.3,5.3,1.2c1.5.9,2.6,2,3.2,3.5l-3.8,2.6c-.3-.6-.6-1.2-.9-1.4-.3-.3-.9-.6-1.2-.9-.6-.3-.9-.3-1.5-.6h-1.5c-.9,0-1.8.3-2.3.6-.6.3-1.2.9-1.8,1.4-.6.6-.9,1.2-1.2,2s-.3,1.4-.3,2.3,0,1.7.3,2.3c.3.9.6,1.4,1.2,2,.6.6,1.2,1.2,1.8,1.4.6.3,1.5.6,2.3.6s.9,0,1.5-.3c.6,0,.9-.3,1.5-.6.3-.3.9-.6,1.2-.9.3-.3.6-.9.9-1.4l4.1,2.3c-.3,1.2-.6,2-1.5,2.6ZM154.7,194.7c-.6,1.2-1.2,2.3-2.3,3.5-.9.9-2.1,1.7-3.5,2.3-1.2.6-2.6.9-4.4.9s-2.9-.3-4.4-.9c-1.2-.6-2.3-1.4-3.2-2.3-.9-.9-1.8-2-2.1-3.5-.6-1.2-.9-2.6-.9-4.1s.3-2.6.9-4.1c.6-1.2,1.2-2.3,2.3-3.5.9-.9,2.1-1.7,3.5-2.3,1.2-.6,2.6-.9,4.4-.9s2.9.3,4.4.9c1.2.6,2.3,1.4,3.2,2.3.9,1.2,1.8,2.3,2.1,3.5.6,1.2.9,2.6.9,4.1s-.3,2.9-.9,4.1ZM156.2,145.1c-.3-.3-.6-.9-.6-1.2,0-.6.3-.9.6-1.2.3-.3.9-.6,1.2-.6.6,0,.9.3,1.2.6.3.3.6.9.6,1.2,0,.6-.3.9-.6,1.2-.3.3-.9.6-1.2.6s-.9-.3-1.2-.6ZM172.6,201.4h-14.9c0-1.2,0-1.7.3-2.6,0-.9.3-1.4.6-2,.3-.6.9-1.2,1.5-1.7.6-.6,1.5-1.2,2.3-1.4.9-.6,1.8-.9,2.3-1.2.6-.3,1.2-.6,1.5-.9.3-.3.6-.6.9-.6.3-.3.3-.6.3-.9,0-.6-.3-.9-.6-1.4-.3-.3-.9-.6-1.8-.6s-1.5.3-2.3.6c-.6.3-1.2.9-1.8,1.7l-3.2-3.5c.3-.3.9-.6,1.2-1.2.6-.3,1.2-.6,1.8-.9.6-.3,1.5-.6,2.3-.6.9-.3,1.8-.3,2.6-.3,2.1,0,3.8.6,5,1.4,1.2.9,1.8,2.3,1.8,3.8s0,1.2-.3,1.7c-.3.6-.6.9-.9,1.4-.3.3-.6.9-1.2,1.2-.3.3-.9.6-1.2.9-.3.3-.6.3-1.2.6-.3.3-.9.6-1.2.9-.3.3-.9.6-1.2.9-.3.3-.6.6-.9.6h8.2v4.1Z"/>
          <path class="cls-1" d="M149.2,186.3c-.6-.6-1.2-1.2-1.8-1.4-.6-.3-1.5-.6-2.3-.6s-1.8.3-2.3.6c-.6.3-1.2.9-1.8,1.4-.6.6-.9,1.2-1.2,2-.3.9-.3,1.4-.3,2.3s0,1.7.3,2.3c.3.9.6,1.4,1.2,2,.6.6,1.2,1.2,1.8,1.4.6.3,1.5.6,2.3.6s1.8-.3,2.3-.6c.6-.3,1.2-.9,1.8-1.4.6-.6.9-1.2,1.2-2,.3-.9.3-1.4.3-2.3s0-1.7-.3-2.3c-.6-.9-.9-1.4-1.2-2Z"/>
        </g>
      </g>
    </g>
  </g>
</svg>