<?xml version="1.0" encoding="UTF-8"?>
<svg xmlns="http://www.w3.org/2000/svg" version="1.1" viewBox="0 0 292.4 289.7">
  <defs>
    <style>
      .cls-1 {
        fill: #fff;
      }
    </style>
  </defs>
  <!-- Generator: Adobe Illustrator 28.7.1, SVG Export Plug-In . SVG Version: 1.2.0 Build 142)  -->
  <g>
    <g id="Camada_1">
      <g id="_x35_35_x2C__Environment_x2C__Garbage_x2C__Pollution_x2C__Trash">
        <g>
          <path class="cls-1" d="M102.6,89.8l77.7,21.1c.6.3,1.2.3,2.1.3,3.2,0,6.2-2.3,7-5.2.6-1.7.3-3.8-.6-5.5-.9-1.7-2.6-2.9-4.4-3.5l-19.3-5.2h0l-27.3-7.5-31.1-8.4c-.6-.3-1.2-.3-2.1-.3-3.2,0-6.2,2.3-7,5.2-.6,1.7-.3,3.8.6,5.5.9,1.7,2.3,2.9,4.4,3.5Z"/>
          <polygon class="cls-1" points="163.8 87.8 165.9 80.5 130.4 71 128.7 77.9 131.9 79.1 163.8 87.8"/>
          <path class="cls-1" d="M201,133.3c.6,0,1.2.3,1.5.9.3.6.3,1.2,0,1.7v.6c0,1.4,3.8,3.8,9.7,3.8s9.7-2.3,9.7-3.8-2.6-3.2-7.6-3.8c-.6,0-1.2-.3-1.5-.9-.3-.6-.3-1.2,0-1.7v-.6c0-1.4-3.8-3.8-9.7-3.8s-9.7,2.3-9.7,3.8c-.3,1.2,2.6,3.2,7.6,3.8Z"/>
          <path class="cls-1" d="M99.1,122c-2.9,0-5.6,2.3-5.6,5.5v88.7h11.1v-88.7c-.3-2.9-2.6-5.5-5.6-5.5Z"/>
          <path class="cls-1" d="M194.9,189.2c-.9,0-1.5-.9-1.5-1.4,0-.9.3-1.7,1.2-2,4.7-1.7,7-4.1,7-6.1s-1.8-3.2-3.2-4.1c-.6-.3-.9-1.2-.9-2,.3-.9.9-1.2,1.5-1.4,13.5-1.4,21.7-5.5,21.7-8.7s-12-9-31.4-9-21.4,1.7-27,4.6l-4.1,49.8h7c16.4,0,31.7-1.2,43.4-3.5,13.2-2.6,16.7-5.8,16.7-7,0-2.3-8.2-6.7-30.5-9.3Z"/>
          <path class="cls-1" d="M131.9,122c-2.9,0-5.6,2.3-5.6,5.5v88.7h11.1v-88.7c0-2.9-2.6-5.5-5.6-5.5Z"/>
          <path class="cls-1" d="M158.6,158.2l3.5-48.4-14.9-4.1-19.9-5.5h-59.2l8.8,115.9h12.9v-88.7c0-4.9,4.1-9,9.1-9s9.1,4.1,9.1,9v88.7h14.7v-88.7c0-4.9,4.1-9,9.1-9s9.1,4.1,9.1,9v88.7h12.9l.9-11.9,4.1-46.1h0Z"/>
        </g>
      </g>
    </g>
  </g>
</svg>