<?xml version="1.0" encoding="UTF-8"?>
<svg xmlns="http://www.w3.org/2000/svg" version="1.1" viewBox="0 0 292.4 289.7">
  <defs>
    <style>
      .cls-1 {
        fill: #fff;
      }
    </style>
  </defs>
  <!-- Generator: Adobe Illustrator 28.7.1, SVG Export Plug-In . SVG Version: 1.2.0 Build 142)  -->
  <g>
    <g id="Camada_1">
      <g id="_x35_50_x2C__Dump_x2C__Environment_x2C__Garbage_x2C__Pollution">
        <g>
          <path class="cls-1" d="M99.1,194.1c3.1,0,5.6,2.5,5.6,5.5s-2.5,5.5-5.6,5.5-5.6-2.5-5.6-5.5,2.5-5.5,5.6-5.5Z"/>
          <path class="cls-1" d="M115.5,199.6c0-9-7.3-16.2-16.4-16.2s-16.4,7.2-16.4,16.2,7.3,16.2,16.4,16.2,16.4-7.2,16.4-16.2ZM99.1,208.6c-5,0-9.1-4.1-9.1-9s4.1-9,9.1-9,9.1,4.1,9.1,9-4.1,9-9.1,9Z"/>
          <path class="cls-1" d="M137.5,172.4v-14.5h-11.1v11.6c0,1.4,1.2,2.9,2.9,2.9h8.2Z"/>
          <path class="cls-1" d="M91.7,96.2c3.1,0,5.6,2.5,5.6,5.5s-2.5,5.5-5.6,5.5-5.6-2.5-5.6-5.5,2.5-5.5,5.6-5.5Z"/>
          <path class="cls-1" d="M152.1,194.1c0-2-1.8-3.8-3.8-3.8h-7.3v7.2h7.3c2.1.3,3.8-1.4,3.8-3.5Z"/>
          <path class="cls-1" d="M78.8,197.6v-2.9q0-.3.3-.6v-.3q0-.3.3-.6v-.3q0-.3.3-.6s0-.3.3-.3c0-.3.3-.3.3-.6,0,0,0-.3.3-.3,0-.3.3-.3.3-.6,0,0,0-.3.3-.3,0-.3.3-.3.3-.6,0,0,0-.3.3-.3,0-.3.3-.3.3-.6,0,0,0-.3.3-.3,0-.3.3-.3.3-.6,0,0,0-.3.3-.3,0-.3.3-.3.6-.6v-.3c.3-.6.9-.9,1.2-1.4l.3-.3q.3-.3.6-.6s.3,0,.3-.3c.3,0,.3-.3.6-.3l.3-.3c.3,0,.3-.3.6-.3l.3-.3c.3,0,.3-.3.6-.3l.3-.3c.3,0,.3-.3.6-.3,0,0,.3,0,.3-.3.3,0,.3-.3.6-.3,0,0,.3,0,.3-.3.3,0,.3-.3.6-.3,0,0,.3,0,.3-.3.3,0,.3-.3.6-.3,0,0,.3,0,.3-.3q.3,0,.6-.3s.3,0,.3-.3q.3,0,.6-.3h.3q.3,0,.6-.3h9.4q.3,0,.6.3h.3q.3,0,.6.3s.3,0,.3.3q.3,0,.6.3s.3,0,.3.3q.3,0,.6.3s.3,0,.3.3c.3,0,.3.3.6.3,0,0,.3,0,.3.3.3,0,.3.3.6.3,0,0,.3,0,.3.3.3,0,.3.3.6.3,0,0,.3,0,.3.3.3,0,.3.3.6.3l.3.3c.3,0,.3.3.6.3l.3.3c.3,0,.3.3.6.3,0,0,.3,0,.3.3q.3.3.6.6l.3.3c.6.6.9.9,1.2,1.4v.3q.3.3.6.6s0,.3.3.3c0,.3.3.3.3.6,0,0,0,.3.3.3,0,.3.3.3.3.6,0,0,0,.3.3.3,0,.3.3.3.3.6,0,0,0,.3.3.3,0,.3.3.3.3.6,0,0,0,.3.3.3,0,.3.3.3.3.6,0,0,0,.3.3.3q0,.3.3.6v.3q0,.3.3.6v.3q0,.3.3.6v2.9h18.5v-21.7h-8.2c-3.5,0-6.4-2.9-6.4-6.4v-11.6h-58.6v40l14.4-.3h0Z"/>
          <path class="cls-1" d="M225.7,116.5c-1.8-2.6-4.7-4.6-7.9-5.2-1.2-.3-2.6-.3-3.8,0-.6,0-1.5-.3-1.8-.9-.3-.6-.6-1.2-.3-1.7.9-1.7,1.5-3.5,1.8-5.2,1.2-5.5,0-11-3.2-15.6-3.2-4.6-7.9-7.8-13.5-9-1.5-.6-2.9-.6-4.1-.6-8.5,0-15.8,4.9-19.3,12.5-.3.6-.6.9-1.2.9-.6.3-.9,0-1.5,0-2.9-1.4-6.2-2.3-9.7-2.3s-7,.9-10,2.6c-.6.3-1.2.3-1.8,0-.6-.3-.9-.9-.9-1.7v-1.2c0-9.9-8.2-18.3-18.5-18.3s-13.8,4.3-16.7,10.7c-.3.6-.9.9-1.5,1.2-.6,0-1.2-.3-1.8-.9-1.8-2-4.7-3.5-7.6-3.5-5,0-9.1,4.1-9.1,9s4.1,9,9.1,9,5-1.2,6.7-2.9c.6-.6,1.2-.6,1.8-.6.6.3,1.2.6,1.5,1.2,2.3,7.8,9.4,13,17.6,13s5.9-.6,8.5-2c.6-.3,1.2-.3,1.8,0,.6.3.9,1.2.9,1.7v2c0,7,3.5,13.3,9.7,16.8.6.3.9.9.9,1.7-.3,7,2.6,12.7,7,14.8.9.3,1.2,1.4.9,2.3-.6,1.7-1.2,3.2-1.5,5.2-.9,4.6-.3,9.3,1.5,13,1.8,3.5,4.4,5.8,7.6,6.4.9.3,1.8.3,2.3,0,.9,0,1.8.6,2.1,1.4.3.9-.3,1.7-.9,2-3.8,1.7-6.7,5.2-7.6,9.3l11.7,17.1h2.1c6.7,0,12.6-4.9,13.8-11.3.3-1.4.3-3.2,0-4.6,0-.6,0-1.2.6-1.4.3-.3.9-.6,1.5-.6h2.1c6.7,0,12.6-4.9,13.8-11.3.6-2.6.3-5.5-.9-8.1-.3-.6-.3-1.2.3-1.7.3-.6,1.2-.9,1.8-.6h1.8c5.9,0,11.1-4.1,12-9.9.9-4.3-.9-9-4.1-11.6-.6-.3-.9-1.2-.6-1.7,0-.6.6-1.2,1.2-1.4,4.4-1.4,7.3-4.9,8.2-9.3-.3-2.9-.9-6.1-2.6-8.7ZM170.3,115.9c.3-.9.9-1.4,1.8-1.4s1.8.6,1.8,1.4l1.5,6.4v.6c0,.9-.9,1.7-1.8,1.7h0c-.9,0-1.5-.6-1.8-1.4-1.2-4.6-1.5-6.1-1.5-7.2ZM184.9,156.2c0,.9-.9,1.7-1.8,1.7h0c-.9,0-1.8-.9-1.8-1.7.3-5.2-.9-9.3-3.2-11-2.3-2-5.6-1.4-5.6-1.4-.9.3-2.1-.6-2.1-1.4-.3-.9.6-2,1.5-2s5-.9,8.5,2.3c3.2,2.3,4.7,7,4.4,13.6ZM197.2,153.8h-.3c-.6,0-1.2-.6-1.2-.9-.3-.6-.3-1.2,0-1.7h0c.3-.6.9-1.2,1.8-.9.9,0,1.5.6,1.5,1.2h0v.6c0,.9-.9,1.7-1.8,1.7Z"/>
          <path class="cls-1" d="M208.1,215.8H72.7c-.9,0-1.8.9-1.8,1.7s.9,1.7,1.8,1.7h135.4c.9,0,1.8-.9,1.8-1.7s-.9-1.7-1.8-1.7Z"/>
        </g>
      </g>
    </g>
  </g>
</svg>