<?xml version="1.0" encoding="UTF-8"?>
<svg xmlns="http://www.w3.org/2000/svg" version="1.1" viewBox="0 0 292.4 289.7">
  <defs>
    <style>
      .cls-1 {
        fill: #fff;
        fill-rule: evenodd;
      }
    </style>
  </defs>
  <!-- Generator: Adobe Illustrator 28.7.1, SVG Export Plug-In . SVG Version: 1.2.0 Build 142)  -->
  <g>
    <g id="Camada_1">
      <path class="cls-1" d="M188.1,127.1l13.8-45.3-9.7,4.5c-1.9-4-4.7-9.7-9-14.5-8.1-8.8-17.6-9.5-25.6-9.5h-35.6c-5.5,0-9.5,2.1-12.3,6.9l-20.7,33.5,36.8,19.2.5-1.2c4.3-6.9,8.5-14,12.6-20.9,1.2-2.1,2.4-4.3,3.8-6.4l9,16.1-11.2,5.5,47.7,12.1ZM101.7,175.7l9.3-16.1c2.4,1.4,5.9,3.8,6.6,4.3l3.6,2.4-14.2-47-45.8,11.6,9,5.9c-2.6,3.8-5.9,9-7.8,15.2-3.6,11.4.7,19.9,5,27.1,0,0,15.4,25.4,18.3,30.4,2.8,4.5,6.9,6.9,12.3,6.9h37.7v-40.6h-33.9ZM229.4,152l-20.2-33.9-33.9,23.5.5.9c4.3,6.9,8.3,13.5,12.3,20.2,1.4,2.4,2.8,4.7,4.3,7.1l-18.5.2c.2-2.4.2-6.2.2-8.1l.2-4.3-33,36.6,33.7,33.2.5-10.4h4.7c4.5,0,8.5-.5,12.3-1.4,11.6-2.8,16.6-10.9,20.4-18,.2-.5,16.4-31.1,16.6-31.6,2.6-4.7,2.4-9.5-.2-14h0Z"/>
    </g>
  </g>
</svg>