<?xml version="1.0" encoding="UTF-8"?>
<svg xmlns="http://www.w3.org/2000/svg" version="1.1" viewBox="0 0 292.4 289.7">
  <defs>
    <style>
      .cls-1 {
        fill: #fff;
        fill-rule: evenodd;
      }
    </style>
  </defs>
  <!-- Generator: Adobe Illustrator 28.7.1, SVG Export Plug-In . SVG Version: 1.2.0 Build 142)  -->
  <g>
    <g id="Camada_1">
      <path class="cls-1" d="M63,191.4c9.8-13.4,22.4-23.2,35.8-32,10.8-7,23.2-5.4,34.8-.8,7,2.8,14.2,3.1,20.9,1,9-2.6,18.1-3.1,27.3-3.1s7.2,1.5,9.6,4.6c1.5,1.5-9.3,8.8-18.6,8.8,1.6,3.6,31.7-3.6,35.6-3.3l22.7-3.1c7.5-.5,20.6-1.8,26.3,5.2,1.3,1.5,1.3,3.6.5,5.7-.8,2.1-2.8,1.6-4.4,2.1-10.3,4.1-13.4,5.9-27.3,9.5-43.1,10.6-48,16.5-95.7,16.3-17.5,0-30.9,7-40,22.4h-56.7c12.4-14.4,17.8-18.1,29.1-33.3h0ZM155.4,138c-13.7,0-24.8-11.1-24.8-25s24.8-48,24.8-48c0,0,24.8,34.3,24.8,48s-11.1,25-24.8,25h0Z"/>
    </g>
  </g>
</svg>