<?xml version="1.0" encoding="UTF-8"?>
<svg xmlns="http://www.w3.org/2000/svg" version="1.1" viewBox="0 0 292.4 289.7">
  <defs>
    <style>
      .cls-1 {
        fill: #fff;
        fill-rule: evenodd;
      }
    </style>
  </defs>
  <!-- Generator: Adobe Illustrator 28.7.1, SVG Export Plug-In . SVG Version: 1.2.0 Build 142)  -->
  <g>
    <g id="Camada_1">
      <path class="cls-1" d="M157.2,117.7c2.2,5.2,3.4,6.9,7.6,9.4-.2,3.1-.4,7-.2,9.2h-2.2c-1.1-1.6-2.9-3.6-4.5-5.4,2.3-5.8-.9-12.6-4.5-17.3-2-2.5-4.5-4.7-7.2-6.5-2.9-1.8-6.1-3.1-9.4-3.6-3.1-.7-6.5-.7-9.6,0-2.9.7-5.4,2-7,3.4-.7.7-1.1,1.3-1.3,1.8-.4.4-.4.7-.4.7,0,0,.2.2.7.4.2.2.9.9,1.3,1.3,1.1,1.3,2.5,2.9,3.8,4.7,2.5,3.4,5.8,7.2,10.3,9.9,2.2,1.3,4.5,2.5,7.2,3.4,2.5.9,4.9,1.3,7.4,1.8,2,.2,6.7.9,8.3.9.7.9,1.6,2,1.8,2.5.5.9.9,1.6,1.3,2.2-12.8,2.2-23.8,9.6-30.5,20.2h75.2c-6.5-10.1-17.1-17.5-29.2-20,.2-.5.4-.9.9-1.3,0-.4.7-1.1,1.1-1.8h0c1.6.2,6.5-.4,8.5-.7,2.5-.4,5.2-.9,7.6-1.8,2.5-.9,4.9-2,7-3.4,4.5-2.7,7.9-6.5,10.5-9.9,1.1-1.8,3.4-4.9,5.2-6.1.5-.5.7-.5.7-.5,0,0-.2-.2-.4-.7-.4-.5-.9-1.3-1.6-1.8-1.3-1.3-4-2.7-7-3.4-2.9-.7-6.3-.7-9.6,0-3.4.4-6.5,1.8-9.2,3.6-2.9,1.8-5.4,4-7.2,6.5-2,2.5-3.4,5.2-4.3,7.9-1.3,4.3-1.8,5.8-.7,9.2-1.1,1.4-2.5,2.7-3.4,3.8-2-.4-4.3-.4-6.5-.4h-.9c-.2-.9.7-5.8,0-8.8,1.8-2,5.4-5.8,7-7.6,2-2.5,4.3-5.4,5.8-8.3,1.8-2.9,3.1-6.3,4.3-9.6,2-6.5,2.2-13.2,1.8-18.9-.4-2.9-.7-5.6-.4-7.6,0-1.1,0-2.3.2-2.9.2-.4.2-.9.2-.9,0,0-.4-.2-1.1-.4-.5,0-1.6-.4-2.9-.4-2.7,0-6.3.9-9.9,2.7-3.6,2-7,4.9-9.6,8.5-2.7,3.4-4.7,7.4-6.1,11.7-1.1,4.3-1.8,8.5-1.3,12.6.2,4.3,1.1,8.1,2.5,11.7h0ZM185.5,170s6.1.2,5.6,7.4c-.4,6.5-7.6,5.8-7.6,5.8l-20.6-1.1s-6.5-.7-7,1.8c-.9,3.6,6.3,4.9,6.3,4.9l25.1,6.3,34.8-16.8s7-4.3,10.3.4c2,3.4,1.6,6.3-4,10.3-66.2,39.3-75.2,36.1-127.7,13.5l-31.6,7.4-10.1-37.5,54.7-14.6,71.8,12.1Z"/>
    </g>
  </g>
</svg>