<?xml version="1.0" encoding="UTF-8"?>
<svg xmlns="http://www.w3.org/2000/svg" version="1.1" viewBox="0 0 292.4 289.7">
  <defs>
    <style>
      .cls-1 {
        fill: #fff;
      }
    </style>
  </defs>
  <!-- Generator: Adobe Illustrator 28.7.1, SVG Export Plug-In . SVG Version: 1.2.0 Build 142)  -->
  <g>
    <g id="Camada_1">
      <g id="_x35_44_x2C__Burn_x2C__Fire_x2C__Garbage_x2C__Pollution_x2C__Smoke">
        <g>
          <path class="cls-1" d="M188.5,207.1l-63.3-50.1c-2.3-1.7-5.6-2.9-8.8-2.9s-6.4,1.2-8.8,2.9c-2.3,1.7-3.5,4.1-3.5,6.4s1.2,4.6,3.5,6.4l21.7,17.1h0l5,4.1,36.6,29c2.3,1.7,5.6,2.9,8.8,2.9s6.4-1.2,8.8-2.9c2.3-1.7,3.5-4.1,3.5-6.4s-1.2-4.6-3.5-6.4Z"/>
          <path class="cls-1" d="M107.6,207.1c-2.3,1.7-3.5,4.1-3.5,6.4s1.2,4.6,3.5,6.4c2.3,1.7,5.6,2.9,8.8,2.9s6.4-1.2,8.8-2.9l19.9-15.6-17-13.6-20.5,16.5Z"/>
          <path class="cls-1" d="M84.1,78.2c3.1,0,5.6,2.5,5.6,5.5s-2.5,5.5-5.6,5.5-5.6-2.5-5.6-5.5,2.5-5.5,5.6-5.5Z"/>
          <path class="cls-1" d="M188.5,157c-2.3-1.7-5.6-2.9-8.8-2.9s-6.4,1.2-8.8,2.9l-19.9,15.6,12,9.6,5,4.1,20.5-16.2c2.3-1.7,3.5-4.1,3.5-6.4s-1.2-4.6-3.5-6.7Z"/>
          <path class="cls-1" d="M208.7,118.2c5,0,9.1,4,9.1,9s-4.1,9-9.1,9-9.1-4-9.1-9,4.1-9,9.1-9Z"/>
          <path class="cls-1" d="M122.5,137.6c-3.5-9.6.3-15.6,4.4-20.6,5-6.1,6.4-12.2,6.4-12.2,0-.6.6-1.2,1.2-1.4.6-.3,1.5,0,1.8.6.3.3,2.6,2.9,3.2,7.5,4.1-6.4,4.7-13.6,3.8-16.5-.3-.6,0-1.4.6-2,.6-.6,1.5-.6,2.1,0,9.4,5.5,16.1,14.2,18.8,24.3,1.8,7,1.5,13.9-1.2,20,13.2-7.2,19.9-15.9,20.5-25.8.6-8.7-4.1-16.5-7.9-21.7-2.3-3.2-5-6.1-7.3-8.1.3,4.1-.9,8.4-4.1,10.7-.6.3-1.2.6-1.8.3-.6-.3-.9-.6-1.2-1.2-5.6-17.7-17.6-24.9-22.9-27.2.3,10.1-6.2,21.7-19,35.1-.6.6-1.2.6-2.1.6-.6-.3-1.2-.9-1.2-1.4-.3-3.2-.6-5.5-1.5-8.1-1.2,3.5-3.2,6.7-5,9.6-2.1,3.5-4.4,7.2-5.3,11-1.5,9.6.6,17.7,17.6,26.7Z"/>
        </g>
      </g>
    </g>
  </g>
</svg>