<?xml version="1.0" encoding="UTF-8"?>
<svg xmlns="http://www.w3.org/2000/svg" version="1.1" viewBox="0 0 292.4 289.7">
  <defs>
    <style>
      .cls-1 {
        fill: #fff;
      }
    </style>
  </defs>
  <!-- Generator: Adobe Illustrator 28.7.1, SVG Export Plug-In . SVG Version: 1.2.0 Build 142)  -->
  <g>
    <g id="Camada_1">
      <g id="_x35_37_x2C__Energy_x2C__Environment_x2C__Green_x2C__Pollution">
        <g>
          <path class="cls-1" d="M213.7,133.3c-2.1-2.6-4.1-4.9-5.9-6.4.3,3.5-.9,6.7-3.8,9-.6.3-1.2.6-1.8.3-.6-.3-.9-.6-1.2-1.2-3.8-12.2-11.1-18.3-16.4-21.4-1.2-.6-2.1-1.2-2.9-1.4,0,8.7-5.6,18.8-16.4,30.1-.6.6-1.2.6-2.1.6-.6-.3-1.2-.9-1.2-1.4-.3-2.3-.3-4.3-.9-6.4-1.2,2.6-2.6,5.2-4.1,7.8-2.1,3.2-3.8,6.4-4.7,9.6-2.1,7.8.6,13.3,8.5,18.8,1.8,1.2,3.5,2.3,5.6,3.5-2.6-7.2,0-12.5,3.5-16.8q.3-.3.6-.6c4.4-5.2,5.6-10.4,5.6-10.4,0-.6.6-1.2,1.2-1.4.6-.3,1.5,0,1.8.6,0,0,2.1,2.3,2.9,6.1,3.2-5.2,3.5-11.3,2.9-13.3-.3-.6,0-1.4.6-2,.6-.6,1.5-.6,2.1,0,8.2,4.6,14.1,12.5,16.1,21.1,1.5,5.8,1.2,11.6-.6,16.8,10.8-6.1,16.7-13.3,17-21.7.6-8.4-3.2-15.1-6.4-19.7Z"/>
          <path class="cls-1" d="M76.5,190.1c.6,0,.9-.3,1.2-.6l6.7-6.7c.6-.6.6-1.7,0-2.6-.6-.6-1.8-.6-2.6,0l-6.7,6.7c-.6.6-.6,1.7,0,2.6.6.3,1.2.6,1.5.6Z"/>
          <path class="cls-1" d="M93.2,201.9h.6c.6,0,.9-.3,1.2-.6.6-.6.6-1.7,0-2.6l-5.6-5.5c-.6-.6-1.2-.6-1.8-.6s-1.2,0-1.8.6c-.6.6-.6,1.7,0,2.6l5.6,5.5c.9.3,1.5.6,1.8.6Z"/>
          <path class="cls-1" d="M194.3,67.5c5,0,9.1,4,9.1,9s-4.1,9-9.1,9-9.1-4-9.1-9,4.1-9,9.1-9Z"/>
          <path class="cls-1" d="M214.2,111h.6c2.1,0,3.8-1.7,3.8-3.8s-1.8-3.8-3.8-3.8h-.6c-2.1,0-3.8,1.7-3.8,3.8s1.8,3.8,3.8,3.8Z"/>
          <path class="cls-1" d="M170.6,201.4h.3c2.1,0,3.8-1.7,3.8-3.8s-1.5-3.5-3.5-3.5h-.6c-2.1,0-3.8,1.7-3.8,3.8s1.8,3.8,3.8,3.8v-.3Z"/>
          <path class="cls-1" d="M83.5,206.3c-.6,0-1.2,0-1.8.6l-6.7,6.7c-.6.6-.6,1.7,0,2.6.3.3.9.6,1.2.6h.6c.6,0,.9-.3,1.2-.6l6.7-6.7c.6-.6.6-1.7,0-2.6,0-.6-.6-.9-1.2-.6Z"/>
          <path class="cls-1" d="M186.7,219.6h-58v-33.6c.3-.3.6-.6.9-.9.6-.9,1.5-.9,2.3-.6,2.6,1.4,5.6,2,8.5,2,8.5,0,15.8-5.8,17.6-13.6l-.3-.3-.3-.3-.3-.3-.3-.3-.3-.3-.3-.3c-.3,0-.3-.3-.6-.3,0,0-.3,0-.3-.3q-.3-.3-.6-.6h0q-.3-.3-.6-.6s0-.3-.3-.3l-.3-.3-.3-.3-.3-.3-.3-.3-.3-.3s0-.3-.3-.3l-.3-.3s0-.3-.3-.3l-.3-.3s0-.3-.3-.3l-.3-.3s0-.3-.3-.3c0,0,0-.3-.3-.3,0,0,0-.3-.3-.3,0,0,0-.3-.3-.3,0,0,0-.3-.3-.3,0,0,0-.3-.3-.3v-.3s0-.3-.3-.3v-9.9c0-.3,0-.6.3-.9.9-3.8,2.9-7.2,5-10.4,2.3-3.8,4.4-7.5,4.7-11.3,0-.9.6-1.4,1.5-1.7.9-.3,1.5,0,2.1.9,2.1,2.9,2.9,5.5,3.2,8.4,9.7-10.4,13.8-19.7,12.6-26.9,0-.6,0-1.2.6-1.7.6-.3,1.2-.6,1.8-.3h1.2s.3,0,.3.3h0s.3,0,.3.3h.3s.3,0,.3.3h.3s.3,0,.3.3h.3c.3,0,.3.3.6.3.3-1.2.6-2.6.6-3.8,0-8.1-6.7-14.8-14.9-14.8s-4.1.6-6.2,1.4c-.6.3-1.5.3-1.8-.3-.6-.3-.9-1.2-.6-1.7,0-.9.3-2,.3-2.9,0-11-9.1-19.7-19.9-19.7s-19.9,9-19.9,19.7v1.7c0,.9-.3,1.4-1.2,1.7-.9.3-1.8,0-2.1-.6-2.9-3.8-7.3-6.1-12-6.1s-5,.6-7,1.7c-.6.3-1.8.3-2.3-.3-2.9-2.9-6.7-4.6-10.8-4.6-8.2,0-14.9,6.7-14.9,14.8s4.7,12.7,11.7,14.5c.6.3,1.2.6,1.5,1.2.3.6,0,1.4-.6,1.7-1.5,1.4-2.3,3.5-2.3,5.8v.3h0c0,.9-.6,1.7-1.5,1.7-7,1.4-12,7.5-12,14.5s6.7,14.8,14.9,14.8h.6c.6,0,1.2.3,1.5.9.3.6.6,1.2.3,1.7-.3.9-.6,1.7-.6,2.6,0,4.3,3.8,8.1,8.2,8.1s1.2,0,1.5-.3c.6,0,1.5.3,1.8.9s.6,1.4,0,2c-1.2,1.7-1.8,3.8-1.8,5.8,0,6.4,5.3,11.3,11.4,11.3h1.8c.6,0,1.2.3,1.5.9,2.1,3.5,5.9,5.8,10,5.8s3.5-.3,5-1.2v-31.9c-10.6-.9-19.1-9.3-19.9-20-7.6-.9-13.5-7.2-13.5-15.1v-6.7c0-.9.9-1.7,1.8-1.7s1.8.9,1.8,1.7v6.7c0,5.8,4.1,10.4,9.7,11.3v-8.1c0-.9.9-1.7,1.8-1.7s1.8.9,1.8,1.7v9.9c0,9.3,7.3,17.1,16.4,18v-27.8c0-.9.9-1.7,1.8-1.7h0c-.9,0-1.8.9-1.8,1.7v94.2h-33.7c-.9,0-1.8.9-1.8,1.7s.9,1.7,1.8,1.7h97c.9,0,1.8-.9,1.8-1.7s-.9-3.2-2.1-3.2ZM137.5,148.3v-16.5c0-.9.9-1.7,1.8-1.7s1.8.9,1.8,1.7v16.5c0,9.3-5.6,17.1-12.6,18.3v-3.8c5.3-1.2,9.1-7.2,9.1-14.5Z"/>
          <path class="cls-1" d="M211.3,199.6h-.6c-2.1,0-3.8,1.7-3.8,3.8s1.8,3.8,3.8,3.8h.6c2.1,0,3.8-1.7,3.8-3.8s-1.8-3.8-3.8-3.8Z"/>
        </g>
      </g>
    </g>
  </g>
</svg>