<?xml version="1.0" encoding="UTF-8"?>
<svg xmlns="http://www.w3.org/2000/svg" version="1.1" viewBox="0 0 292.4 289.7">
  <defs>
    <style>
      .cls-1 {
        fill: #fff;
      }
    </style>
  </defs>
  <!-- Generator: Adobe Illustrator 28.7.1, SVG Export Plug-In . SVG Version: 1.2.0 Build 142)  -->
  <g>
    <g id="Camada_1">
      <g id="_x35_34_x2C__Burn_x2C__Fire_x2C__Garbage_x2C__Pollution_x2C__Smoke">
        <g>
          <path class="cls-1" d="M93.5,111.5c0,2.3,2.1,4.1,4.1,4.1s4.1-2,4.1-4.1-1.8-4.3-4.1-4.3-4.1,2-4.1,4.3Z"/>
          <path class="cls-1" d="M125.1,180.5c-2.1-1.7-4.4-2.9-6.2-2.9s-1.5,0-1.8.6c-.6.6-.6,1.7-.3,2.9.6,1.4,1.8,3.2,3.2,4.6,2.1,1.7,4.4,2.9,6.2,2.9s1.5,0,1.8-.6c.6-.6.6-1.7.3-2.9-.6-1.4-1.8-3.2-3.2-4.6Z"/>
          <path class="cls-1" d="M192.3,191.8c-1.8,0-4.4,1.4-6.2,3.5-1.5,1.4-2.3,3.2-2.6,4.9-.3,1.2,0,2.3.6,2.9.3.3.9.6,1.5.6,1.8,0,4.4-1.4,6.2-3.5,1.5-1.4,2.3-3.2,2.6-4.9.3-1.2,0-2.3-.6-2.9-.6-.3-.9-.6-1.5-.6Z"/>
          <path class="cls-1" d="M204.3,181.7c-1.2,0-2.3,0-3.5.3-.6,0-1.2,0-1.5-.3-.3-.3-.6-.9-.6-1.4v-.6c0-11.6-9.4-20.9-21.1-20.9h-2.1l-.3.3-.3.3-.3.3-.3.3-.3.3-.3.3-.3.3-.3.3-.3.3-.3.3-.3.3-.3.3-.3.3-.3.3-.3.3-.3.3-.3.3-.3.3-.3.3-.3.3-.3.3-.3.3-.3.3c-.3,0-.3.3-.6.3,0,0-.3,0-.3.3-.3,0-.3.3-.6.3,0,0-.3,0-.3.3-.3,0-.3.3-.6.3,0,0-.3,0-.3.3-.3,0-.3.3-.6.3,0,0-.3,0-.3.3-.3,0-.3.3-.6.3,0,0-.3,0-.3.3q-.3,0-.6.3s-.3,0-.3.3q-.3,0-.6.3s-.3,0-.3.3q-.3,0-.6.3h-.3q-.3,0-.6.3h-.3q-.3,0-.6.3h-12c-6.4-.6-12.6-2.6-17.6-6.1-.3-.3-.6-.6-.9-.6l-.3-.3q-.3-.3-.6-.6l-.3-.3q-.3-.3-.6-.6l-.3-.3q-.3-.3-.6-.6l-.3-.3-.9-.9h0c-.3-.3-.6-.6-.6-.9l-.3-.3c-1.8.6-2.1.3-2.1.3l-.3-.3q-.3-.3-.6-.6l-.3-.3q-.3-.3-.6-.6s0-.3-.3-.3c-.3-.3-.3-.6-.6-.9h0c-.3-.3-.3-.6-.6-.9,0,0,0-.3-.3-.3,0-.3-.3-.6-.3-.6,0,0,0-.3-.3-.3,0-.3-.3-.6-.3-.6,0,0,0-.3-.3-.3v-.3c-1.2,1.7-2.1,3.5-2.9,5.2-.3.9-1.2,1.2-2.1,1.2h-2.1c-7,0-13.8,4.3-16.1,11-.3.9-1.5,1.4-2.3,1.2-1.5-.6-2.9-.9-4.4-.9-7.3,0-13.5,6.1-13.5,13.3s.6,4.3,1.8,6.4c.3.9.3,1.7-.6,2.3-3.2,2.6-5,6.4-5,10.4,0,7.2,6.2,13.3,13.5,13.3h119c9.7,0,17.3-7.8,17.3-17.1.6-10.1-7-17.7-16.7-17.7ZM91.7,208.6c-5,0-9.1-3.2-9.1-7.2s4.1-7.2,9.1-7.2,9.1,3.2,9.1,7.2-4.1,7.2-9.1,7.2ZM130.7,190.6c-1.2,1.2-2.6,1.7-4.4,1.7-2.6,0-5.9-1.4-8.5-3.8-2.1-1.7-3.5-4.1-4.1-6.4-.9-2.6-.3-4.9,1.2-6.4,1.2-1.2,2.6-1.7,4.4-1.7,2.6,0,5.9,1.4,8.5,3.8,2.1,1.7,3.5,4.1,4.1,6.4.9,2.3.3,4.6-1.2,6.4ZM197.8,195.8c-.6,2.3-1.8,4.6-3.5,6.7-2.6,2.9-5.9,4.6-8.8,4.6s-2.9-.6-3.8-1.4c-1.5-1.4-2.1-3.8-1.8-6.4.6-2.3,1.8-4.6,3.5-6.7,2.6-2.9,5.9-4.6,8.8-4.6s2.9.6,3.8,1.4c1.5,1.7,2.1,3.8,1.8,6.4Z"/>
          <path class="cls-1" d="M121,148c0,.3.3.6.3.9,2.9,7.5,9.7,15.4,21.1,17.4.3,0,.9.3,1.2.3.9,0,1.8.3,2.6.3h2.9c9.4,0,17.9-4.1,23.7-11.3,6.7-8.4,7.9-19.1,3.5-28.7-2.3-5.2-3.8-11-5-16.8-1.2-5.2-2.3-10.4-4.4-14.5-1.2,3.5-3.5,7.5-6.7,11.9-.3.6-1.2.9-1.8.9s-1.2-.6-1.5-1.2l-12.3-28.1c-1.2,9-2.9,16.5-5.3,23.5-.3.6-.9,1.2-1.5,1.2s-1.5-.3-1.8-.9c-1.5-2.6-2.6-5.2-3.5-7.5-2.1,3.5-2.6,7.5-3.8,12.2-1.2,5.2-2.3,11.3-5.9,17.1-3.8,7.5-4.7,15.9-2.1,23.5ZM131.9,139.4c.9,0,1.8.9,1.8,1.7,0,0,0,7,5.3,11,4.1,3.5,10.6,4.3,19.1,2.9.9-.3,2.1.6,2.1,1.4.3.9-.6,2-1.5,2-2.6.6-5.3.6-7.6.6-5.9,0-10.8-1.4-14.4-4.6-6.4-5.5-6.4-13.6-6.4-13.9-.3-.6.6-1.2,1.8-1.2Z"/>
          <path class="cls-1" d="M197.5,135.3c0,3.5,2.9,6.4,6.4,6.4s6.7-2.9,6.7-6.4-2.9-6.4-6.7-6.4-6.4,2.9-6.4,6.4Z"/>
          <path class="cls-1" d="M91.7,197.6c3.1,0,5.6,1.7,5.6,3.8s-2.5,3.8-5.6,3.8-5.6-1.7-5.6-3.8,2.5-3.8,5.6-3.8Z"/>
          <path class="cls-1" d="M184.1,104.3c.9,0,1.8-.9,1.8-1.7v-7.8c0-.9-.9-1.7-1.8-1.7s-1.8.9-1.8,1.7v7.8c-.3.9.6,1.7,1.8,1.7Z"/>
          <path class="cls-1" d="M118.1,90.1c.9,0,1.8-.9,1.8-1.7v-8.1c0-.9-.9-1.7-1.8-1.7s-1.8.9-1.8,1.7v8.1c-.3.9.6,1.7,1.8,1.7Z"/>
          <path class="cls-1" d="M158.6,85.5c.9,0,1.8-.9,1.8-1.7v-7.8c0-.9-.9-1.7-1.8-1.7s-1.8.9-1.8,1.7v7.8c0,.9.9,1.7,1.8,1.7Z"/>
          <path class="cls-1" d="M192.5,118.2c.3,0,.9,0,1.2-.3.6-.6,17.3-12.5,11.4-24-4.4-9,6.7-19.4,7-19.7.9-.6.9-1.7,0-2.6-.6-.9-1.8-.9-2.6,0-.6.6-13.5,12.5-7.6,23.8,4.4,8.7-10.3,19.4-10.6,19.4-.9.6-.9,1.7-.3,2.6.3.6.9.9,1.5.9Z"/>
          <path class="cls-1" d="M86.2,88.9c2.6.3,5,.3,7.3,0,6.7-.6,11.7-.9,16.7,13.3.3.9.9,1.2,1.8,1.2h.6c.9-.3,1.5-1.4,1.2-2.3-5.9-17.1-13.5-16.2-20.5-15.6-2.1.3-4.4.3-6.4,0-1.5-.3-2.3-.9-2.9-1.7-2.1-3.5,0-11.3.9-13.9.3-.9,0-2-1.2-2.3-.9-.3-2.1,0-2.3,1.2-.3,1.2-4.1,11.3-.6,17.1.9,1.7,2.9,2.9,5.6,3.2Z"/>
        </g>
      </g>
    </g>
  </g>
</svg>