<?xml version="1.0" encoding="UTF-8"?>
<svg xmlns="http://www.w3.org/2000/svg" version="1.1" viewBox="0 0 292.4 289.7">
  <defs>
    <style>
      .cls-1 {
        fill: #fff;
        fill-rule: evenodd;
      }
    </style>
  </defs>
  <!-- Generator: Adobe Illustrator 28.7.1, SVG Export Plug-In . SVG Version: 1.2.0 Build 142)  -->
  <g>
    <g id="Camada_1">
      <path class="cls-1" d="M56.1,73.3c1.3,0,3.2-.5,5.3-.8,2.1,0,5.3-.3,7.9.3,2.9.3,6.1,1.1,9.8,2.1,3.2,1.1,6.3,2.7,10.1,4.5,3.4,1.8,6.4,4.2,9.5,6.9,3.2,2.9,5.8,5.8,8.5,9,2.4,3.4,4.5,6.9,6.6,10.6,1.6,3.7,3.2,7.4,4.2,11.1,1.3,4,2.1,7.7,2.4,11.4.8,7.7.3,15.1-1.3,21.4-.8,3.4-1.6,6.3-2.6,9-1.1,2.6-2.4,5-3.4,6.9-.8,1.3-1.6,2.7-1.6,2.7l-.8,14c0,24.3,19.6,43.9,43.9,43.9s43.9-19.6,43.9-43.9v-30.7l-32.8.5v-59.8h10.8v-28l7.9-7.9,7.9,7.9v28h21.7v-28l7.9-7.9,7.9,7.9v28h8.2v59.8l-32.8-.5v30.7c0,28-22.8,51.1-50.8,51.1s-51.1-23-51.1-51.1v-13.8h-.3c-1.3-.8-5.3-3.4-6.9-4.5-2.1-1.6-4.5-3.2-6.9-5-2.4-2.1-4.5-4.2-6.9-6.4-2.4-2.1-4.2-4.5-6.4-6.9-2.1-2.6-4-5-5.8-7.7-1.6-2.7-3.2-5.3-4.5-7.9-2.9-5.6-5-11.1-6.3-16.9-1.1-2.6-1.3-5.8-1.9-8.5-.8-2.9-1.1-5.8-1.3-8.5-.5-2.9-.8-5.6-.8-8.2-.3-2.6-.5-5.3-.8-7.1-.3-1.9-.3-4-.5-5.3v-1.9s.8-.3,1.9-.5h0Z"/>
    </g>
  </g>
</svg>