<?xml version="1.0" encoding="UTF-8"?>
<svg xmlns="http://www.w3.org/2000/svg" version="1.1" xmlns:xlink="http://www.w3.org/1999/xlink" viewBox="0 0 1200 200">
  <defs>
    <style>
      .cls-1, .cls-2 {
        opacity: .6;
      }

      .cls-1, .cls-3, .cls-4, .cls-5, .cls-6, .cls-7, .cls-8, .cls-9, .cls-10, .cls-11 {
        fill: #58c2dc;
      }

      .cls-1, .cls-3, .cls-4, .cls-5, .cls-6, .cls-8, .cls-9, .cls-10, .cls-11 {
        isolation: isolate;
      }

      .cls-12, .cls-6 {
        opacity: .4;
      }

      .cls-13, .cls-5 {
        opacity: .2;
      }

      .cls-14 {
        fill: none;
      }

      .cls-3, .cls-15 {
        opacity: .9;
      }

      .cls-16 {
        fill: url(#Gradiente_sem_nome);
      }

      .cls-4, .cls-17 {
        opacity: .3;
      }

      .cls-18 {
        clip-path: url(#clippath-1);
      }

      .cls-8, .cls-19 {
        opacity: .7;
      }

      .cls-9, .cls-20 {
        opacity: .1;
      }

      .cls-21 {
        clip-path: url(#clippath);
      }

      .cls-10, .cls-22 {
        opacity: .5;
      }

      .cls-23, .cls-11 {
        opacity: .8;
      }
    </style>
    <clipPath id="clippath">
      <rect class="cls-14" width="1200" height="200"/>
    </clipPath>
    <radialGradient id="Gradiente_sem_nome" data-name="Gradiente sem nome" cx="-60.4" cy="443.2" fx="-60.4" fy="443.2" r="2164" gradientTransform="translate(0 200) scale(1 -1)" gradientUnits="userSpaceOnUse">
      <stop offset="0" stop-color="#078aaa"/>
      <stop offset="0" stop-color="#0786a6"/>
      <stop offset=".2" stop-color="#0d5f7c"/>
      <stop offset=".4" stop-color="#11405c"/>
      <stop offset=".6" stop-color="#142a44"/>
      <stop offset=".8" stop-color="#161d36"/>
      <stop offset="1" stop-color="#171932"/>
    </radialGradient>
    <clipPath id="clippath-1">
      <rect class="cls-14" x="-18.5" y="-267.1" width="1237" height="706.9"/>
    </clipPath>
  </defs>
  <!-- Generator: Adobe Illustrator 28.7.1, SVG Export Plug-In . SVG Version: 1.2.0 Build 142)  -->
  <g>
    <g id="Camada_1">
      <g id="Camada_1-2" data-name="Camada_1">
        <g class="cls-21">
          <g>
            <rect class="cls-16" x="-18.5" y="-267.1" width="1237" height="706.9"/>
            <g class="cls-18">
              <g>
                <g class="cls-12">
                  <path class="cls-7" d="M1203.5,72.2c-.3-.2-.5-.5-.7-1l-1-2.2c-.2-.4-.3-.8-.3-1.1s.2-.5.4-.5c.3,0,.5,0,.8.2s.5.6.7,1l1,2.2c.2.4.3.8.3,1.1s0,.5-.4.5-.5,0-.8-.2Z"/>
                </g>
                <g class="cls-2">
                  <path class="cls-7" d="M1106.2,323.3c-1.7-.8-3.1-2.5-4.2-5.1l-5.8-12.8c-1.2-2.6-1.7-5-1.4-7.1.3-2.1,1.4-3.7,3.3-5,1.9-1.2,3.6-1.3,5.2-.4s3,2.6,4.2,5.2l5.7,12.5c1.1,2.5,1.6,4.8,1.3,6.9-.2,2.1-1.3,3.8-3.1,5.1-1.8,1.3-3.5,1.5-5.2.6h0ZM1109.4,313.1l-5.7-12.5c-.6-1.2-1.2-2.2-1.8-2.8-.6-.6-1.3-.7-2-.2-.8.5-1.1,1.2-1,2.2s.5,2.1,1,3.3l5.7,12.6c.5,1.2,1.1,2,1.8,2.7.6.6,1.3.7,2,.2,1.2-.9,1.2-2.7,0-5.4h0Z"/>
                </g>
                <g class="cls-20">
                  <path class="cls-7" d="M1114.5,295.3c-1.2-.7-2.3-1.9-3.1-3.8l-4.3-9.5c-.9-2-1.3-3.7-1.1-5.2.2-1.5,1-2.7,2.4-3.6,1.4-.8,2.6-.9,3.8-.2,1.2.7,2.2,2,3.1,3.9l4.3,9.4c.9,1.9,1.2,3.6,1,5.1-.2,1.6-.9,2.8-2.2,3.7-1.3.9-2.6,1-3.8.3h-.1ZM1116.8,287.9l-4.3-9.3c-.4-.9-.9-1.6-1.3-2.1-.5-.5-1-.5-1.5-.2-.6.3-.8.9-.7,1.6,0,.7.3,1.5.8,2.4l4.3,9.3c.4.9.8,1.5,1.3,2s1,.5,1.5.2c.9-.6.9-1.9,0-4h-.1Z"/>
                </g>
                <path class="cls-4" d="M1061.9,206.1c0,.1-.3.4-.8.8-.4.4-.6.5-.6.6l-.8-1.7c.3-.3.6-.7.9-1.1.3-.4.5-.8.5-1.2l1.4-.6,6,13-1.8.8-4.8-10.6h0Z"/>
                <path class="cls-11" d="M343,485l-4.8-10.4-8.4,3.4c-.8,1.2-2.3,2.7-4.5,4.4-1.2.9-2.3,1.8-3.5,2.6h21.2,0Z"/>
                <path class="cls-1" d="M1028.3,78.8s0,0-.3.2c0,0-.2,0-.2,0l-.3-.6c0,0,.2-.2.3-.3,0,0,.2-.2.2-.3h.5c0,0,2,4.3,2,4.3h-.7c0,0-1.7-3.5-1.7-3.5h.2Z"/>
                <g class="cls-2">
                  <path class="cls-7" d="M1067.3,267.3c-.9-.5-1.6-1.4-2.2-2.7l-3-6.6c-.6-1.4-.9-2.6-.7-3.6.2-1,.8-1.8,1.8-2.4,1-.5,2-.6,2.9,0,.9.5,1.6,1.4,2.2,2.8l3,6.5c.6,1.3.8,2.5.6,3.5-.2,1.1-.8,1.9-1.8,2.4-1,.6-2,.6-2.9.1h0ZM1069.2,262.3l-3-6.5c-.3-.6-.6-1.1-.9-1.5-.3-.3-.7-.4-1.1-.2s-.6.6-.6,1.1.2,1,.5,1.7l3,6.5c.3.6.6,1.1.9,1.4s.7.4,1.1.2c.7-.4.7-1.3,0-2.7h0Z"/>
                </g>
                <path class="cls-9" d="M1063.6,181.4c0,.2-.7.8-1.7,1.6-.8.7-1.2,1.1-1.2,1.1l-1.6-3.6c.6-.6,1.2-1.4,1.9-2.3.6-.9,1-1.8,1.2-2.5l3-1.2,12.8,27.9-3.8,1.7-10.4-22.8h-.2Z"/>
                <path class="cls-3" d="M1165.8,40.2l-.2.2h0c0,0-.3-.5-.3-.5,0,0,0-.2.2-.3,0,0,0-.2,0-.3h.4l2,4.3h-.5l-1.6-3.4Z"/>
                <path class="cls-8" d="M1138.5,46.4s0,0-.4.3c-.2,0-.3.2-.3.2l-.4-.9c0,0,.3-.3.4-.5s.2-.4.2-.5h.7c0,0,3.3,7.2,3.3,7.2l-.9.2-2.7-5.9h.1Z"/>
                <g class="cls-19">
                  <path class="cls-7" d="M1049.6,214.7c-.7-.4-1.3-1.1-1.8-2.2l-2.4-5.2c-.5-1.1-.7-2-.5-2.8,0-.8.6-1.4,1.5-1.7.8-.4,1.6-.3,2.3.1.7.4,1.3,1.2,1.8,2.2l2.3,5.1c.5,1,.6,1.9.5,2.7s-.6,1.4-1.4,1.7c-.8.4-1.6.3-2.3,0h0ZM1051.2,211l-2.3-5.1c-.2-.5-.5-.9-.7-1.2-.3-.3-.6-.3-.9-.2s-.5.4-.5.8.2.8.4,1.3l2.3,5.1c.2.5.5.8.7,1.1.3.3.6.3.9.2.6-.2.6-.9,0-2.1h0Z"/>
                </g>
                <g class="cls-12">
                  <path class="cls-7" d="M1065.4,319.7c-.9-.4-1.6-1.3-2.2-2.6l-3-6.5c-.6-1.3-.8-2.5-.7-3.6.2-1.1.8-1.9,1.8-2.6,1-.6,2-.7,2.8-.3.9.4,1.6,1.3,2.2,2.6l2.9,6.4c.6,1.3.8,2.5.6,3.6-.2,1.1-.7,2-1.7,2.6s-1.9.7-2.8.3h0ZM1067.3,314.4l-2.9-6.4c-.3-.6-.6-1.1-.9-1.4s-.7-.3-1.1,0-.6.6-.6,1.1.2,1,.5,1.7l2.9,6.4c.3.6.6,1,.9,1.4.3.3.7.4,1.1.1.7-.4.7-1.4,0-2.8h0Z"/>
                </g>
                <path class="cls-9" d="M1027,201.5c-.2.4-1.1,1.2-2.7,2.5-1.3,1.2-2,1.8-2,1.8l-2.5-5.4c1-1,2-2.2,3.1-3.6,1-1.4,1.7-2.7,1.9-3.9l4.8-1.9,19.1,41.6-6,2.9-15.6-34.1h-.1Z"/>
                <path class="cls-1" d="M886.2,110.4s-.3.2-.8.5c-.4.2-.6.3-.6.3l-.6-1.3c.3-.2.6-.4.9-.7.3-.3.5-.6.6-.8l1.4-.3,4.6,10-1.8.4-3.7-8.1h0Z"/>
                <path class="cls-1" d="M610.9,259.2c0,.1-.6.4-1.4.8-.7.4-1,.6-1,.6l-.7-1.5c.5-.3,1.1-.7,1.6-1.1.6-.4,1-.8,1.1-1.2l2.3-.7,5.5,11.9-3,.9-4.4-9.7h0Z"/>
                <path class="cls-3" d="M1199.9,162.1c0,.3-.6.9-1.4,1.8-.7.8-1,1.3-1,1.3l-1.9-4.2c.5-.7,1-1.6,1.5-2.6s.8-2,.8-2.9l2.7-1.2,14.9,32.6-3.4,1.9-12.2-26.7h0Z"/>
                <path class="cls-5" d="M1086.7,321.2c0,.1-.3.5-.8,1-.4.5-.6.7-.6.7l-.8-1.7c.3-.4.6-.9.9-1.4.3-.6.5-1,.5-1.5l1.4-.9,6.2,13.6-1.8,1.3-5.1-11.1h.1Z"/>
                <path class="cls-5" d="M20.7,401.2c-.4.3-1.9,1-4.7,2.1-2.2.9-3.3,1.4-3.3,1.5l-1.4-3.1c1.7-.8,3.5-1.7,5.5-2.8,1.9-1.1,3.3-2,4-2.8l7.2-2,11,24-9.3,2.7-8.9-19.5h-.1Z"/>
                <g class="cls-23">
                  <path class="cls-7" d="M1034.1,273.8c-.7-.4-1.4-1.1-1.9-2.2l-2.5-5.4c-.5-1.1-.7-2.1-.5-2.9.2-.9.7-1.5,1.6-2s1.7-.5,2.4,0c.7.4,1.3,1.1,1.8,2.2l2.4,5.3c.5,1.1.6,2,.5,2.9-.2.9-.7,1.5-1.5,2-.9.5-1.7.5-2.4.1h0ZM1035.8,269.7l-2.4-5.3c-.2-.5-.5-.9-.8-1.2-.3-.3-.6-.3-.9-.1-.4.2-.5.5-.5.9s.2.9.4,1.4l2.4,5.3c.2.5.5.9.8,1.1.3.3.6.3.9.1.6-.3.6-1.1,0-2.2h0Z"/>
                </g>
                <path class="cls-4" d="M1073.7,351s-.2.3-.4.6c-.2.3-.3.4-.3.4l-.4-1c.2-.2.3-.5.5-.8s.3-.6.3-.8l.8-.6,3.4,7.5-1,.7-2.8-6.1h0Z"/>
                <path class="cls-3" d="M924.1,345.2c-.2.4-1.3,1.5-3.1,3.2-1.5,1.4-2.2,2.2-2.3,2.2l-2.4-5.1c1.1-1.2,2.3-2.6,3.5-4.3,1.2-1.7,2-3.1,2.3-4.4l5.3-2.8,18.2,39.7-6.7,4.1-14.9-32.5h.1Z"/>
                <g class="cls-17">
                  <path class="cls-7" d="M1156.5,301.4c-1.3-.7-2.4-2.1-3.4-4.2l-4.8-10.5c-1-2.2-1.4-4.1-1.3-5.8,0-1.7.9-3,2.4-4,1.4-.9,2.7-1,4-.3,1.3.8,2.4,2.2,3.3,4.3l4.7,10.3c.9,2.1,1.3,3.9,1.2,5.7,0,1.7-.9,3.1-2.2,4.1-1.3,1-2.7,1.1-4,.4h.1ZM1158.7,293.2l-4.7-10.3c-.5-1-.9-1.8-1.4-2.3s-1-.6-1.6-.2-.8,1-.7,1.7c0,.8.4,1.7.9,2.7l4.7,10.3c.4,1,.9,1.7,1.4,2.2s1,.6,1.6.2c.9-.7.9-2.1-.2-4.4h0Z"/>
                </g>
                <path class="cls-5" d="M1056.8,222.4c0,.2-.5.6-1.2,1.2-.6.6-.8.8-.8.9l-1.1-2.5c.4-.5.9-1,1.3-1.7s.7-1.3.8-1.8l2.1-1,8.8,19.2-2.7,1.3-7.2-15.7h0Z"/>
                <g class="cls-13">
                  <path class="cls-7" d="M1218.4,208.4c-.2,0-.4,0-.6-.2-.2-.3-.5-.6-.7-1.1l-2.3-5c-.2-.5-.4-.9-.4-1.3s0-.6.3-.7c.2-.1.5,0,.7.2.2.3.4.6.7,1.1l2.3,4.9h0c0,.1,0-3.1,0-3.1l-1.2-2.6c-.5-1-1-1.7-1.5-2.2-.6-.4-1.1-.5-1.7-.1-.6.3-.9.9-.9,1.7s.2,1.7.7,2.7l2.3,5c.5,1,1,1.7,1.5,2.1.3.2.6.3.8.3v-1.9.2Z"/>
                </g>
                <path class="cls-10" d="M1068.9,159c0,.3-.8.9-2.1,1.9-1,.9-1.5,1.3-1.5,1.4l-2-4.5c.8-.7,1.5-1.7,2.3-2.8s1.3-2.1,1.4-3l3.7-1.3,15.9,34.7-4.7,2-13-28.4h0Z"/>
                <path class="cls-3" d="M1088.1,170.2c0,.2-.4.5-1.1,1.1-.5.5-.8.8-.8.8l-1.2-2.5c.4-.4.8-1,1.2-1.6.4-.6.7-1.2.8-1.7l2-.8,9,19.6-2.6,1.1-7.3-16h0Z"/>
                <g class="cls-17">
                  <path class="cls-7" d="M1183.5,152.7c-.6-.4-1.1-1.1-1.5-2.1l-2.2-4.9c-.5-1-.7-1.9-.6-2.6,0-.7.4-1.2,1-1.4.6-.3,1.2-.2,1.8.3.6.4,1.1,1.2,1.5,2.1l2.2,4.8c.4,1,.6,1.8.6,2.5s-.4,1.2-1,1.5-1.2.2-1.8-.3h0ZM1184.4,149.5l-2.2-4.8c-.2-.5-.4-.8-.7-1.1-.2-.3-.5-.3-.7-.2-.3.1-.3.3-.3.7s.2.7.4,1.2l2.2,4.8c.2.4.4.8.7,1.1.2.3.5.4.7.3.4-.2.4-.8,0-1.9h0Z"/>
                </g>
                <g class="cls-12">
                  <path class="cls-7" d="M1171.3,154.8c-1.5-1.1-2.8-2.9-3.9-5.3l-5.6-12.3c-1.2-2.5-1.7-4.7-1.5-6.4,0-1.7,1-2.9,2.7-3.5,1.6-.6,3.1-.3,4.6.8,1.4,1.1,2.7,2.9,3.9,5.4l5.5,12.1c1.1,2.4,1.6,4.5,1.5,6.3s-1,3-2.5,3.7-3,.5-4.5-.6l-.2-.2ZM1173.7,146.8l-5.5-12c-.5-1.2-1.1-2.1-1.7-2.8s-1.2-.9-1.8-.7c-.7.2-.9.8-.8,1.6s.5,1.9,1,3.1l5.5,12.1c.5,1.1,1.1,2,1.7,2.7s1.2.9,1.8.6c1.1-.5,1-2-.3-4.7h.1Z"/>
                </g>
                <g class="cls-17">
                  <path class="cls-7" d="M1172.1,168.6c-.8-.6-1.4-1.5-2-2.8l-2.9-6.4c-.6-1.3-.9-2.4-.8-3.4,0-.9.5-1.6,1.4-1.9.8-.4,1.6-.2,2.4.3.8.6,1.4,1.5,2,2.8l2.9,6.3c.6,1.3.8,2.4.8,3.3s-.5,1.6-1.3,2-1.6.3-2.4-.3h0ZM1173.3,164.3l-2.9-6.3c-.3-.6-.6-1.1-.9-1.5-.3-.3-.6-.4-.9-.3-.3.1-.5.4-.4.9,0,.4.3,1,.5,1.6l2.9,6.3c.3.6.6,1,.9,1.4s.6.5.9.3c.6-.3.5-1.1,0-2.5h0Z"/>
                </g>
                <path class="cls-11" d="M1218.4,187.6l-3.8-8.3-1.1.6c0,.4,0,.8-.3,1.3-.2.5-.4.9-.6,1.2l.8,1.8s0-.2.4-.6c.4-.4.5-.7.6-.8l4,8.8v-3.9h0Z"/>
                <g class="cls-15">
                  <path class="cls-7" d="M880.6,220.8c-2.6-1.3-4.7-3.6-6.1-6.8l-7.4-16.2c-1.5-3.3-1.9-6.2-1-8.7.8-2.4,3-4.1,6.4-5.2,3.4-1,6.3-.8,8.8.5,2.5,1.4,4.5,3.6,6,6.9l7.2,15.8c1.4,3.1,1.8,5.9,1,8.4s-2.8,4.3-6,5.5-6.2,1.1-8.8-.2h-.1ZM887.9,209.3l-7.2-15.8c-.7-1.6-1.5-2.8-2.4-3.6s-2-1.1-3.4-.6c-1.4.4-2.1,1.2-2.1,2.4s.4,2.5,1.1,4.1l7.3,15.9c.7,1.5,1.5,2.6,2.5,3.5s2.1,1.1,3.3.6c2.2-.8,2.5-2.9.9-6.4h0Z"/>
                </g>
                <g class="cls-22">
                  <path class="cls-7" d="M866.3,375.2c-2-.7-3.5-2.3-4.6-4.7l-5.5-12.1c-1.1-2.5-1.4-4.8-.7-6.8.6-2.1,2.3-3.8,4.9-5.1s4.8-1.6,6.7-.8c1.9.8,3.4,2.3,4.5,4.8l5.4,11.9c1.1,2.4,1.3,4.6.7,6.7s-2.2,3.9-4.6,5.2c-2.5,1.4-4.7,1.7-6.7,1h-.1ZM871.9,364.9l-5.4-11.8c-.5-1.2-1.2-2-1.8-2.6-.7-.6-1.5-.6-2.6,0-1,.5-1.6,1.3-1.6,2.2s.3,2,.8,3.2l5.4,11.9c.5,1.1,1.1,1.9,1.8,2.5s1.6.6,2.5,0c1.7-.9,2-2.7.8-5.3h0Z"/>
                </g>
                <path class="cls-4" d="M1088.4,206.4c0,.1-.4.5-1,1-.5.5-.7.7-.7.7l-1-2.1c.3-.4.7-.9,1-1.4.4-.6.6-1.1.6-1.5l1.7-.8,7.6,16.6-2.2,1.1-6.2-13.5h.2Z"/>
                <g class="cls-22">
                  <path class="cls-7" d="M1103,173.4c-.6-.4-1.2-1.1-1.6-2.1l-2.2-4.9c-.5-1-.6-1.9-.5-2.6,0-.7.5-1.2,1.2-1.5s1.4-.2,2,.2,1.2,1.1,1.6,2.1l2.2,4.8c.4,1,.6,1.8.5,2.5s-.5,1.2-1.2,1.5-1.4.2-2-.2v.2ZM1104.3,170.1l-2.2-4.8c-.2-.5-.4-.8-.7-1.1-.2-.3-.5-.3-.8-.2s-.4.3-.4.7.2.7.4,1.2l2.2,4.8c.2.4.4.8.7,1.1.2.3.5.3.8.2.5-.2.5-.8,0-1.9Z"/>
                </g>
                <g class="cls-19">
                  <path class="cls-7" d="M978.7,93.4c-.7-.5-1.2-1.1-1.6-2.1l-2.1-4.6c-.4-.9-.6-1.7-.4-2.4.2-.6.7-1,1.5-1.2s1.6,0,2.2.4c.7.5,1.2,1.1,1.6,2.1l2.1,4.6c.4.9.5,1.7.4,2.3-.2.6-.7,1-1.5,1.2s-1.6,0-2.2-.4h0ZM980.4,90.6l-2.1-4.5c-.2-.5-.4-.8-.7-1.1-.2-.3-.5-.4-.9-.3-.3,0-.5.3-.5.6s0,.7.3,1.1l2.1,4.5c.2.4.4.8.7,1,.3.3.5.4.9.3.6,0,.6-.7.2-1.7h0Z"/>
                </g>
                <path class="cls-10" d="M1112.4,52.5s-.3.3-.7.5c-.3.2-.5.4-.5.4l-.7-1.6c.2-.2.5-.5.7-.8s.4-.6.4-.9l1.2-.2,5.7,12.5-1.6.3-4.7-10.2h.2Z"/>
                <path class="cls-1" d="M800,330.4c0,.2-.6.6-1.5,1.2-.7.6-1.1.9-1.1.9l-.9-2.1c.5-.5,1.1-1,1.7-1.7.6-.7,1-1.2,1.2-1.7l2.5-1.1,7.4,16.1-3.2,1.5-6-13.1h-.1Z"/>
                <path class="cls-4" d="M987.4,212.6c0,.1-.4.4-.9.8-.4.4-.7.6-.7.6l-.8-1.7c.3-.3.7-.7,1-1.1.4-.5.6-.9.7-1.2l1.6-.6,6,13.1-2,.9-4.9-10.7h0Z"/>
                <path class="cls-8" d="M1045.3,380.1c0,.2-.4.6-.9,1.3-.4.6-.7.9-.7.9l-.9-1.9c.3-.5.7-1.1,1-1.7.4-.7.6-1.2.7-1.7l1.7-1.2,6.9,15.1-2.2,1.6-5.6-12.3h0Z"/>
                <g class="cls-12">
                  <path class="cls-7" d="M1001.2,255.3c-1-.5-1.8-1.4-2.4-2.8l-3.1-6.7c-.6-1.4-.8-2.6-.6-3.6s.9-1.8,2.1-2.4c1.2-.5,2.2-.5,3.2,0,.9.5,1.7,1.4,2.3,2.8l3,6.6c.6,1.3.8,2.5.6,3.6s-.9,1.9-2,2.4-2.2.6-3.2,0h.1ZM1003.5,250.3l-3-6.6c-.3-.7-.6-1.1-1-1.5-.3-.3-.8-.4-1.2-.2-.5.2-.7.6-.7,1.1s.2,1.1.5,1.7l3,6.6c.3.6.6,1.1,1,1.4.4.3.8.4,1.2.2.8-.4.8-1.3.2-2.7Z"/>
                </g>
                <g class="cls-12">
                  <path class="cls-7" d="M130,455c-4.4-.8-7.3-2.8-8.8-6.1l-7.5-16.4c-1.5-3.4-1.1-6.6,1.5-9.5,2.5-3,7.2-5.5,14.1-7.6,6.7-2.1,12.1-2.6,16.3-1.8,4.2.9,7,2.9,8.5,6.2l7.3,16c1.5,3.2.9,6.3-1.5,9.3-2.5,3-7,5.6-13.4,7.8-6.5,2.2-12,2.9-16.4,2.1h-.1ZM148.2,440l-7.3-15.9c-.7-1.6-1.8-2.7-3.2-3.5-1.4-.7-3.4-.7-6.1.2-2.7.9-4.3,1.9-4.8,3.2-.4,1.3-.3,2.7.4,4.3l7.4,16.1c.7,1.5,1.7,2.6,3.2,3.3,1.5.7,3.5.6,6-.2,4.5-1.5,5.9-4,4.3-7.5h.1Z"/>
                </g>
                <g class="cls-19">
                  <path class="cls-7" d="M1218.4,109.6h-.2c-1.3.5-2,1.5-2.1,3.1,0,1.6.5,3.5,1.5,5.9l.7,1.6v-10.6h0Z"/>
                </g>
                <g class="cls-17">
                  <path class="cls-7" d="M573.1,432.3c-2-.5-3.4-1.7-4.3-3.6l-4.4-9.6c-.9-2-.9-3.8,0-5.6.9-1.7,2.8-3.2,5.6-4.4,2.8-1.2,5.1-1.5,7.1-1,1.9.5,3.3,1.7,4.2,3.7l4.3,9.5c.9,1.9.8,3.7,0,5.5-.9,1.8-2.7,3.3-5.4,4.5s-5.1,1.6-7,1.1h0ZM580,423.6l-4.3-9.4c-.4-.9-1-1.6-1.6-2-.7-.4-1.5-.4-2.7,0-1.1.5-1.8,1.1-1.9,1.9,0,.8,0,1.6.5,2.6l4.3,9.5c.4.9.9,1.5,1.6,1.9.7.4,1.6.4,2.6,0,1.9-.8,2.3-2.3,1.4-4.4h.1Z"/>
                </g>
                <g class="cls-19">
                  <path class="cls-7" d="M904.5,370.9c-1.5-.6-2.7-1.8-3.5-3.6l-4.3-9.4c-.9-1.9-1.1-3.7-.7-5.3.4-1.6,1.6-2.9,3.6-4,1.9-1,3.6-1.2,5-.6s2.6,1.8,3.5,3.7l4.2,9.3c.8,1.8,1,3.6.6,5.2-.4,1.7-1.6,3-3.4,4.1-1.8,1.1-3.5,1.3-5,.7h0ZM908.6,362.9l-4.2-9.2c-.4-.9-.9-1.6-1.4-2s-1.2-.5-1.9,0c-.8.4-1.2,1-1.1,1.7,0,.7.2,1.5.7,2.5l4.2,9.3c.4.9.9,1.5,1.4,1.9.6.4,1.2.5,1.9,0,1.3-.7,1.4-2.1.5-4.1h-.1Z"/>
                </g>
                <path class="cls-1" d="M888.4,291.8c-.2.2-.8.8-2.1,1.8-1,.8-1.5,1.2-1.5,1.3l-1.5-3.2c.8-.7,1.5-1.5,2.3-2.5s1.3-1.8,1.6-2.6l3.5-1.6,11.4,24.9-4.5,2.2-9.3-20.4h0Z"/>
                <path class="cls-10" d="M710.8,168.5c-.2.2-.8.5-2,1.1-.9.5-1.4.7-1.4.8l-1.1-2.4c.7-.4,1.5-.9,2.3-1.5s1.3-1.2,1.6-1.7l3.3-.8,8.7,18.9-4.2,1.1-7.1-15.4h0Z"/>
                <path class="cls-6" d="M1149.2,239.2c0,.1-.3.5-.7,1-.3.4-.5.7-.5.7l-.9-1.9c.3-.4.5-.8.8-1.3s.4-1,.5-1.4l1.3-.8,6.7,14.6-1.7,1.1-5.4-11.9h-.1Z"/>
                <path class="cls-3" d="M1140.3,64.9s-.2.2-.5.4c-.2.2-.4.3-.4.3l-.6-1.3c.2-.2.4-.4.5-.7.2-.3.3-.5.3-.8l.9-.2,4.6,10-1.2.3-3.7-8.2v.2Z"/>
                <path class="cls-6" d="M1078,298.5c0,.1-.3.5-.8,1-.4.5-.6.7-.6.7l-.8-1.8c.3-.4.6-.9.9-1.4s.5-1,.5-1.4l1.4-.9,6.3,13.9-1.9,1.2-5.2-11.3h.2Z"/>
                <path class="cls-6" d="M737.2,125.9c0,0-.7.4-1.8.9-.9.4-1.3.6-1.3.6l-1-2.3c.7-.4,1.4-.8,2.1-1.3.7-.5,1.2-1,1.4-1.5l3-.6,8.1,17.8-3.8.8-6.6-14.5h-.1Z"/>
                <g class="cls-13">
                  <path class="cls-7" d="M1171,185c-.7-.5-1.2-1.2-1.7-2.3l-2.5-5.4c-.5-1.1-.7-2.1-.7-2.9s.4-1.4,1.2-1.7c.7-.3,1.4-.3,2,.2s1.2,1.2,1.7,2.3l2.5,5.4c.5,1.1.7,2,.6,2.8,0,.8-.4,1.4-1.1,1.7s-1.3.3-2-.2h0ZM1172,181.3l-2.4-5.3c-.2-.5-.5-.9-.7-1.2s-.5-.4-.8-.2c-.3.1-.4.4-.3.8,0,.4.2.8.5,1.4l2.4,5.3c.2.5.5.9.7,1.2.3.3.5.4.8.2.5-.2.4-.9,0-2.1h0Z"/>
                </g>
                <g class="cls-19">
                  <path class="cls-7" d="M825,245.9c-3.2-1.5-5.7-4.1-7.4-7.8l-8.7-18.9c-1.8-3.9-2.1-7.3-1-10.2s3.8-4.9,8.2-6.3c4.2-1.3,7.8-1.1,10.9.4,3.1,1.5,5.4,4.2,7.2,7.9l8.4,18.3c1.7,3.6,2,6.9.9,9.9-1.1,2.9-3.6,5.2-7.6,6.6-4.1,1.5-7.7,1.5-10.9,0h0ZM834.4,232.1l-8.4-18.3c-.8-1.8-1.8-3.2-2.9-4.2-1.1-1-2.5-1.2-4.2-.7s-2.6,1.5-2.6,2.8.4,2.9,1.2,4.8l8.5,18.5c.8,1.7,1.8,3,2.9,4,1.2,1,2.5,1.2,4.1.6,2.8-1,3.2-3.5,1.4-7.6h0Z"/>
                </g>
                <path class="cls-1" d="M1218.4,121.1l-8.6-18.8-2.1.7c0,.7-.2,1.4-.6,2.1-.4.8-.8,1.4-1.2,1.9l1.5,3.4s.3-.3.8-.9c.7-.7,1-1.1,1.1-1.3l9.1,19.8v-6.9h0Z"/>
                <g class="cls-13">
                  <path class="cls-7" d="M1005,133.9c-.7-.4-1.2-1.1-1.6-2l-2.1-4.5c-.4-.9-.6-1.7-.4-2.4.2-.6.6-1.1,1.4-1.3.8-.2,1.5,0,2.1.3s1.2,1.1,1.6,2l2.1,4.5c.4.9.5,1.7.4,2.3-.2.7-.6,1.1-1.4,1.3-.8.2-1.5.1-2.1-.3h0ZM1006.6,131l-2-4.5c-.2-.4-.4-.8-.7-1-.2-.3-.5-.3-.8-.2-.3,0-.5.3-.5.6s0,.7.3,1.1l2.1,4.5c.2.4.4.7.7,1,.2.3.5.3.8.3.5-.2.6-.7,0-1.7h0Z"/>
                </g>
                <path class="cls-3" d="M792.1,396.2c-.2.3-1,1.1-2.6,2.3-1.2,1-1.8,1.6-1.8,1.6l-1.6-3.4c.9-.9,1.9-1.9,2.9-3.1s1.7-2.2,2-3.1l4.2-2.2,12.3,26.8-5.4,3-10-21.9h0Z"/>
                <path class="cls-5" d="M1184.2,156c0,.2-.4.6-1.1,1.3-.5.6-.8.9-.8.9l-1.4-3c.4-.5.8-1.1,1.1-1.9.4-.7.6-1.4.6-2.1l2-.9,10.8,23.6-2.5,1.3-8.8-19.3h.1Z"/>
                <path class="cls-5" d="M1187.6,109.6s-.2.2-.4.5c-.2.2-.3.3-.3.3l-.5-1.2c0-.2.3-.4.4-.7,0-.3.2-.5.2-.8l.8-.3,4.2,9.3-1,.4-3.5-7.5h.1Z"/>
                <g class="cls-17">
                  <path class="cls-7" d="M1166.7,273.3c-.4-.3-.8-.7-1.1-1.4l-1.6-3.5c-.3-.7-.5-1.4-.4-1.9,0-.6.3-1,.8-1.3s.9-.3,1.3,0,.8.7,1.1,1.5l1.6,3.5c.3.7.5,1.3.4,1.9,0,.6-.3,1-.7,1.3-.4.3-.9.3-1.3,0h-.1ZM1167.4,270.6l-1.6-3.5c-.2-.3-.3-.6-.5-.8-.2-.2-.3-.2-.5,0-.2.1-.3.3-.2.6,0,.3,0,.6.3.9l1.6,3.5c0,.3.3.6.5.7.2.2.3.2.5,0,.3-.2.3-.7,0-1.5h-.1Z"/>
                </g>
                <path class="cls-6" d="M634,167.1c0,0-.6.3-1.4.7-.6.3-1,.5-1,.5l-.7-1.5c.5-.3,1-.6,1.6-.9.5-.4.9-.7,1.1-1l2.2-.5,5.4,11.7-2.8.6-4.4-9.6h0Z"/>
                <g class="cls-15">
                  <path class="cls-7" d="M508.3,176.6c-.8-.3-1.3-.8-1.7-1.6l-1.7-3.7c-.3-.8-.3-1.4,0-1.9.4-.5,1.1-.9,2.3-1.1,1.1-.2,2.1-.2,2.9.2.8.3,1.3.9,1.7,1.6l1.7,3.6c.3.7.3,1.4,0,1.9-.4.5-1.1.9-2.2,1.2-1.1.2-2.1.2-2.8-.1h-.2ZM511.2,174.1l-1.7-3.6c-.2-.4-.4-.6-.6-.8-.3-.2-.6-.3-1.1-.2-.5,0-.7.3-.8.5,0,.3,0,.6.2.9l1.7,3.6c.2.3.4.6.6.8.3.2.6.3,1.1.2.8-.2,1-.6.6-1.4h0Z"/>
                </g>
                <g class="cls-17">
                  <path class="cls-7" d="M1161.1,335c-.7-.4-1.3-1.1-1.9-2.3l-2.7-5.8c-.6-1.2-.8-2.3-.7-3.3,0-1,.5-1.8,1.3-2.4s1.5-.7,2.2-.3c.7.4,1.3,1.2,1.9,2.4l2.6,5.8c.5,1.2.8,2.2.7,3.2,0,1-.5,1.8-1.2,2.4s-1.5.7-2.2.3h0ZM1162.3,330.2l-2.6-5.7c-.3-.6-.5-1-.8-1.3s-.6-.3-.9,0c-.3.2-.4.6-.4,1s.2.9.5,1.5l2.6,5.8c.2.5.5.9.8,1.2.3.3.6.3.9,0,.5-.4.5-1.3,0-2.5Z"/>
                </g>
                <path class="cls-11" d="M1073.5,124.6s-.2.2-.5.4c-.2.2-.3.3-.3.3l-.5-1c.2-.2.3-.4.5-.6s.3-.5.3-.7l.9-.3,3.7,8.2-1.1.4-3-6.6h0Z"/>
                <path class="cls-7" d="M1090.9,186.4c0,.2-.5.7-1.4,1.4-.6.6-1,1-1,1l-1.4-3.1c.5-.5,1-1.2,1.5-2s.8-1.5.9-2.2l2.4-1,10.9,23.8-3.1,1.5-8.9-19.4h0Z"/>
                <path class="cls-10" d="M1117.6,102.2c0,0-.3.4-.9.8-.4.4-.6.5-.6.6l-1-2.1c.3-.3.6-.7,1-1.2.3-.5.5-.9.6-1.3l1.6-.4,7.5,16.4-2,.6-6.1-13.3h0Z"/>
                <g class="cls-23">
                  <path class="cls-7" d="M1184,139.7c-1.2-1-2.3-2.5-3.3-4.6l-4.8-10.5c-1-2.2-1.4-4-1.3-5.5s.8-2.4,2.2-2.9c1.3-.5,2.6-.2,3.8.8,1.2,1,2.3,2.5,3.3,4.6l4.7,10.3c.9,2.1,1.4,3.8,1.3,5.3,0,1.5-.8,2.5-2,3.1-1.3.5-2.5.3-3.8-.7h0ZM1185.9,132.9l-4.7-10.3c-.5-1-.9-1.8-1.4-2.4s-1-.8-1.5-.6c-.5.2-.8.7-.6,1.4,0,.7.4,1.6.9,2.6l4.7,10.3c.4,1,.9,1.7,1.4,2.3s1,.8,1.5.6c.9-.4.8-1.7-.3-4h0Z"/>
                </g>
                <g class="cls-15">
                  <path class="cls-7" d="M1084.1,257.1c-1.6-.9-2.9-2.5-3.9-4.8l-5.4-11.7c-1.1-2.4-1.5-4.5-1.2-6.4.3-1.8,1.3-3.2,3.2-4.1,1.8-.9,3.4-.9,5,0,1.5.9,2.8,2.5,3.9,4.9l5.3,11.5c1,2.3,1.4,4.4,1.2,6.2-.3,1.9-1.3,3.3-3,4.2-1.7,1-3.4,1-4.9.1h-.2ZM1087.3,248.3l-5.2-11.4c-.5-1.1-1.1-2-1.6-2.6-.6-.6-1.2-.7-1.9-.4-.7.4-1.1,1-1,1.8,0,.8.4,1.8.9,3l5.3,11.5c.5,1.1,1,1.9,1.6,2.5s1.2.7,1.9.4c1.2-.6,1.2-2.2,0-4.8h0Z"/>
                </g>
                <g class="cls-22">
                  <path class="cls-7" d="M1171.3,260.8c-.8-.5-1.5-1.4-2.1-2.7l-3-6.5c-.6-1.3-.9-2.5-.8-3.6,0-1,.5-1.8,1.4-2.3.8-.5,1.6-.5,2.4,0s1.5,1.4,2.1,2.7l2.9,6.4c.6,1.3.8,2.4.8,3.5s-.5,1.8-1.3,2.4c-.8.5-1.6.6-2.4,0h0ZM1172.5,255.9l-2.9-6.4c-.3-.6-.6-1.1-.9-1.5-.3-.3-.6-.4-1-.2-.3.2-.5.6-.4,1,0,.5.3,1,.5,1.7l2.9,6.4c.3.6.6,1.1.9,1.4s.6.4.9.2c.6-.4.5-1.3,0-2.7h0Z"/>
                </g>
                <path class="cls-3" d="M850,236.4c-.2.2-.9.8-2.2,1.6-1,.7-1.6,1.1-1.6,1.2l-1.5-3.2c.8-.6,1.6-1.4,2.5-2.3.9-.9,1.4-1.7,1.7-2.4l3.7-1.3,11.5,25.2-4.7,1.9-9.4-20.5v-.2Z"/>
                <path class="cls-9" d="M883.2,325.4c-.2.3-1.1,1.2-2.8,2.6-1.3,1.2-2,1.8-2,1.8l-2-4.3c1-1,2.1-2.1,3.2-3.5,1.1-1.4,1.8-2.6,2.1-3.6l4.7-2.3,15.3,33.3-6,3.2-12.5-27.3h0Z"/>
                <g class="cls-19">
                  <path class="cls-7" d="M909.8,197c-2-1.1-3.5-2.8-4.7-5.3l-5.7-12.6c-1.2-2.6-1.5-4.8-.9-6.7.6-1.8,2.2-3.1,4.7-3.9,2.5-.7,4.7-.6,6.6.5,1.9,1.1,3.4,2.9,4.6,5.4l5.6,12.3c1.1,2.4,1.4,4.6.8,6.5-.6,1.9-2.1,3.2-4.5,4.1-2.4.8-4.6.7-6.6-.3h.1ZM915.1,188.3l-5.6-12.3c-.6-1.2-1.2-2.2-1.9-2.8-.7-.7-1.5-.9-2.5-.5-1,.3-1.5.9-1.5,1.8s.3,1.9.9,3.2l5.6,12.3c.5,1.1,1.1,2,1.9,2.7.7.7,1.6.9,2.5.5,1.7-.6,1.9-2.2.6-4.9Z"/>
                </g>
                <path class="cls-8" d="M357.3,380.2c-.2.2-1.3.8-3,1.7-1.4.8-2.2,1.2-2.2,1.2l-1.2-2.6c1.1-.6,2.3-1.4,3.5-2.3s2.1-1.6,2.6-2.3l4.8-1.6,9.2,20.1-6.2,2.2-7.5-16.4h0Z"/>
                <g class="cls-13">
                  <path class="cls-7" d="M520.6,378.2c-5.6-1.5-9.6-4.9-12-10.2l-12-26.3c-2.5-5.4-2.4-10.4.3-14.8,2.7-4.4,8.1-7.9,16.3-10.6,7.9-2.6,14.5-3,19.8-1.3,5.2,1.7,9,5.1,11.4,10.3l11.5,25.2c2.3,5,2.2,9.7-.3,14.2s-7.5,8.2-15.1,11.2c-7.7,3-14.3,3.7-19.9,2.2h0ZM540.5,356.1l-11.6-25.3c-1.2-2.5-2.6-4.4-4.4-5.6-1.8-1.2-4.3-1.3-7.5-.3-3.3,1.1-5.1,2.6-5.4,4.6s0,4.2,1.3,6.8l11.7,25.7c1.1,2.4,2.6,4.2,4.5,5.4,1.9,1.2,4.4,1.3,7.4.1,5.3-2,6.6-5.8,4-11.4h0Z"/>
                </g>
                <path class="cls-11" d="M1218.4,142.4l-7.5-16.3-1.4.6c0,.5-.2,1-.4,1.5-.3.5-.5,1-.8,1.3l1,2.3s.2-.2.5-.6c.5-.5.7-.8.7-.9l6.6,14.4,1.2-.5v-1.7h.1Z"/>
                <path class="cls-6" d="M179,367c-.7.5-3.5,1.8-8.5,4-4,1.8-6.1,2.8-6.1,2.9l-2.9-6.3c3.1-1.5,6.5-3.3,10-5.5,3.5-2.1,5.9-3.9,7.3-5.5l13.2-3.7,22.2,48.5-16.9,5.3-18.2-39.8h-.1Z"/>
                <path class="cls-7" d="M1204.3,211.4c-1.1-.8-2.1-2.1-2.9-4l-4.3-9.4c-.9-1.9-1.3-3.6-1.2-5,0-1.4.7-2.4,1.8-3,1.1-.6,2.2-.5,3.3.3,1.1.8,2,2.1,2.9,4l4.2,9.2c.8,1.8,1.2,3.5,1.2,4.9s-.6,2.5-1.7,3.1c-1.1.7-2.2.6-3.3-.2h0ZM1205.9,204.8l-4.2-9.2c-.4-.9-.8-1.6-1.3-2.1-.4-.5-.9-.6-1.3-.4-.5.3-.6.7-.5,1.4s.4,1.5.8,2.4l4.2,9.2c.4.8.8,1.5,1.2,2,.4.5.9.6,1.3.4.7-.4.7-1.7-.3-3.7h.1Z"/>
                <g class="cls-13">
                  <path class="cls-7" d="M887.2,273.5c-3.2-1.4-5.6-4.1-7.4-8l-9-19.7c-1.9-4.1-2.3-7.6-1.3-10.7,1-3,3.6-5.3,7.8-6.8,4-1.5,7.6-1.4,10.6,0,3,1.5,5.4,4.2,7.2,8.1l8.7,19.1c1.7,3.8,2.1,7.2,1.2,10.4-.9,3.1-3.3,5.5-7.2,7.2s-7.4,1.8-10.6.4h0ZM895.9,258.7l-8.7-19.1c-.9-1.9-1.9-3.3-3-4.3s-2.5-1.2-4.1-.6c-1.7.6-2.5,1.6-2.5,3.1s.5,3.1,1.3,5l8.8,19.3c.8,1.8,1.8,3.2,3,4.2s2.5,1.2,4,.5c2.7-1.1,3-3.8,1.1-8h.1Z"/>
                </g>
                <path class="cls-11" d="M1218.4,125.7l-1.3.5c0,.8-.3,1.7-.7,2.7-.4,1-.9,1.8-1.4,2.4l1.9,4.1s.3-.4.9-1.2c.2-.2.4-.4.5-.6v-7.9h0Z"/>
                <path class="cls-8" d="M416.8,301.3c-.6.5-2.8,1.6-6.9,3.5-3.3,1.6-4.9,2.5-5,2.5l-2.8-6.2c2.5-1.3,5.2-3,8-4.9s4.7-3.6,5.8-5l10.8-3,21.8,47.6-13.9,4.5-17.9-39.1h.1Z"/>
                <g class="cls-23">
                  <path class="cls-7" d="M1029.1,141.6c-.8-.5-1.4-1.3-1.9-2.4l-2.5-5.5c-.5-1.1-.7-2.1-.5-2.9.2-.8.7-1.3,1.7-1.6.9-.3,1.8-.1,2.5.4.8.5,1.4,1.3,1.9,2.4l2.5,5.5c.5,1.1.7,2,.5,2.8s-.7,1.3-1.6,1.6-1.7.2-2.5-.3h0ZM1030.9,138l-2.5-5.4c-.2-.5-.5-1-.8-1.3s-.6-.4-1-.3c-.4.1-.6.4-.5.7,0,.4.2.8.4,1.4l2.5,5.4c.2.5.5.9.8,1.2s.6.4,1,.3c.6-.2.7-.9,0-2.1h0Z"/>
                </g>
                <g class="cls-19">
                  <path class="cls-7" d="M822.6,321.5c-3.2-1.3-5.7-3.8-7.4-7.6l-8.7-19c-1.8-3.9-2.1-7.4-1-10.5s3.9-5.5,8.2-7.2c4.2-1.7,7.9-1.8,11-.5s5.5,3.9,7.2,7.7l8.4,18.5c1.7,3.7,2,7.1.9,10.2-1.1,3.2-3.6,5.7-7.7,7.5-4.1,1.9-7.7,2.2-11,.9h0ZM832.1,306.3l-8.4-18.4c-.8-1.8-1.8-3.2-2.9-4.1-1.1-.9-2.5-1.1-4.2-.4s-2.6,1.8-2.7,3.2c0,1.4.4,3,1.2,4.9l8.5,18.6c.8,1.7,1.8,3,2.9,4,1.2.9,2.6,1,4.1.3,2.8-1.3,3.3-3.9,1.4-8h.1Z"/>
                </g>
                <path class="cls-1" d="M1107.6,249.4c0,.3-.7,1-1.7,2.1-.8.9-1.2,1.4-1.2,1.5l-1.8-4c.6-.8,1.2-1.8,1.9-2.9.6-1.1,1-2.2,1.1-3.1l3.1-1.7,14.2,31-3.9,2.4-11.6-25.3h0Z"/>
                <g class="cls-17">
                  <path class="cls-7" d="M691.7,409c-3.5-1-6.1-3.4-7.8-7.1l-8.5-18.6c-1.8-3.8-1.9-7.4-.5-10.6s4.6-5.9,9.6-8c4.8-2.1,8.9-2.5,12.2-1.4s5.9,3.5,7.5,7.2l8.3,18.1c1.6,3.6,1.8,7,.4,10.3-1.4,3.3-4.4,6.1-9,8.3-4.6,2.3-8.7,2.9-12.2,1.9h0ZM703.1,392.7l-8.3-18.1c-.8-1.8-1.8-3.1-3-4-1.2-.8-2.7-.9-4.6,0-2,.9-3,2-3.1,3.4s.2,3.1,1.1,4.9l8.3,18.2c.8,1.7,1.8,2.9,3,3.8,1.2.8,2.8.8,4.6,0,3.2-1.5,3.9-4.3,2-8.3h0Z"/>
                </g>
                <g class="cls-23">
                  <path class="cls-7" d="M927.4,485h2.6l-2-4.4c-.2-.5-.3-.9-.3-1.3s.2-.7.6-1c.4-.3.7-.3,1-.1.3.2.5.6.7,1l2.2,4.8c.2.4.2.7.3,1h2c0-.8,0-1.6-.4-2.4l-2.2-4.9c-.5-1-1.1-1.6-1.8-1.8-.7-.2-1.6,0-2.6.7s-1.6,1.5-1.8,2.5c-.2.9,0,1.9.4,2.9l1.4,3h-.1Z"/>
                </g>
                <g class="cls-17">
                  <path class="cls-7" d="M1114,348.1c-.7-.3-1.3-1-1.8-2.1l-2.5-5.4c-.5-1.1-.7-2.1-.6-3.1,0-.9.6-1.7,1.3-2.2.8-.6,1.5-.7,2.2-.3.7.3,1.3,1.1,1.8,2.2l2.5,5.4c.5,1.1.7,2.1.6,3s-.5,1.7-1.3,2.3c-.8.6-1.5.7-2.2.4v-.2ZM1115.3,343.6l-2.4-5.3c-.2-.5-.5-.9-.8-1.2-.3-.3-.5-.3-.9,0-.3.2-.5.6-.4,1,0,.4.2.9.4,1.4l2.4,5.3c.2.5.5.9.7,1.1.3.3.6.3.9,0,.5-.4.5-1.2,0-2.4h.1Z"/>
                </g>
                <g class="cls-2">
                  <path class="cls-7" d="M524.8,419.2c-4.9-1.2-8.4-4.1-10.5-8.7l-10.5-23c-2.2-4.8-2.1-9.1.2-13.2,2.3-4,7.1-7.3,14.2-9.9,6.9-2.6,12.7-3.1,17.3-1.8,4.6,1.4,7.9,4.3,10,8.8l10.2,22.2c2,4.4,1.9,8.6-.3,12.7s-6.6,7.6-13.3,10.4c-6.7,2.9-12.5,3.7-17.4,2.5h0ZM542.2,398.9l-10.2-22.2c-1-2.2-2.3-3.8-3.9-4.9-1.6-1-3.8-1-6.5,0-2.8,1.1-4.4,2.5-4.7,4.3s0,3.8,1.1,6l10.3,22.5c.9,2.1,2.3,3.6,4,4.7,1.7,1,3.8,1,6.4,0,4.6-1.9,5.8-5.3,3.5-10.3h0Z"/>
                </g>
                <path class="cls-8" d="M676.2,476.7c1.2-1,1.9-1.6,2.1-1.8l4.6,10.1h5.6l-7.4-16.2-3.4,1.8c-.3.7-.8,1.5-1.7,2.4-.8.9-1.6,1.8-2.4,2.4l1.1,2.5s.5-.5,1.5-1.3h0Z"/>
                <g class="cls-12">
                  <path class="cls-7" d="M1113.5,196.9c-1.2-.8-2.2-2.1-3-3.9l-4.2-9.1c-.9-1.9-1.2-3.5-1-4.8s.9-2.3,2.3-2.9c1.3-.6,2.6-.4,3.7.3,1.1.8,2.1,2.1,3,3.9l4.1,9c.8,1.8,1.1,3.4,1,4.7-.2,1.4-.9,2.4-2.2,3-1.3.6-2.5.5-3.7-.2h0ZM1115.8,190.5l-4.1-8.9c-.4-.9-.8-1.6-1.3-2.1-.4-.5-.9-.6-1.4-.4-.5.2-.8.7-.7,1.3,0,.6.3,1.4.7,2.3l4.1,9c.4.8.8,1.5,1.3,2s.9.6,1.4.4c.9-.4.9-1.6,0-3.6Z"/>
                </g>
                <path class="cls-8" d="M1143.6,107.7c0,0-.4.4-.9.9-.4.4-.6.6-.6.6l-1.1-2.3c.3-.3.6-.8,1-1.3.3-.5.5-1,.6-1.5l1.7-.5,8.2,17.9-2.1.7-6.7-14.6h0Z"/>
                <path class="cls-1" d="M504.1,306.7c-.5.4-2.4,1.5-5.9,3.3-2.8,1.5-4.2,2.3-4.2,2.4l-2.6-5.7c2.2-1.3,4.4-2.8,6.8-4.6,2.4-1.8,4-3.3,4.9-4.7l9.3-2.8,20.2,44.2-11.9,4.2-16.6-36.2h0Z"/>
                <path class="cls-5" d="M1146.8,182.2c0,.1-.3.4-.7.9-.4.4-.5.6-.5.6l-.9-1.9c.3-.3.5-.7.8-1.2s.4-.9.5-1.4l1.4-.6,6.9,15-1.8.9-5.6-12.2h-.1Z"/>
                <g class="cls-22">
                  <path class="cls-7" d="M375.3,466.6c-2.6-.5-4.3-1.9-5.3-4l-5-11c-1-2.3-.9-4.4.4-6.4s3.9-3.8,7.8-5.3c3.8-1.5,6.9-1.9,9.4-1.4s4.2,1.9,5.2,4.1l4.9,10.8c1,2.1.8,4.3-.5,6.3-1.3,2.1-3.8,3.9-7.5,5.4s-6.8,2-9.4,1.5ZM385.2,456.4l-4.9-10.8c-.5-1.1-1.1-1.8-2-2.3-.8-.5-2-.4-3.5.2-1.6.6-2.4,1.3-2.6,2.2-.2.9,0,1.9.4,2.9l5,10.8c.5,1,1.1,1.7,2,2.2s2,.4,3.5-.2c2.5-1,3.3-2.7,2.2-5.1h-.1Z"/>
                </g>
                <path class="cls-1" d="M1148.5,153.4c0,.3-.6.9-1.6,1.8-.8.8-1.2,1.2-1.2,1.3l-1.9-4.2c.6-.7,1.2-1.5,1.8-2.6.6-1,.9-2,1-2.8l3-1.2,14.9,32.5-3.8,1.8-12.2-26.6h0Z"/>
                <path class="cls-9" d="M1035.9,219.9c-.2.3-.9,1.1-2.3,2.3-1.1,1-1.7,1.6-1.7,1.6l-2.2-4.7c.9-.9,1.7-2,2.6-3.3s1.4-2.4,1.6-3.5l4.1-1.8,16.7,36.5-5.2,2.6-13.7-29.8h0Z"/>
                <g class="cls-22">
                  <path class="cls-7" d="M1161.9,195.8c-1.7-1.2-3.2-3.2-4.5-6l-6.5-14.2c-1.3-2.9-1.9-5.4-1.7-7.5.2-2.1,1.2-3.5,3.2-4.3,1.9-.8,3.6-.6,5.3.6,1.7,1.2,3.2,3.2,4.4,6.1l6.3,13.8c1.3,2.7,1.8,5.2,1.6,7.3-.2,2.1-1.1,3.6-2.9,4.6-1.8.9-3.5.8-5.3-.4h0ZM1164.8,186.1l-6.3-13.8c-.6-1.4-1.3-2.4-1.9-3.2-.7-.8-1.3-1-2.1-.6-.8.3-1.1,1-.9,2,0,1,.5,2.2,1.2,3.6l6.4,13.9c.6,1.3,1.2,2.3,1.9,3.1.7.8,1.4,1,2.1.6,1.2-.6,1.1-2.5-.3-5.5h0Z"/>
                </g>
                <path class="cls-5" d="M1013.2,422.4c0,.2-.5.7-1.2,1.6-.6.7-.8,1.1-.9,1.1l-1-2.3c.4-.6.9-1.3,1.3-2.1.5-.8.7-1.5.8-2.1l2.1-1.5,8.1,17.7-2.7,2.1-6.6-14.4h.1Z"/>
                <path class="cls-7" d="M924.3,289.5c-3.3-1.5-6-4.4-8-8.7l-9.9-21.6c-2-4.4-2.5-8.4-1.6-11.7,1-3.4,3.7-5.9,8-7.6,4.2-1.7,7.9-1.7,11.1,0,3.2,1.6,5.8,4.6,7.7,8.8l9.5,20.8c1.9,4.1,2.4,7.9,1.5,11.4s-3.4,6.2-7.4,8.1-7.7,2.2-11,.6h.1ZM933.1,273l-9.5-20.8c-.9-2.1-2-3.6-3.2-4.7-1.2-1.1-2.6-1.3-4.3-.6s-2.6,1.8-2.5,3.4c0,1.6.5,3.4,1.5,5.5l9.6,21.1c.9,1.9,2,3.4,3.2,4.5s2.6,1.2,4.2.5c2.8-1.3,3.1-4.2,1-8.9Z"/>
                <path class="cls-10" d="M336.3,319.6c-.2.2-1.1.6-2.6,1.3-1.2.6-1.9.9-1.9.9l-1-2.2c1-.5,2-1.1,3.1-1.8,1.1-.7,1.8-1.3,2.2-1.8l4.2-1.2,7.8,17.1-5.4,1.6-6.4-14h0Z"/>
                <g class="cls-19">
                  <path class="cls-7" d="M1180.5,288.8c-.9-.6-1.8-1.6-2.5-3.2l-3.6-7.8c-.7-1.6-1.1-3.1-1-4.3,0-1.3.6-2.2,1.6-2.9,1-.7,1.9-.7,2.9-.2.9.6,1.7,1.6,2.5,3.2l3.5,7.7c.7,1.5,1,2.9.9,4.2,0,1.3-.6,2.3-1.5,3-1,.7-1.9.8-2.8.2h0ZM1182,282.7l-3.5-7.7c-.4-.8-.7-1.3-1.1-1.7-.4-.4-.7-.4-1.1-.2-.4.3-.6.7-.5,1.3,0,.6.3,1.3.7,2l3.5,7.7c.3.7.7,1.3,1,1.7.4.4.7.5,1.1.2.7-.5.6-1.6-.2-3.3h0Z"/>
                </g>
                <path class="cls-3" d="M1032.8,287.3c0,.3-.7.9-1.7,1.9-.8.9-1.2,1.3-1.2,1.4l-1.6-3.4c.6-.7,1.3-1.6,1.9-2.7.7-1,1.1-2,1.2-2.8l3-1.6,12.2,26.7-3.8,2.3-10-21.8Z"/>
                <g class="cls-15">
                  <path class="cls-7" d="M1057.6,103c-.9-.6-1.6-1.6-2.2-2.8l-2.9-6.4c-.6-1.3-.8-2.4-.7-3.3.2-.9.8-1.4,1.8-1.7,1-.2,2,0,2.8.6.9.6,1.6,1.6,2.2,2.9l2.9,6.3c.6,1.3.8,2.3.6,3.2-.2.9-.8,1.5-1.7,1.7-1,.3-1.9,0-2.8-.5h0ZM1059.5,99.1l-2.9-6.3c-.3-.6-.6-1.1-.9-1.5s-.7-.5-1.1-.4-.6.4-.6.8.2,1,.5,1.6l2.9,6.3c.3.6.6,1.1.9,1.4.3.4.7.5,1.1.4.7-.2.7-1,0-2.4h0Z"/>
                </g>
                <path class="cls-8" d="M767.9,369.1c-.5.7-2.6,2.4-6.4,5.3-3,2.4-4.6,3.7-4.6,3.8l-3.8-8.3c2.3-2,4.8-4.4,7.3-7.2,2.5-2.8,4.2-5.2,5-7.2l10.3-4.8,29.1,63.7-13,7.2-24-52.4h.1Z"/>
                <g class="cls-15">
                  <path class="cls-7" d="M230,485h21.1l-8.8-19.2c-1-2.3-1.3-4.4-.8-6.2.5-1.9,2.6-3.5,6.2-4.8,3.5-1.3,6.2-1.4,8.1-.4s3.3,2.6,4.3,4.9l10.4,22.6c.5,1.1.8,2.1.9,3.1h16.6c1.2-3.2,1-6.4-.4-9.6l-10.3-22.6c-2.1-4.6-5.9-7.5-11.5-8.6s-12.7-.2-21.5,3c-9.1,3.2-15.2,7-18.5,11.3-3.3,4.4-3.8,9-1.6,13.8l5.8,12.7h0Z"/>
                </g>
                <path class="cls-9" d="M1171.7,201.9s-.2.3-.4.6c-.2.2-.3.4-.3.4l-.5-1.2c.2-.2.3-.5.5-.8s.2-.6.3-.8l.8-.4,4.2,9.1-1,.6-3.4-7.4h-.2Z"/>
                <g class="cls-23">
                  <path class="cls-7" d="M863,429.9c-2.8-.9-5.1-3.1-6.6-6.5l-7.9-17.4c-1.6-3.6-2-6.9-1-10,.9-3.1,3.3-5.6,7.1-7.7,3.7-2,6.9-2.6,9.6-1.6,2.7,1,4.9,3.2,6.4,6.6l7.7,16.9c1.5,3.4,1.9,6.6,1,9.7s-3.1,5.8-6.6,8-6.7,2.9-9.6,2h-.1ZM871.1,414.4l-7.7-16.8c-.8-1.7-1.6-2.9-2.6-3.7-1-.8-2.2-.7-3.7,0-1.5.9-2.3,2-2.3,3.3s.4,2.9,1.2,4.6l7.8,17c.7,1.6,1.6,2.7,2.6,3.5s2.3.7,3.6-.1c2.4-1.5,2.8-4.1,1.1-7.8h0Z"/>
                </g>
                <path class="cls-7" d="M1016.6,235.9c-1.3-.7-2.4-2-3.3-3.9l-4.3-9.4c-.9-1.9-1.2-3.6-.9-5s1.3-2.5,2.9-3.2c1.6-.7,3-.6,4.3.1,1.3.8,2.4,2.1,3.2,3.9l4.2,9.2c.8,1.8,1.1,3.5.8,4.9-.3,1.5-1.2,2.6-2.8,3.3-1.5.7-3,.7-4.3,0h.2ZM1019.7,229.1l-4.2-9.2c-.4-.9-.9-1.6-1.4-2.1s-1-.6-1.7-.3-1,.8-.9,1.4c0,.7.3,1.5.7,2.4l4.2,9.2c.4.8.8,1.5,1.3,2s1.1.6,1.7.3c1.1-.5,1.1-1.7.2-3.8h.1Z"/>
                <path class="cls-10" d="M762.7,325.6c-.4.5-2.1,1.9-5.2,4-2.5,1.8-3.7,2.8-3.7,2.9l-3.1-6.7c1.9-1.5,3.9-3.4,6-5.5s3.4-4,4.1-5.6l8.4-3.5,23.6,51.6-10.7,5.2-19.4-42.4h0Z"/>
                <path class="cls-5" d="M730.6,215.1c0,.1-.6.4-1.4.8-.6.4-1,.6-1,.6l-.8-1.7c.5-.3,1-.7,1.5-1.2s.9-.9,1.1-1.2l2.2-.6,6,13.2-2.9.9-4.9-10.7h.2Z"/>
                <path class="cls-6" d="M1129.2,125.7c0,.2-.6.7-1.4,1.4-.7.6-1,1-1,1l-1.6-3.6c.5-.5,1-1.2,1.6-2.1.5-.8.8-1.6.9-2.3l2.6-.9,12.7,27.7-3.3,1.3-10.4-22.6h0Z"/>
                <g class="cls-19">
                  <path class="cls-7" d="M603.5,351c-1.5-.5-2.7-1.5-3.4-3l-3.5-7.7c-.7-1.6-.7-3,0-4.3s2.1-2.4,4.3-3.2c2.2-.8,4-.9,5.5-.5,1.5.5,2.6,1.5,3.3,3.1l3.5,7.6c.7,1.5.7,2.9,0,4.2-.7,1.3-2.1,2.4-4.2,3.2-2.1.8-3.9,1-5.5.5h0ZM608.9,344.6l-3.4-7.5c-.3-.7-.8-1.3-1.3-1.7-.5-.4-1.2-.4-2.1,0-.9.3-1.4.8-1.4,1.4s0,1.3.4,2l3.5,7.6c.3.7.7,1.2,1.3,1.6.5.4,1.2.4,2,0,1.5-.6,1.8-1.7,1-3.3h0Z"/>
                </g>
                <path class="cls-9" d="M835.4,327.1c0,.2-.7.6-1.6,1.4-.8.6-1.1.9-1.1,1l-1-2.3c.6-.5,1.2-1.1,1.8-1.9.6-.7,1-1.4,1.2-1.9l2.7-1.2,8.2,17.8-3.4,1.7-6.6-14.5h-.2Z"/>
                <g class="cls-15">
                  <path class="cls-7" d="M1218.4,163.6c-.3,0-.6-.3-.8-.6-.5-.7-1.1-1.5-1.6-2.6l-5.4-11.7c-.5-1.2-.9-2.2-1-3-.2-.8,0-1.4.6-1.6.6-.2,1.1,0,1.6.6s1.1,1.5,1.6,2.7l5,10.8v-7.2l-2.3-4.9c-1.1-2.4-2.3-4.1-3.6-5.2-1.3-1.1-2.7-1.3-4.1-.7s-2.2,1.8-2.2,3.5.5,3.8,1.6,6.2l5.4,11.9c1.1,2.4,2.3,4.1,3.7,5.1.5.4,1,.6,1.5.8v-4.1h0Z"/>
                </g>
                <g class="cls-19">
                  <path class="cls-7" d="M1197.6,156.5c-1.6-1.2-3-3.1-4.2-5.8l-6.1-13.4c-1.3-2.8-1.8-5.1-1.7-7,0-1.9,1-3.2,2.7-3.8,1.6-.6,3.2-.3,4.7.9s2.9,3.2,4.1,5.9l6,13.1c1.2,2.6,1.7,4.9,1.7,6.8s-.9,3.3-2.5,4-3.1.5-4.7-.7h0ZM1199.9,147.7l-6-13.1c-.6-1.3-1.2-2.3-1.8-3.1-.6-.7-1.2-1-1.9-.7-.7.3-.9.9-.8,1.8.2.9.5,2,1.1,3.3l6,13.2c.6,1.2,1.1,2.2,1.8,2.9.6.7,1.2,1,1.9.7,1.1-.5,1-2.2-.4-5.1h.1Z"/>
                </g>
                <g class="cls-15">
                  <path class="cls-7" d="M1049.5,348.6c-1-.5-1.9-1.5-2.6-3l-3.5-7.6c-.7-1.6-1-3-.8-4.3s.9-2.3,2.2-3.1c1.2-.8,2.3-.9,3.4-.4,1,.5,1.9,1.5,2.6,3l3.4,7.5c.7,1.5.9,2.9.7,4.2-.2,1.3-.9,2.4-2.1,3.2-1.2.8-2.3,1-3.3.5h0ZM1051.8,342.3l-3.4-7.4c-.3-.7-.7-1.3-1.1-1.6-.4-.4-.8-.4-1.3,0-.5.3-.7.8-.7,1.3s.2,1.2.6,2l3.4,7.4c.3.7.7,1.2,1.1,1.6s.8.4,1.3,0c.8-.5.9-1.6,0-3.3h0Z"/>
                </g>
                <g class="cls-17">
                  <path class="cls-7" d="M1011,301.2c-2.8-1.4-5.1-4-6.9-7.9l-9-19.8c-1.9-4.1-2.5-7.7-1.8-10.8.7-3.1,2.8-5.5,6.3-7.2,3.4-1.6,6.4-1.7,9.2-.2,2.7,1.5,5,4.1,6.7,8l8.8,19.1c1.7,3.8,2.3,7.3,1.7,10.5-.6,3.2-2.5,5.7-5.8,7.6-3.3,1.8-6.3,2.1-9.1.7h-.1ZM1017.6,285.8l-8.8-19.1c-.9-1.9-1.8-3.3-2.8-4.3s-2.2-1.1-3.6-.5c-1.4.7-2,1.7-1.9,3.2,0,1.4.6,3.1,1.5,5l8.8,19.3c.8,1.8,1.8,3.2,2.8,4.1,1.1,1,2.2,1.1,3.5.4,2.2-1.2,2.4-4,.4-8.2h0Z"/>
                </g>
                <path class="cls-9" d="M859.8,427.9c-.3.5-1.7,2-4.2,4.4-2,2-3,3-3,3.1l-2.9-6.3c1.5-1.7,3.1-3.6,4.8-5.9s2.7-4.2,3.2-5.8l7-4.2,22,48.2-8.9,6-18.1-39.5h.1Z"/>
                <g class="cls-17">
                  <path class="cls-7" d="M693.8,471.8c-4.2-1-7.4-3.8-9.4-8.3l-10.3-22.6c-2.1-4.7-2.3-9-.6-13.1s5.6-7.6,11.6-10.5c5.8-2.8,10.6-3.6,14.7-2.4,4,1.2,7,4,9.1,8.4l9.9,21.7c2,4.3,2.1,8.5.5,12.7-1.7,4.2-5.2,7.8-10.7,10.9-5.6,3.1-10.5,4.2-14.7,3.2h0ZM707.5,451l-10-21.8c-1-2.2-2.2-3.7-3.6-4.7-1.4-1-3.3-.9-5.6.3-2.4,1.2-3.6,2.7-3.8,4.4,0,1.8.3,3.8,1.3,6l10.1,22c.9,2,2.1,3.5,3.6,4.5s3.3.9,5.5-.3c3.8-2.1,4.6-5.5,2.4-10.4h0Z"/>
                </g>
                <path class="cls-10" d="M1134.9,173.9c0,.1-.3.3-.6.7-.3.3-.5.5-.5.5l-.7-1.6c.2-.3.5-.6.7-1s.4-.8.4-1.1l1.2-.5,5.8,12.6-1.5.7-4.7-10.2h-.1Z"/>
                <path class="cls-11" d="M786.8,203.8c-.2.2-1.1.8-2.7,1.7-1.3.8-1.9,1.2-1.9,1.2l-1.7-3.6c1-.7,2-1.5,3.1-2.4,1.1-1,1.8-1.8,2.1-2.6l4.5-1.3,12.9,28.2-5.7,1.9-10.5-23h0Z"/>
                <path class="cls-4" d="M1184.7,74.5s-.2.2-.4.4c-.2.2-.3.3-.3.3l-.6-1.2c.2-.2.3-.4.5-.6.2-.3.2-.5.3-.7l.8-.2,4.4,9.6-1,.3-3.6-7.8h-.1Z"/>
                <path class="cls-10" d="M579.1,450.1c-.3.4-1.7,1.4-4.1,3.1-1.9,1.4-2.9,2.1-2.9,2.2l-2-4.3c1.5-1.2,3.1-2.6,4.7-4.1,1.7-1.6,2.8-2.9,3.3-4.1l6.6-3,15.2,33.2-8.4,4.2-12.4-27.1h0Z"/>
                <path class="cls-8" d="M1125.1,261.3c0,.3-.6,1-1.6,2.1-.8,1-1.2,1.5-1.2,1.5l-1.8-4c.6-.8,1.2-1.8,1.8-3,.6-1.2,1-2.2,1.1-3.1l3-1.8,14.2,31.1-3.8,2.5-11.6-25.4h0Z"/>
                <g class="cls-23">
                  <path class="cls-7" d="M1181.2,192.6c-1.9-1.4-3.6-3.6-5.1-6.8l-7.4-16.1c-1.5-3.3-2.2-6.2-2-8.5s1.3-4,3.4-4.9c2-.9,4-.6,5.8.8,1.9,1.4,3.5,3.7,5,6.9l7.2,15.7c1.4,3.1,2.1,5.9,1.9,8.3,0,2.4-1.2,4.1-3.1,5.1s-3.9.9-5.8-.5h0ZM1184.2,181.5l-7.2-15.6c-.7-1.6-1.4-2.8-2.2-3.6-.7-.9-1.5-1.1-2.3-.7-.8.4-1.2,1.1-1,2.2.2,1.1.6,2.5,1.3,4l7.2,15.8c.7,1.5,1.4,2.6,2.1,3.5.8.9,1.5,1.1,2.3.7,1.3-.7,1.2-2.8-.4-6.2h.2Z"/>
                </g>
                <path class="cls-10" d="M810.3,420c-.4.6-2,2.2-5,4.8-2.4,2.2-3.6,3.3-3.6,3.4l-3.2-6.9c1.8-1.8,3.8-4,5.8-6.5s3.3-4.6,3.9-6.4l8.2-4.5,24.4,53.3-10.4,6.6-20-43.8h-.1Z"/>
                <g class="cls-12">
                  <path class="cls-7" d="M1188.3,232.4c-.5-.4-1-1-1.4-1.9l-2-4.4c-.4-.9-.6-1.7-.6-2.4s.3-1.2.9-1.5,1.1-.3,1.6,0c.5.4,1,1,1.4,1.9l2,4.4c.4.9.6,1.7.5,2.4,0,.7-.3,1.2-.9,1.6-.5.3-1.1.3-1.6,0h0ZM1189.1,229.2l-2-4.4c-.2-.4-.4-.8-.6-1s-.4-.3-.6-.1c-.2.1-.3.4-.3.7s.2.7.4,1.1l2,4.4c.2.4.4.7.6,1,.2.2.4.3.6.2.4-.2.3-.8,0-1.8h0Z"/>
                </g>
                <path class="cls-8" d="M974.5,157.2c0,.2-.9.8-2.1,1.6-1,.7-1.5,1.1-1.5,1.1l-1.7-3.8c.8-.6,1.6-1.4,2.4-2.3.8-.9,1.3-1.8,1.5-2.6l3.6-1.1,13.5,29.4-4.6,1.6-11-24h-.1Z"/>
                <path class="cls-4" d="M775.1,449.3c-.3.4-1.4,1.5-3.5,3.3-1.7,1.5-2.5,2.3-2.5,2.4l-2.1-4.6c1.3-1.3,2.6-2.7,4-4.5,1.4-1.7,2.3-3.2,2.7-4.4l5.7-3.3,16.3,35.7-7.3,4.5-13.4-29.2h0Z"/>
                <g class="cls-22">
                  <path class="cls-7" d="M825,481.5c-1.8-.5-3.2-1.8-4.2-3.9l-5-10.8c-1-2.2-1.2-4.4-.6-6.4.6-2,2.2-3.8,4.7-5.3,2.4-1.5,4.5-2,6.3-1.4,1.8.5,3.2,1.9,4.2,4l4.9,10.6c1,2.1,1.1,4.2.5,6.3-.6,2.1-2.1,3.9-4.4,5.4-2.3,1.5-4.4,2.1-6.3,1.6h-.1ZM830.4,471.3l-4.8-10.6c-.5-1.1-1-1.8-1.7-2.3-.6-.5-1.4-.4-2.4.2s-1.5,1.4-1.5,2.2.2,1.8.7,2.9l4.9,10.7c.4,1,1,1.7,1.7,2.2s1.5.4,2.4-.2c1.6-1,1.9-2.7.8-5.1h-.1Z"/>
                </g>
                <g class="cls-22">
                  <path class="cls-7" d="M1197.4,191.9c-.6-.4-1.1-1.1-1.5-2.1l-2.2-4.8c-.5-1-.7-1.9-.6-2.6,0-.7.4-1.2,1-1.5s1.2-.2,1.7.2c.6.4,1.1,1.1,1.5,2.1l2.2,4.8c.4,1,.6,1.8.6,2.5s-.3,1.3-.9,1.6-1.1.3-1.7-.1h0ZM1198.3,188.5l-2.2-4.7c-.2-.5-.4-.8-.7-1.1-.2-.3-.4-.3-.7-.2-.2.1-.3.4-.3.7s.2.7.4,1.2l2.2,4.8c.2.4.4.8.6,1,.2.3.5.3.7.2.4-.2.3-.8,0-1.9h0Z"/>
                </g>
                <path class="cls-5" d="M1089.7,147.4s-.2.2-.5.4c-.2.2-.3.3-.3.3l-.5-1c.2-.2.3-.4.5-.6.2-.2.3-.5.3-.7l.8-.3,3.7,8-1.1.4-3-6.5h0Z"/>
                <g class="cls-17">
                  <path class="cls-7" d="M1165.7,247.3c-1.6-1-3.1-2.9-4.3-5.6l-6.2-13.5c-1.3-2.8-1.8-5.2-1.7-7.3.2-2.1,1.2-3.6,3-4.6s3.4-.9,5,.2c1.6,1.1,3,3,4.2,5.6l6,13.2c1.2,2.6,1.7,5,1.6,7.1-.2,2.1-1.1,3.7-2.7,4.8-1.7,1.1-3.3,1.1-5,0h0ZM1168.4,237.4l-6-13.1c-.6-1.3-1.2-2.3-1.8-3-.6-.7-1.3-.8-2-.4-.7.4-1,1.1-.9,2.1s.5,2.1,1.1,3.4l6.1,13.2c.6,1.2,1.2,2.2,1.8,2.9.6.7,1.3.8,2,.4,1.2-.7,1.1-2.5-.3-5.4h0Z"/>
                </g>
                <path class="cls-10" d="M1026.5,309.1c-.2.4-1,1.3-2.4,2.7-1.1,1.2-1.7,1.9-1.7,1.9l-2.1-4.7c.9-1,1.7-2.3,2.7-3.7.9-1.5,1.5-2.7,1.7-3.8l4.1-2.4,16.6,36.3-5.2,3.4-13.6-29.7h0Z"/>
                <path class="cls-8" d="M808.4,251.8c-.3.4-1.8,1.5-4.5,3.3-2.2,1.5-3.2,2.3-3.3,2.3l-2.9-6.3c1.7-1.2,3.4-2.8,5.2-4.6s3-3.4,3.5-4.8l7.5-2.6,22.1,48.2-9.5,4-18.1-39.5h0Z"/>
                <path class="cls-6" d="M1197.1,92.9c0,0-.3.4-.8.9-.4.4-.6.6-.6.6l-1.1-2.3c.3-.3.6-.8.8-1.3.3-.5.4-1,.5-1.4l1.5-.5,8.3,18.2-1.9.7-6.8-14.9h0Z"/>
                <path class="cls-7" d="M1123.6,178.6s-.2.3-.5.6c-.2.2-.4.4-.4.4l-.6-1.2c.2-.2.4-.5.5-.8.2-.3.3-.6.3-.9l.9-.4,4.4,9.6-1.2.5-3.6-7.8h.2Z"/>
                <g class="cls-23">
                  <path class="cls-7" d="M978.8,382.3c-1.8-.7-3.3-2.3-4.5-4.8l-5.7-12.5c-1.2-2.6-1.5-4.9-1.1-7.1.5-2.1,1.9-3.9,4.2-5.3s4.3-1.6,6.1-.9c1.8.8,3.2,2.4,4.4,4.9l5.6,12.2c1.1,2.4,1.4,4.7,1,6.9-.5,2.2-1.8,4-3.9,5.4-2.2,1.4-4.2,1.8-6,1.1h0ZM983.3,371.7l-5.6-12.2c-.6-1.2-1.2-2.1-1.8-2.7-.7-.6-1.4-.6-2.3,0-.9.6-1.4,1.3-1.3,2.3,0,1,.4,2,.9,3.3l5.6,12.2c.5,1.1,1.1,2,1.8,2.6s1.5.6,2.3,0c1.5-1,1.6-2.8.4-5.5h0Z"/>
                </g>
                <g class="cls-15">
                  <path class="cls-7" d="M461.7,233.7c-1-.4-1.8-1-2.2-1.9l-2.1-4.7c-.4-1-.4-1.8,0-2.5.5-.7,1.5-1.3,3.1-1.6,1.5-.3,2.8-.3,3.8,0,1,.4,1.7,1,2.2,2l2.1,4.6c.4.9.4,1.7-.1,2.5-.5.7-1.5,1.3-3,1.6-1.5.4-2.7.3-3.8,0h0ZM465.6,230.3l-2.1-4.6c-.2-.5-.5-.8-.8-1s-.8-.3-1.4-.2-1,.4-1,.7,0,.7.2,1.2l2.1,4.6c.2.4.5.8.8,1,.4.2.8.3,1.4.2,1-.2,1.3-.9.8-1.9Z"/>
                </g>
                <g class="cls-15">
                  <path class="cls-7" d="M635.8,452.5c-2-.5-3.5-1.8-4.4-3.8l-4.7-10.3c-1-2.1-1-4.1-.2-6,.9-1.9,2.7-3.5,5.6-4.8,2.8-1.3,5.2-1.7,7.1-1.2,1.9.5,3.4,1.8,4.3,3.9l4.6,10.1c.9,2,.9,4,0,5.9s-2.7,3.6-5.4,4.9c-2.7,1.4-5.1,1.8-7.1,1.3h.2ZM642.6,443l-4.6-10.1c-.5-1-1-1.7-1.7-2.2-.7-.4-1.6-.4-2.7.1-1.2.6-1.8,1.2-1.9,2,0,.8,0,1.7.6,2.7l4.6,10.1c.4.9,1,1.6,1.7,2.1.7.4,1.6.4,2.7-.1,1.9-.9,2.3-2.5,1.3-4.7h0Z"/>
                </g>
                <path class="cls-4" d="M1135.8,159s-.2.2-.5.5c-.2.2-.3.3-.3.4l-.5-1.2c.2-.2.3-.4.5-.7s.3-.6.3-.8l.9-.4,4.2,9.2-1.1.5-3.4-7.5h0Z"/>
                <g class="cls-12">
                  <path class="cls-7" d="M1057.9,257.4c-1.2-.7-2.2-1.8-2.9-3.6l-3.9-8.6c-.8-1.8-1.1-3.3-.9-4.7.2-1.3,1-2.4,2.5-3,1.4-.7,2.6-.7,3.8,0,1.1.7,2.1,1.9,2.9,3.6l3.9,8.5c.8,1.7,1,3.2.8,4.6-.2,1.4-1,2.4-2.3,3.1-1.3.7-2.6.7-3.8,0h0ZM1060.5,250.9l-3.9-8.5c-.4-.8-.8-1.5-1.2-1.9-.4-.4-.9-.5-1.5-.3-.6.3-.8.7-.8,1.4s.3,1.4.7,2.2l3.9,8.5c.4.8.8,1.4,1.2,1.8.5.4.9.5,1.5.3.9-.5.9-1.7,0-3.5h.1Z"/>
                </g>
                <g class="cls-15">
                  <path class="cls-7" d="M430,425.3c-2-.5-3.4-1.6-4.2-3.4l-4.1-8.9c-.8-1.8-.8-3.6.2-5.2s3-2.9,6-4.1c2.9-1.1,5.4-1.4,7.3-.9s3.3,1.6,4.1,3.4l4,8.8c.8,1.7.7,3.4-.3,5.1-1,1.6-2.9,3-5.8,4.1s-5.3,1.5-7.3,1h0ZM437.6,417.4l-4-8.7c-.4-.9-.9-1.5-1.6-1.9s-1.6-.4-2.7,0c-1.2.5-1.9,1-2,1.7s0,1.5.4,2.4l4,8.8c.4.8.9,1.4,1.6,1.8s1.6.4,2.7,0c2-.8,2.5-2.1,1.6-4.1h0Z"/>
                </g>
                <g class="cls-12">
                  <path class="cls-7" d="M1206.8,155c-.9-.7-1.7-1.8-2.4-3.3l-3.5-7.6c-.7-1.6-1.1-2.9-1-4,0-1.1.5-1.8,1.5-2.2.9-.4,1.8-.2,2.7.5.9.7,1.6,1.8,2.3,3.3l3.4,7.5c.7,1.5,1,2.8,1,3.9s-.5,1.9-1.4,2.3c-.9.4-1.8.3-2.6-.4ZM1208,149.9l-3.4-7.5c-.3-.7-.7-1.3-1-1.7s-.7-.5-1.1-.4c-.4.2-.5.5-.4,1,0,.5.3,1.2.7,1.9l3.4,7.5c.3.7.7,1.2,1,1.7.4.4.7.6,1,.4.6-.3.5-1.3-.2-2.9Z"/>
                </g>
                <path class="cls-6" d="M38.4,485c1-.5,2.6-1.3,4.7-2.3,5-2.3,7.8-3.8,8.5-4.3l3,6.6h19.5l-9.4-20.6-13,4.3c-1.4,1.5-3.8,3.4-7.3,5.6s-6.9,4.1-10,5.7l2.3,5h1.7,0Z"/>
                <g class="cls-12">
                  <path class="cls-7" d="M1085,278.2c-.7-.4-1.3-1.1-1.8-2.2l-2.4-5.3c-.5-1.1-.7-2.1-.6-2.9,0-.9.6-1.5,1.4-2s1.6-.5,2.3,0c.7.4,1.3,1.1,1.8,2.2l2.4,5.3c.5,1,.7,2,.5,2.9,0,.9-.6,1.5-1.4,2s-1.5.5-2.2.1h0ZM1086.4,274.1l-2.4-5.2c-.2-.5-.5-.9-.8-1.2-.3-.3-.6-.3-.9-.1-.3.2-.5.5-.4.9,0,.4.2.9.4,1.4l2.4,5.3c.2.5.5.9.7,1.1.3.3.6.3.9.1.5-.3.5-1.1,0-2.2h.1Z"/>
                </g>
                <path class="cls-6" d="M707.7,485s.2-.2.3-.2c1.2-1,1.9-1.6,2-1.9l1,2.1h5.5l-3.8-8.2-3.3,1.9c-.3.7-.8,1.5-1.6,2.4-.8,1-1.6,1.8-2.3,2.5l.6,1.4h1.7-.1Z"/>
                <path class="cls-5" d="M897.5,399.3c-.3.5-1.5,1.7-3.6,3.8s-2.6,2.7-2.6,2.7l-2.6-5.7c1.3-1.4,2.7-3.2,4.1-5.2,1.4-2,2.3-3.7,2.7-5.1l6.1-3.6,20.1,43.9-7.7,5.1-16.5-36h0Z"/>
                <g class="cls-12">
                  <path class="cls-7" d="M883.4,308c-3.9-1.7-7-4.9-9.2-9.7l-11.1-24.3c-2.3-5-2.8-9.4-1.5-13.3,1.3-3.8,4.5-6.8,9.6-8.8,5-2,9.3-2,13.1-.2,3.7,1.8,6.6,5.1,8.8,9.8l10.7,23.3c2.1,4.6,2.6,8.9,1.5,12.8-1.2,4-4.1,7.1-8.8,9.3-4.8,2.3-9.1,2.6-13,1h0ZM894.2,289l-10.7-23.4c-1.1-2.3-2.3-4.1-3.6-5.3-1.4-1.2-3-1.4-5-.6-2.1.8-3.1,2.1-3.1,3.9s.6,3.8,1.6,6.2l10.8,23.7c1,2.2,2.2,3.9,3.6,5.1,1.4,1.2,3.1,1.4,4.9.5,3.3-1.5,3.7-4.9,1.4-10.1h0Z"/>
                </g>
                <path class="cls-11" d="M845.9,370.5c-.3.4-1.4,1.5-3.5,3.2-1.6,1.5-2.5,2.2-2.5,2.3l-2.3-5c1.3-1.2,2.6-2.7,4-4.4,1.4-1.7,2.3-3.2,2.7-4.4l5.8-3,17.8,39-7.3,4.2-14.6-31.9h-.1Z"/>
                <path class="cls-11" d="M1100,116.1c0,0-.4.5-1.1.9-.5.4-.8.6-.8.7l-1.1-2.4c.4-.4.8-.8,1.2-1.4.4-.6.6-1.1.7-1.6l1.9-.6,8.7,19-2.4.8-7.1-15.5h0Z"/>
                <path class="cls-3" d="M1003,332.5c0,.2-.6.8-1.6,1.8s-1.1,1.3-1.2,1.3l-1.4-3c.6-.7,1.2-1.5,1.8-2.5s1-1.8,1.1-2.5l2.8-1.6,10.7,23.5-3.6,2.3-8.8-19.2h.2Z"/>
                <path class="cls-5" d="M1166.4,82c0,0-.3.4-.9.8-.4.4-.6.6-.6.6l-1.1-2.3c.3-.3.6-.7.9-1.2s.5-1,.5-1.4l1.6-.4,8.3,18.1-2,.6-6.8-14.8h0Z"/>
                <path class="cls-6" d="M877.4,308.6c-.3.4-1.5,1.5-3.7,3.2-1.7,1.5-2.6,2.2-2.6,2.3l-2.6-5.6c1.3-1.2,2.7-2.7,4.2-4.5,1.4-1.7,2.4-3.2,2.8-4.6l6.1-2.8,19.7,43.1-7.8,4.1-16.2-35.3h0Z"/>
                <path class="cls-4" d="M699,253.2c0,.2-.7.5-1.8,1.1-.9.5-1.3.8-1.3.8l-1-2.2c.7-.4,1.4-1,2.1-1.6.7-.6,1.2-1.2,1.5-1.7l3-.9,7.8,17.1-3.9,1.3-6.4-13.9h0Z"/>
                <g class="cls-15">
                  <path class="cls-7" d="M1144.9,219.8c-2-1.3-3.7-3.6-5.2-6.8l-7.4-16.2c-1.5-3.3-2.2-6.2-1.9-8.6.3-2.4,1.5-4.1,3.8-5.2,2.2-1,4.3-.8,6.2.5,1.9,1.4,3.6,3.6,5.1,6.9l7.2,15.7c1.4,3.1,2,5.9,1.8,8.4s-1.4,4.3-3.5,5.4c-2.1,1.2-4.2,1.1-6.2-.2h0ZM1148.4,208.3l-7.2-15.7c-.7-1.6-1.4-2.8-2.2-3.6-.8-.8-1.6-1.1-2.4-.6-.9.4-1.3,1.2-1.1,2.3.2,1.1.6,2.5,1.3,4.1l7.3,15.8c.7,1.5,1.4,2.6,2.2,3.5.8.9,1.6,1.1,2.4.6,1.4-.8,1.4-2.9-.2-6.4h-.1Z"/>
                </g>
                <g class="cls-22">
                  <path class="cls-7" d="M1218.4,93.1l-2-4.3c-.5-1.1-1-1.8-1.6-2.3s-1.2-.7-1.8-.5c-.6.2-.9.6-1,1.3,0,.7.2,1.6.7,2.7l2.4,5.2c.5,1,1,1.8,1.6,2.3.5.5,1.1.6,1.6.5v-4.9h.1ZM1217.8,96.2c-.2,0-.5,0-.7-.3s-.5-.7-.7-1.2l-2.3-5.1c-.2-.5-.4-.9-.4-1.3s0-.6.3-.6.5,0,.7.3.5.7.7,1.2l2.3,5.1c.5,1.1.6,1.8.2,1.9h0Z"/>
                </g>
                <path class="cls-5" d="M1012.1,298.3c0,.1-.3.4-.8.9-.4.4-.6.6-.6.6l-.7-1.6c.3-.3.6-.7.9-1.2.3-.5.5-.9.6-1.3l1.4-.8,5.6,12.2-1.8,1.1-4.5-9.9h-.1Z"/>
                <path class="cls-7" d="M1109.5,137.8s-.2.3-.6.5c-.3.2-.4.4-.4.4l-.6-1.3c.2-.2.4-.5.6-.8s.3-.6.4-.9l1-.4,4.7,10.4-1.3.5-3.9-8.4h.1Z"/>
                <g class="cls-2">
                  <path class="cls-7" d="M856.1,330.7c-3.5-1.4-6.2-4.2-8.2-8.4l-9.7-21.2c-2-4.4-2.4-8.3-1.2-11.8,1.2-3.4,4.1-6.1,8.8-8.1,4.5-1.9,8.4-2.1,11.8-.6,3.3,1.5,6,4.3,7.9,8.5l9.4,20.5c1.9,4.1,2.3,7.9,1.2,11.4s-3.8,6.4-8.1,8.5c-4.4,2.1-8.3,2.5-11.8,1.2h-.1ZM866.1,313.7l-9.4-20.5c-.9-2-2-3.6-3.2-4.6s-2.7-1.2-4.5-.4c-1.9.8-2.8,2-2.8,3.5s.5,3.4,1.4,5.5l9.5,20.8c.9,1.9,2,3.4,3.2,4.4,1.3,1,2.8,1.1,4.5.3,3-1.4,3.4-4.4,1.4-9h-.1Z"/>
                </g>
                <path class="cls-3" d="M477.2,444.3c-.4.4-2,1.5-4.8,3.3-2.3,1.5-3.4,2.3-3.5,2.3l-2.1-4.6c1.8-1.2,3.6-2.7,5.6-4.4,2-1.7,3.3-3.1,4-4.3l7.6-3.2,16.2,35.3-9.8,4.5-13.2-28.9h0Z"/>
                <g class="cls-15">
                  <path class="cls-7" d="M932.8,256.5c-3.1-1.5-5.5-4.3-7.4-8.2l-9.2-20c-1.9-4.1-2.4-7.7-1.5-10.8.9-3,3.3-5.3,7.3-6.7,3.9-1.4,7.3-1.3,10.2.3s5.3,4.4,7.1,8.3l8.9,19.4c1.8,3.8,2.2,7.3,1.4,10.4-.8,3.1-3.1,5.5-6.8,7.1-3.7,1.6-7.1,1.7-10.2.2h.2ZM940.8,241.7l-8.9-19.4c-.9-1.9-1.9-3.4-2.9-4.4-1.1-1-2.4-1.2-3.9-.7-1.6.6-2.4,1.6-2.3,3,0,1.4.5,3.1,1.4,5.1l9,19.6c.8,1.8,1.8,3.2,3,4.2,1.1,1,2.4,1.2,3.9.6,2.5-1.1,2.8-3.8.9-8.1h-.2Z"/>
                </g>
                <g class="cls-23">
                  <path class="cls-7" d="M742.3,286.9c-3.1-1.2-5.5-3.6-7-7l-7.9-17.2c-1.6-3.6-1.8-6.7-.6-9.4s4-4.8,8.3-6.2c4.2-1.4,7.8-1.4,10.8-.1,3,1.3,5.2,3.6,6.8,7.1l7.7,16.7c1.5,3.3,1.7,6.4.5,9.1-1.2,2.8-3.8,4.9-7.8,6.5-4.1,1.5-7.7,1.7-10.8.5ZM752.1,273.6l-7.6-16.7c-.8-1.7-1.7-2.9-2.7-3.8-1.1-.9-2.4-1-4.1-.4-1.7.6-2.6,1.5-2.7,2.7,0,1.3.3,2.7,1,4.4l7.7,16.9c.7,1.6,1.6,2.8,2.7,3.6,1.1.9,2.5,1,4,.4,2.8-1,3.3-3.4,1.6-7.1h0Z"/>
                </g>
                <g class="cls-22">
                  <path class="cls-7" d="M1141.5,157.6c-1-.7-1.8-1.8-2.5-3.3l-3.5-7.7c-.7-1.6-1-2.9-.9-4.1,0-1.1.7-1.9,1.8-2.3,1.1-.4,2.1-.2,3,.5s1.8,1.8,2.5,3.4l3.5,7.6c.7,1.5,1,2.8.9,4,0,1.1-.7,1.9-1.7,2.3-1,.4-2,.3-3-.4h-.1ZM1143.2,152.5l-3.5-7.6c-.3-.8-.7-1.3-1.1-1.8-.4-.4-.8-.6-1.2-.4-.4.2-.6.5-.5,1,0,.5.3,1.2.6,1.9l3.5,7.6c.3.7.7,1.3,1.1,1.7s.8.6,1.2.4c.7-.3.7-1.3,0-3v.2Z"/>
                </g>
                <g class="cls-15">
                  <path class="cls-7" d="M144.3,485l-.3-.6c-3.6-7.9-10.4-12.7-20.6-14.5-10.3-1.8-23.8,0-40.6,5.8-8.5,2.9-15.8,6-21.7,9.3h83.2Z"/>
                </g>
                <path class="cls-5" d="M1161.5,204.5c0,.3-.6.9-1.4,1.8-.7.8-1,1.3-1,1.3l-1.7-3.8c.5-.7,1-1.6,1.5-2.6s.8-1.9.9-2.8l2.6-1.4,13.6,29.6-3.3,2-11.1-24.2h0Z"/>
                <g class="cls-13">
                  <path class="cls-7" d="M1194.8,215.2c-1.5-1-2.8-2.8-3.9-5.2l-5.7-12.5c-1.2-2.6-1.7-4.8-1.6-6.6,0-1.9.9-3.2,2.5-4,1.5-.8,3-.7,4.4.4,1.4,1,2.7,2.8,3.8,5.3l5.6,12.2c1.1,2.4,1.6,4.6,1.5,6.5,0,1.9-.9,3.3-2.3,4.2-1.5.9-2.9.8-4.4-.2h0ZM1196.9,206.4l-5.6-12.1c-.6-1.2-1.1-2.1-1.7-2.8s-1.1-.8-1.8-.5c-.6.3-.9.9-.7,1.8,0,.9.5,1.9,1.1,3.1l5.6,12.2c.5,1.1,1.1,2,1.7,2.7s1.2.8,1.7.5c1-.6.9-2.2-.3-4.9h0Z"/>
                </g>
                <g class="cls-2">
                  <path class="cls-7" d="M924.2,324.5c-3.6-1.5-6.5-4.6-8.6-9.3l-10.7-23.4c-2.2-4.8-2.8-9.1-1.7-12.9s4-6.7,8.7-8.7c4.6-2,8.6-2.1,12-.5,3.5,1.7,6.2,4.8,8.3,9.4l10.3,22.5c2,4.5,2.6,8.6,1.6,12.5s-3.6,6.9-8,9.2c-4.4,2.3-8.4,2.7-12,1.2h.1ZM933.7,305.9l-10.3-22.6c-1-2.2-2.2-3.9-3.5-5.1-1.3-1.1-2.8-1.3-4.6-.5-1.9.8-2.8,2.1-2.7,3.8,0,1.7.6,3.7,1.6,6l10.5,22.9c1,2.1,2.1,3.7,3.5,4.9,1.3,1.1,2.9,1.3,4.6.4,3-1.5,3.3-4.8,1.1-9.8h-.2Z"/>
                </g>
                <g class="cls-19">
                  <path class="cls-7" d="M1209.7,108.9c-1-.9-1.9-2.2-2.8-4l-4.1-8.9c-.8-1.8-1.2-3.4-1.2-4.6s.6-2,1.7-2.3,2.1,0,3.1.8c1,.9,1.9,2.2,2.7,4l4,8.8c.8,1.8,1.2,3.2,1.1,4.5,0,1.2-.6,2.1-1.6,2.4-1,.4-2,0-3.1-.7h.2ZM1211.1,103.4l-4-8.8c-.4-.9-.8-1.6-1.2-2.1-.4-.5-.8-.7-1.2-.6-.4,0-.6.5-.5,1.1s.4,1.3.8,2.2l4,8.8c.4.8.8,1.5,1.2,2,.4.5.8.7,1.2.6.7-.3.6-1.4-.3-3.3h0Z"/>
                </g>
                <path class="cls-8" d="M940.7,374.9c0,.2-.6.7-1.4,1.5-.6.7-1,1-1,1l-1-2.3c.5-.6,1-1.2,1.5-2s.9-1.5,1-2l2.3-1.4,8.2,17.9-3,1.9-6.7-14.5h.1Z"/>
                <g class="cls-17">
                  <path class="cls-7" d="M1150.7,274.1c-.6-.4-1.1-1-1.6-2l-2.2-4.8c-.5-1-.7-1.9-.6-2.7,0-.8.4-1.4,1.1-1.8s1.3-.4,1.9,0,1.1,1,1.6,2l2.2,4.8c.4,1,.6,1.8.6,2.6s-.4,1.4-1,1.8-1.2.5-1.8,0h-.2ZM1151.8,270.4l-2.2-4.8c-.2-.5-.4-.8-.7-1.1s-.5-.3-.7-.1c-.3.2-.4.4-.3.8,0,.4.2.8.4,1.2l2.2,4.8c.2.4.4.8.7,1,.2.2.5.3.7.1.4-.3.4-1,0-2h0Z"/>
                </g>
                <g class="cls-17">
                  <path class="cls-7" d="M497.4,485h27.2l-10.8-23.6c-1.6-3.5-2.2-6.7-1.7-9.6s2.9-5.3,7.4-7.3c4.3-1.9,7.7-2.1,10.2-.6s4.5,4,6.1,7.5l15.4,33.6h23.3c0-2.9-.9-5.9-2.2-8.8l-15.7-34.4c-3.2-7-8.3-11.4-15.4-13.2-7.2-1.8-16.1-.4-26.9,4.2-11.3,4.8-18.8,10.6-22.5,17.2-3.7,6.7-3.9,13.9-.4,21.4l6.2,13.6h-.2Z"/>
                </g>
                <path class="cls-8" d="M637.2,292.7c-.4.4-1.8,1.3-4.5,2.8-2.1,1.3-3.2,2-3.2,2l-2.3-5c1.6-1.1,3.4-2.4,5.2-3.9s3-2.9,3.6-4l7.2-2.4,17.8,38.8-9.3,3.5-14.5-31.8Z"/>
                <g class="cls-15">
                  <path class="cls-7" d="M1129.2,96.4c-1.1-.8-2-2.1-2.7-3.7l-3.8-8.4c-.8-1.7-1.1-3.2-1-4.3,0-1.1.8-1.8,2-2.1,1.2-.3,2.3,0,3.3.8s1.9,2.1,2.7,3.8l3.8,8.3c.8,1.6,1.1,3,.9,4.2,0,1.2-.8,1.9-1.9,2.2-1.1.3-2.2,0-3.3-.7h0ZM1131.2,91.3l-3.8-8.2c-.4-.8-.8-1.5-1.2-1.9-.4-.5-.8-.7-1.3-.5-.5,0-.7.5-.6,1,0,.6.3,1.2.7,2.1l3.8,8.2c.3.8.7,1.4,1.1,1.9s.8.7,1.3.5c.8-.2.8-1.2,0-3.1Z"/>
                </g>
                <g class="cls-23">
                  <path class="cls-7" d="M473.6,485c-2.7-4.5-6.7-7.3-12.1-8.4-6.3-1.3-14.1.1-23.7,4.4-2.9,1.3-5.5,2.6-7.9,4h43.7Z"/>
                </g>
                <path class="cls-5" d="M828.1,174.8c-.2.3-1.2.9-2.9,1.8-1.4.8-2.1,1.3-2.1,1.3l-1.9-4.1c1.1-.7,2.2-1.6,3.3-2.6,1.2-1,1.9-2,2.3-2.9l4.9-1.3,14.7,32.1-6.2,1.9-12-26.3h0Z"/>
                <g class="cls-12">
                  <path class="cls-7" d="M913.6,155.6c-1.5-.9-2.7-2.2-3.5-4.1l-4.3-9.5c-.9-1.9-1.1-3.6-.7-4.9.4-1.3,1.6-2.3,3.5-2.7,1.9-.5,3.5-.3,5,.6,1.4.9,2.6,2.2,3.5,4.1l4.3,9.3c.8,1.8,1.1,3.5.6,4.8-.4,1.4-1.6,2.3-3.4,2.8-1.8.5-3.5.4-5-.5h0ZM917.7,149.4l-4.2-9.3c-.4-.9-.9-1.6-1.4-2.2-.5-.5-1.2-.7-1.9-.5-.8.2-1.1.6-1.1,1.3s.2,1.4.7,2.4l4.3,9.3c.4.9.9,1.5,1.4,2.1.6.5,1.2.7,1.9.5,1.3-.4,1.4-1.6.5-3.6h-.2Z"/>
                </g>
                <path class="cls-3" d="M537.1,252.8c-.4.4-2.3,1.4-5.5,2.9-2.6,1.3-4,2-4,2.1l-2.6-5.6c2-1.1,4.2-2.5,6.4-4.1,2.3-1.6,3.8-3,4.6-4.3l8.8-2.3,19.7,43-11.3,3.5-16.1-35.2h0Z"/>
                <path class="cls-1" d="M1199.4,118.5c0,.2-.3.5-.8,1-.4.4-.6.7-.6.7l-1.2-2.5c.3-.4.6-.9.9-1.4.3-.6.5-1.1.5-1.6l1.6-.6,9,19.6-2,.9-7.3-16h0Z"/>
                <g class="cls-13">
                  <path class="cls-7" d="M1054.8,130.6c-.5-.3-.9-.9-1.2-1.6l-1.7-3.7c-.3-.8-.5-1.4-.4-1.9,0-.5.4-.9,1-1,.6-.2,1.1,0,1.6.3s.9.9,1.2,1.6l1.7,3.6c.3.7.4,1.3.3,1.9,0,.5-.4.9-1,1-.6.2-1.1,0-1.6-.2h0ZM1055.9,128.3l-1.6-3.6c-.2-.4-.3-.6-.5-.8-.2-.2-.4-.3-.6-.2-.2,0-.3.2-.3.5s0,.6.3.9l1.6,3.6c.2.3.3.6.5.8s.4.3.6.2c.4-.1.4-.6,0-1.4h0Z"/>
                </g>
                <path class="cls-3" d="M966.9,197.4c-.2.3-1.1,1.1-2.8,2.3-1.3,1-2,1.6-2,1.6l-2.3-4.9c1-.9,2.1-2,3.2-3.3,1.1-1.3,1.8-2.5,2-3.5l4.8-1.7,17.5,38.2-6.1,2.6-14.3-31.3h0Z"/>
                <path class="cls-1" d="M1118.2,160.8s-.2.3-.6.6c-.3.3-.4.4-.4.4l-.6-1.4c.2-.2.4-.5.6-.8s.3-.6.4-.9l1-.4,4.9,10.6-1.3.6-4-8.7h0Z"/>
                <path class="cls-4" d="M946.6,268.6c0,.1-.4.4-1,1-.5.4-.7.7-.7.7l-.8-1.8c.4-.4.8-.8,1.2-1.3s.7-1,.8-1.4l1.8-.8,6.3,13.9-2.3,1.1-5.2-11.3h0Z"/>
                <path class="cls-10" d="M711.3,385.1c-.4.5-2.2,2-5.4,4.3-2.5,2-3.8,3-3.9,3l-3-6.5c2-1.6,4-3.6,6.2-5.8,2.1-2.2,3.6-4.1,4.3-5.8l8.7-3.9,23,50.2-11,5.8-18.9-41.2h0Z"/>
                <path class="cls-6" d="M1110,201.5c0,.3-.7.9-1.7,1.9-.8.9-1.2,1.3-1.2,1.3l-1.8-4c.6-.7,1.2-1.6,1.9-2.7.6-1.1,1-2,1.1-2.9l3.1-1.4,14.3,31.2-3.9,2.1-11.7-25.5h-.1Z"/>
                <g class="cls-13">
                  <path class="cls-7" d="M985.2,286.2c-2.6-1.3-4.7-3.7-6.3-7.2l-8.1-17.8c-1.7-3.7-2.2-6.9-1.5-9.7s2.6-4.9,5.9-6.4c3.2-1.4,6-1.4,8.6,0,2.5,1.3,4.6,3.8,6.2,7.3l7.9,17.3c1.6,3.4,2,6.6,1.4,9.4-.6,2.9-2.5,5.1-5.5,6.7-3.1,1.6-5.9,1.8-8.5.5h-.1ZM991.5,272.5l-7.9-17.3c-.8-1.7-1.6-3-2.6-3.9-.9-.9-2-1-3.3-.5-1.3.6-1.9,1.5-1.9,2.8s.5,2.8,1.3,4.5l8,17.4c.7,1.6,1.6,2.9,2.6,3.8s2.1,1,3.3.4c2.1-1.1,2.3-3.5.5-7.3h0Z"/>
                </g>
                <path class="cls-11" d="M766.8,265.9c-.3.3-1.4,1.1-3.4,2.4-1.6,1.1-2.4,1.6-2.4,1.7l-2-4.4c1.2-.9,2.5-2,3.9-3.3,1.3-1.3,2.2-2.4,2.7-3.4l5.5-1.9,15.6,34-7.1,2.8-12.7-27.8h0Z"/>
                <path class="cls-9" d="M1090,68c0,0-.3.3-.8.6-.4.3-.6.4-.6.4l-.8-1.8c.3-.2.6-.6.9-.9.3-.4.5-.7.5-1.1l1.5-.3,6.6,14.4-1.9.4-5.4-11.7h0Z"/>
                <path class="cls-9" d="M971.9,236.7c0,.1-.4.4-1,.9-.4.4-.7.6-.7.6l-.8-1.7c.3-.3.7-.7,1.1-1.2.4-.5.6-.9.7-1.3l1.6-.7,6,13.2-2.1.9-4.9-10.8h.1Z"/>
                <path class="cls-5" d="M957.3,186.1c-.2.3-1.1,1-2.6,2.1-1.2.9-1.9,1.4-1.9,1.5l-2.1-4.6c1-.8,1.9-1.8,3-3,1-1.2,1.7-2.2,1.9-3.2l4.5-1.5,16.1,35.2-5.7,2.2-13.2-28.8h0Z"/>
                <g class="cls-13">
                  <path class="cls-7" d="M946.1,335c-1.2-.5-2.1-1.5-2.9-3.1l-3.6-7.8c-.7-1.6-.9-3.1-.6-4.4.3-1.3,1.3-2.4,2.8-3.2,1.5-.8,2.8-.9,4-.4s2.1,1.6,2.8,3.1l3.5,7.7c.7,1.5.9,3,.6,4.3-.3,1.3-1.2,2.4-2.7,3.2-1.4.8-2.8,1-4,.5h.1ZM949.2,328.6l-3.5-7.7c-.3-.8-.7-1.3-1.2-1.7-.4-.4-.9-.4-1.5,0-.6.3-.9.8-.9,1.4s.2,1.3.6,2l3.5,7.7c.3.7.7,1.3,1.2,1.6.4.4,1,.4,1.5.1,1-.5,1.1-1.7.3-3.4h0Z"/>
                </g>
                <path class="cls-3" d="M1152.4,133.9s-.2.3-.6.6c-.3.3-.4.4-.4.4l-.7-1.6c.2-.2.4-.6.6-.9.2-.4.3-.7.4-1l1.1-.4,5.6,12.2-1.4.6-4.5-9.9h0Z"/>
                <g class="cls-17">
                  <path class="cls-7" d="M1069.7,301c-1.8-.9-3.3-2.7-4.5-5.4l-6.1-13.3c-1.3-2.7-1.7-5.2-1.4-7.3.3-2.1,1.6-3.8,3.7-5,2.1-1.1,4-1.2,5.7-.3,1.7,1,3.2,2.8,4.4,5.4l6,13c1.2,2.6,1.6,5,1.3,7.2-.3,2.2-1.5,3.9-3.5,5.1s-3.9,1.4-5.7.5h0ZM1073.5,290.6l-5.9-13c-.6-1.3-1.2-2.3-1.9-2.9-.7-.7-1.4-.8-2.2-.3-.9.5-1.2,1.2-1.1,2.2,0,1,.4,2.1,1,3.4l6,13.1c.6,1.2,1.2,2.1,1.9,2.8.7.7,1.4.8,2.2.3,1.4-.8,1.4-2.7,0-5.6Z"/>
                </g>
                <path class="cls-5" d="M1198.8,209.7c0,.2-.3.6-.9,1.3-.4.6-.6.9-.6.9l-1.2-2.6c.3-.5.6-1.1.9-1.8s.5-1.3.5-1.9l1.7-1,9.3,20.4-2.1,1.4-7.6-16.6h0Z"/>
                <g class="cls-12">
                  <path class="cls-7" d="M805.2,388.3c-1.6-.5-2.8-1.7-3.7-3.6l-4.3-9.3c-.9-1.9-1-3.7-.5-5.3.6-1.6,1.9-3,4.1-4,2.1-1.1,4-1.3,5.5-.7,1.6.6,2.8,1.8,3.6,3.7l4.2,9.2c.8,1.8,1,3.6.4,5.2-.6,1.7-1.9,3-4,4.1s-3.9,1.4-5.5.8h.2ZM810,380.2l-4.2-9.1c-.4-.9-.9-1.6-1.5-2s-1.3-.4-2.1,0c-.9.4-1.3,1-1.3,1.7s.2,1.5.6,2.5l4.2,9.2c.4.8.9,1.5,1.5,1.9s1.3.4,2.1,0c1.4-.7,1.7-2.1.7-4.2Z"/>
                </g>
                <path class="cls-8" d="M1045.6,177.5s-.3.3-.6.6c-.3.3-.4.4-.5.4l-.6-1.3c.2-.2.5-.5.7-.8s.4-.6.4-.9l1.1-.4,4.6,10-1.4.6-3.7-8.2h0Z"/>
                <path class="cls-10" d="M1141.2,295.3s-.2.3-.4.6c-.2.3-.3.4-.3.4l-.5-1c0-.2.3-.5.4-.8s.2-.6.2-.8l.7-.5,3.5,7.7-.9.7-2.9-6.3h.2Z"/>
                <path class="cls-7" d="M937.2,433.3c-.9-.3-1.7-1.1-2.2-2.3l-2.8-6.1c-.6-1.3-.7-2.4-.5-3.5.3-1.1,1-2,2.2-2.8s2.2-1,3.1-.7c.9.3,1.7,1.1,2.2,2.3l2.8,6c.5,1.2.7,2.4.4,3.5s-1,2.1-2.1,2.9-2.2,1-3.1.7h0ZM939.6,427.7l-2.7-6c-.3-.6-.6-1-.9-1.3-.3-.3-.7-.2-1.2,0-.5.3-.7.7-.7,1.2s.2,1,.4,1.6l2.7,6c.3.6.6,1,.9,1.2.3.3.7.3,1.2,0,.8-.5.9-1.5.3-2.8h0Z"/>
                <path class="cls-11" d="M847.9,132.9c0,.1-.6.4-1.4.8-.7.4-1,.6-1,.6l-.9-2c.5-.3,1-.7,1.6-1.2s.9-.9,1.1-1.3l2.4-.5,7.3,16-3,.8-6-13v-.2Z"/>
                <g class="cls-17">
                  <path class="cls-7" d="M965.4,128.1c-.5-.3-1-.9-1.3-1.6l-1.7-3.6c-.3-.8-.4-1.4-.3-1.9,0-.5.6-.9,1.2-1,.7-.2,1.3,0,1.8.3s1,.9,1.3,1.6l1.7,3.6c.3.7.4,1.3.3,1.9,0,.5-.5.9-1.2,1-.7.2-1.3,0-1.8-.3ZM966.8,125.8l-1.6-3.6c-.2-.4-.3-.6-.5-.8-.2-.2-.4-.3-.7-.2-.3,0-.4.2-.4.5s0,.6.3.9l1.6,3.6c.2.3.3.6.5.8.2.2.4.3.7.2.5,0,.5-.6,0-1.4h0Z"/>
                </g>
                <path class="cls-6" d="M1186.5,299.3s0,.2-.2.4c0,.2-.2.3-.2.3l-.3-.7c0-.1.2-.3.3-.5,0-.2,0-.4,0-.6l.5-.3,2.5,5.4-.6.5-2-4.4h-.1Z"/>
                <path class="cls-4" d="M43.2,283.3c-.5.3-2.5,1.1-6.1,2.3-2.8,1-4.3,1.6-4.4,1.6l-1.9-4.1c2.2-.9,4.6-1.9,7.1-3.1s4.3-2.3,5.2-3.2l9.4-1.9,14.4,31.6-12.1,2.7-11.8-25.8h.2Z"/>
                <g class="cls-20">
                  <path class="cls-7" d="M1153.1,99.8c-.5-.4-.9-1-1.3-1.7l-1.8-3.9c-.4-.8-.5-1.5-.5-2s.3-.9.9-1c.5,0,1,0,1.5.4s.9,1,1.3,1.8l1.8,3.9c.4.8.5,1.4.5,2s-.3.9-.8,1.1-1,0-1.5-.3v-.3ZM1153.9,97.4l-1.8-3.9c-.2-.4-.4-.7-.5-.9-.2-.2-.4-.3-.6-.2-.2,0-.3.2-.3.5s.2.6.3,1l1.8,3.9c.2.4.3.6.5.9.2.2.4.3.6.3.4,0,.3-.6,0-1.4v-.2Z"/>
                </g>
                <g class="cls-12">
                  <path class="cls-7" d="M978.9,311.1c-1.1-.5-2-1.5-2.7-3l-3.4-7.4c-.7-1.5-.9-2.9-.6-4.1.3-1.2,1.1-2.2,2.5-2.9,1.3-.7,2.6-.8,3.6-.3,1.1.5,2,1.5,2.6,3l3.4,7.4c.7,1.5.9,2.8.6,4.1-.3,1.2-1.1,2.2-2.4,2.9-1.3.7-2.5.8-3.6.3h0ZM981.6,305.2l-3.3-7.3c-.3-.7-.7-1.3-1.1-1.6-.4-.4-.9-.4-1.4-.1-.6.3-.8.7-.8,1.3s.2,1.2.5,1.9l3.4,7.3c.3.7.7,1.2,1.1,1.6.4.4.9.4,1.4.1.9-.5,1-1.5.2-3.2h0Z"/>
                </g>
                <path class="cls-8" d="M1203.9,229.7s0,.2-.3.5c-.2.2-.2.3-.2.3l-.4-1c0-.2.2-.4.3-.7,0-.3.2-.5.2-.7l.6-.4,3.4,7.5-.8.5-2.8-6.1h0Z"/>
                <g class="cls-23">
                  <path class="cls-7" d="M991,329.1c-1.2-.5-2.1-1.6-2.8-3.2l-3.7-8c-.8-1.6-1-3.1-.7-4.5.3-1.3,1.2-2.4,2.6-3.2,1.4-.8,2.7-.9,3.8-.4s2.1,1.6,2.8,3.2l3.6,7.9c.7,1.6.9,3,.6,4.4-.3,1.4-1.1,2.4-2.5,3.2-1.4.8-2.7,1-3.8.4v.2ZM993.9,322.6l-3.6-7.8c-.4-.8-.7-1.4-1.2-1.7-.4-.4-.9-.4-1.5-.1s-.9.8-.8,1.4c0,.6.2,1.3.6,2.1l3.6,7.9c.3.7.7,1.3,1.2,1.7.4.4.9.4,1.5.1.9-.6,1-1.7.2-3.4v-.2Z"/>
                </g>
                <path class="cls-6" d="M997.4,160.8c0,.1-.4.4-.9.7-.4.3-.7.5-.7.5l-.8-1.7c.3-.3.7-.6,1-1.1.4-.4.6-.8.7-1.2l1.6-.5,6.2,13.5-2.1.7-5-11h0Z"/>
                <path class="cls-3" d="M245.4,283.9c-.2.1-.9.5-2.3,1-1.1.4-1.6.7-1.6.7l-.8-1.8c.8-.4,1.7-.8,2.7-1.4.9-.5,1.6-1,1.9-1.4l3.6-.8,6.3,13.9-4.7,1.2-5.2-11.3h.1Z"/>
                <path class="cls-1" d="M738.7,416.9c-.2.3-.9.9-2.3,2-1.1.9-1.6,1.4-1.7,1.4l-1.3-2.9,2.7-2.7c.9-1,1.5-1.9,1.8-2.7l3.8-1.9,10.4,22.7-4.9,2.7-8.5-18.5h0Z"/>
                <g class="cls-2">
                  <path class="cls-7" d="M1016.2,372.9c-.7-.3-1.3-1-1.8-2l-2.3-5.1c-.5-1-.6-2-.5-2.9.2-.9.7-1.6,1.6-2.2.9-.6,1.7-.7,2.4-.4.7.3,1.3,1,1.8,2l2.3,5c.5,1,.6,1.9.4,2.8-.2.9-.7,1.6-1.5,2.2s-1.6.7-2.3.4v.2ZM1017.9,368.6l-2.3-5c-.2-.5-.5-.9-.7-1.1-.3-.2-.6-.2-.9,0-.4.2-.5.5-.5.9s.2.8.4,1.3l2.3,5c.2.5.5.8.7,1,.3.2.6.2.9,0,.6-.4.6-1.1,0-2.2h0Z"/>
                </g>
                <path class="cls-3" d="M1104.7,238.9c0,.2-.4.5-1,1.2-.5.5-.7.8-.7.8l-1-2.3c.4-.4.7-1,1.1-1.6s.6-1.2.6-1.7l1.8-.9,8.2,17.8-2.3,1.3-6.6-14.5h0Z"/>
                <path class="cls-11" d="M932.7,94s-.2,0-.5.3c-.2,0-.3.2-.3.2l-.4-.8c.2,0,.3-.2.5-.4.2-.2.3-.3.3-.5l.8-.2,2.8,6-1,.2-2.2-4.9h0Z"/>
                <path class="cls-7" d="M801.2,143.9c-1.1-.6-1.9-1.5-2.5-2.7l-2.8-6.2c-.6-1.3-.7-2.4-.3-3.2.4-.9,1.3-1.5,2.8-1.8,1.4-.3,2.7-.2,3.7.4,1,.6,1.9,1.5,2.4,2.7l2.8,6.2c.6,1.2.6,2.3.3,3.2-.4.9-1.3,1.5-2.7,1.8s-2.6.2-3.7-.4ZM804.4,139.9l-2.8-6.1c-.3-.6-.6-1.1-1-1.4-.4-.3-.8-.5-1.4-.3-.6.1-.9.4-.9.8s0,.9.4,1.6l2.8,6.1c.3.6.6,1,1,1.4.4.3.9.5,1.4.3,1-.2,1.1-1,.5-2.4h0Z"/>
                <g class="cls-22">
                  <path class="cls-7" d="M1203,53.2c-.6-.6-1.2-1.4-1.7-2.4l-2.4-5.4c-.5-1.1-.7-2-.7-2.7s.4-1.1,1-1.2c.6,0,1.3,0,1.9.6s1.2,1.4,1.7,2.5l2.4,5.3c.5,1.1.7,1.9.7,2.6s-.4,1.1-1,1.3c-.6,0-1.2,0-1.9-.6ZM1203.9,50.1l-2.4-5.3c-.2-.5-.5-.9-.7-1.3-.2-.3-.5-.4-.7-.4-.3,0-.4.3-.3.6,0,.4.2.8.5,1.3l2.4,5.3c.2.5.5.9.7,1.2.3.3.5.5.7.4.4,0,.4-.7-.2-1.9h0Z"/>
                </g>
                <g class="cls-19">
                  <path class="cls-7" d="M971.7,297.1c-1.1-.5-2-1.6-2.7-3.1l-3.5-7.6c-.7-1.6-.9-3-.6-4.2.3-1.2,1.1-2.2,2.6-2.9,1.4-.7,2.6-.7,3.7-.2,1.1.5,2,1.6,2.7,3.1l3.4,7.5c.7,1.5.9,2.9.6,4.1-.3,1.3-1.1,2.2-2.5,2.9-1.4.7-2.6.8-3.7.3h0ZM974.6,291.2l-3.4-7.4c-.3-.7-.7-1.3-1.1-1.7-.4-.4-.9-.4-1.4-.2-.6.3-.8.7-.8,1.3s.2,1.2.6,2l3.4,7.5c.3.7.7,1.2,1.1,1.6.4.4.9.4,1.4.2.9-.5,1-1.5.3-3.2h0Z"/>
                </g>
                <path class="cls-11" d="M1004.7,193.8s-.3.3-.7.6c-.3.3-.5.4-.5.4l-.6-1.3c.2-.2.5-.5.8-.9.3-.3.4-.7.5-.9l1.2-.5,4.7,10.3-1.6.6-3.8-8.3h0Z"/>
                <g class="cls-23">
                  <path class="cls-7" d="M1020.4,208.9c-2.4-1.4-4.4-3.8-5.9-7.1l-7.7-16.9c-1.6-3.5-2.1-6.5-1.6-9s2.3-4.2,5.2-5.3c2.9-1,5.4-.8,7.8.7,2.3,1.4,4.2,3.8,5.8,7.2l7.5,16.4c1.5,3.3,2,6.2,1.5,8.7-.5,2.6-2.1,4.4-4.9,5.6-2.8,1.2-5.3,1.1-7.7-.3h0ZM1025.9,197l-7.5-16.4c-.7-1.6-1.6-2.9-2.4-3.8-.9-.9-1.9-1.1-3-.7-1.2.4-1.7,1.2-1.6,2.4,0,1.2.5,2.6,1.3,4.2l7.6,16.6c.7,1.5,1.5,2.7,2.4,3.6.9.9,1.9,1.1,3,.7,1.9-.8,2-3,.3-6.6h0Z"/>
                </g>
                <g class="cls-12">
                  <path class="cls-7" d="M1215.5,275.8c-.6-.4-1-1-1.5-2l-2.2-4.8c-.5-1-.7-1.9-.6-2.7,0-.8.3-1.4.9-1.8s1.1-.4,1.7,0c.5.4,1,1,1.5,2l2.2,4.8c.4,1,.6,1.8.6,2.6s-.3,1.4-.9,1.8c-.5.4-1.1.5-1.6.1h0ZM1216.3,272.1l-2.2-4.7c-.2-.5-.4-.8-.6-1.1-.2-.2-.4-.3-.7-.1-.2.2-.3.4-.3.8s.2.8.4,1.2l2.2,4.8c.2.4.4.8.6,1s.4.3.7.1c.4-.3.3-1-.2-2h0Z"/>
                </g>
                <path class="cls-7" d="M1199.4,286.2s0,.2-.3.5c0,.2-.2.3-.2.3l-.4-.8c0-.2.2-.4.3-.6,0-.2,0-.5.2-.7l.5-.4,2.9,6.4-.7.5-2.4-5.2h0Z"/>
                <g class="cls-22">
                  <path class="cls-7" d="M1168,113.2c-.8-.6-1.5-1.6-2.1-2.9l-3-6.6c-.6-1.4-.9-2.5-.8-3.4,0-.9.5-1.5,1.4-1.8s1.7,0,2.4.6c.8.6,1.5,1.6,2.1,2.9l3,6.5c.6,1.3.8,2.4.8,3.3s-.5,1.5-1.3,1.8-1.6,0-2.4-.5h0ZM1169.3,109.1l-2.9-6.4c-.3-.6-.6-1.1-.9-1.5s-.6-.5-1-.4c-.3,0-.5.4-.4.8,0,.4.3,1,.6,1.6l3,6.5c.3.6.6,1.1.9,1.5s.6.5,1,.4c.6-.2.5-1,0-2.4h-.2Z"/>
                </g>
                <path class="cls-11" d="M1080.1,85.4s-.3.3-.7.5c-.3.2-.5.4-.5.4l-.7-1.5c.2-.2.5-.5.8-.8s.4-.6.5-.9l1.2-.3,5.4,11.9-1.6.4-4.4-9.7h0Z"/>
                <g class="cls-22">
                  <path class="cls-7" d="M1163,164.3c-.8-.6-1.5-1.6-2.1-2.9l-3.1-6.7c-.6-1.4-.9-2.6-.8-3.5,0-1,.6-1.6,1.5-2s1.7-.2,2.5.4c.8.6,1.5,1.6,2.1,2.9l3,6.6c.6,1.3.9,2.5.8,3.5,0,1-.5,1.7-1.4,2.1-.9.4-1.7.3-2.5-.3h0ZM1164.3,159.8l-3-6.6c-.3-.7-.6-1.2-.9-1.5-.3-.4-.6-.5-1-.3s-.5.5-.4.9c0,.5.3,1,.6,1.7l3,6.6c.3.6.6,1.1.9,1.5s.7.5,1,.3c.6-.3.5-1.1,0-2.6h0Z"/>
                </g>
                <path class="cls-6" d="M1201.9,154.8s0,.2-.4.5c-.2.2-.3.3-.3.3l-.5-1.1c0-.2.3-.4.4-.7s.2-.5.2-.8l.7-.3,4,8.7-.9.4-3.2-7.1h0Z"/>
                <g class="cls-19">
                  <path class="cls-7" d="M971,415.4c-1.9-.7-3.5-2.3-4.6-4.9l-5.9-12.9c-1.2-2.7-1.6-5.1-1.1-7.4s2-4.2,4.4-5.7,4.5-1.9,6.3-1.2c1.9.7,3.4,2.4,4.6,5l5.8,12.7c1.2,2.5,1.5,4.9,1,7.3-.5,2.3-1.9,4.3-4.1,5.9-2.3,1.6-4.4,2.1-6.3,1.4v-.2ZM975.8,403.9l-5.8-12.6c-.6-1.3-1.2-2.2-1.9-2.8-.7-.6-1.5-.6-2.4,0-1,.6-1.4,1.4-1.4,2.5s.4,2.1.9,3.4l5.8,12.7c.5,1.2,1.2,2,1.9,2.6s1.5.6,2.4,0c1.6-1.1,1.7-3,.4-5.8h0Z"/>
                </g>
                <g class="cls-13">
                  <path class="cls-7" d="M707.9,344.3c-1.9-.7-3.4-2-4.3-4.1l-4.7-10.4c-1-2.1-1.1-4.1-.3-5.8.8-1.7,2.5-3.1,5.2-4.2,2.6-1,4.9-1.2,6.7-.5,1.9.7,3.3,2.1,4.2,4.1l4.7,10.2c.9,2,1,3.9.2,5.7-.8,1.8-2.4,3.2-5,4.3-2.6,1.1-4.8,1.3-6.7.7h0ZM714.2,335.8l-4.6-10.1c-.5-1-1-1.8-1.7-2.3s-1.5-.5-2.6-.1-1.7,1-1.7,1.8,0,1.7.6,2.7l4.7,10.2c.4.9,1,1.7,1.7,2.2s1.5.5,2.5.1c1.8-.7,2.1-2.2,1.1-4.5h0Z"/>
                </g>
                <path class="cls-1" d="M976.9,136.3s-.3.3-.8.6c-.4.3-.6.4-.6.4l-.7-1.4c.3-.2.6-.5.9-.8.3-.3.5-.7.6-.9l1.4-.4,5.1,11.2-1.8.5-4.1-9.1h0Z"/>
                <path class="cls-10" d="M637.8,213.2c-.2.2-1.3.8-3.1,1.7-1.4.7-2.2,1.1-2.2,1.2l-1.6-3.4c1.1-.6,2.3-1.4,3.5-2.3,1.2-.9,2.1-1.8,2.5-2.5l4.9-1.3,12.1,26.5-6.4,1.8-9.9-21.7h.2Z"/>
                <path class="cls-4" d="M971.8,338.2c-.2.3-.9,1.1-2.2,2.4-1,1.1-1.6,1.7-1.6,1.7l-1.8-3.9c.8-.9,1.6-2,2.5-3.3.8-1.3,1.4-2.4,1.6-3.3l3.8-2.1,13.9,30.4-4.8,3-11.4-24.8h0Z"/>
                <g class="cls-22">
                  <path class="cls-7" d="M933.1,216.6c-1.8-1-3.2-2.6-4.3-4.9l-5.4-11.7c-1.1-2.4-1.4-4.5-.9-6.3s1.9-3,4.3-3.8c2.3-.8,4.3-.6,6,.3,1.8,1,3.2,2.6,4.2,5l5.3,11.5c1,2.3,1.3,4.3.8,6.1s-1.9,3.1-4,3.9c-2.2.8-4.2.8-6-.2h0ZM937.9,208.2l-5.2-11.5c-.5-1.1-1.1-2-1.7-2.6-.6-.6-1.4-.8-2.3-.5-.9.3-1.4.9-1.4,1.7s.3,1.8.8,3l5.3,11.5c.5,1.1,1.1,1.9,1.7,2.5.7.6,1.4.8,2.3.5,1.5-.6,1.7-2.1.5-4.7h0Z"/>
                </g>
                <path class="cls-4" d="M1053.9,152c0,.1-.3.4-.8.7-.4.3-.6.5-.6.5l-.8-1.7c.3-.3.6-.6.9-1.1.3-.4.5-.8.6-1.2l1.5-.5,6.2,13.5-1.9.7-5-11h0Z"/>
                <g class="cls-12">
                  <path class="cls-7" d="M1084.6,236c-1.1-.6-2-1.8-2.7-3.4l-3.7-8.1c-.8-1.7-1.1-3.1-.9-4.4.2-1.2.9-2.2,2.2-2.8,1.2-.6,2.4-.6,3.4,0s1.9,1.8,2.7,3.4l3.7,8c.7,1.6,1,3,.8,4.3s-.9,2.2-2.1,2.8-2.3.6-3.4,0v.2ZM1086.8,230.1l-3.6-7.9c-.4-.8-.7-1.4-1.1-1.8-.4-.4-.8-.5-1.3-.3s-.7.7-.7,1.2.3,1.3.6,2.1l3.6,8c.3.7.7,1.3,1.1,1.7s.9.5,1.3.3c.8-.4.8-1.5,0-3.3h0Z"/>
                </g>
                <path class="cls-10" d="M1187.2,244.3c0,.2-.4.6-.9,1.3-.4.6-.6.9-.6.9l-1.2-2.6c.3-.5.6-1.1,1-1.9.3-.7.5-1.4.5-2l1.7-1.1,9.2,20.2-2.2,1.5-7.5-16.4h0Z"/>
                <path class="cls-11" d="M1017.9,94s0,0-.3.2-.2.2-.2.2l-.3-.6c0,0,.2-.2.4-.4,0,0,.2-.3.2-.4h.6c0,0,2.3,4.9,2.3,4.9l-.8.2s-1.9-4.1-1.9-4.1Z"/>
                <path class="cls-4" d="M1128.2,194.8c0,.3-.7,1-1.8,2.1-.9.9-1.3,1.4-1.3,1.5l-2-4.4c.6-.8,1.3-1.8,2-2.9.7-1.1,1-2.2,1.2-3.1l3.3-1.5,15.6,34.2-4.1,2.2-12.8-27.9v-.2Z"/>
                <g class="cls-23">
                  <path class="cls-7" d="M1109.4,231.1c-1.5-.9-2.7-2.5-3.7-4.7l-5.2-11.3c-1.1-2.3-1.5-4.4-1.3-6.1.2-1.7,1.2-3,2.9-3.8,1.7-.8,3.2-.7,4.6.2s2.7,2.5,3.7,4.8l5.1,11.1c1,2.2,1.4,4.2,1.2,5.9-.2,1.8-1.1,3.1-2.7,3.9-1.6.8-3.1.8-4.6,0h0ZM1112.2,222.9l-5.1-11.1c-.5-1.1-1-1.9-1.6-2.5-.5-.6-1.1-.7-1.8-.4-.7.3-1,.9-.9,1.7,0,.8.4,1.8.9,2.9l5.1,11.1c.5,1,1,1.8,1.6,2.4.6.6,1.2.7,1.8.4,1.1-.6,1.1-2.1,0-4.5h0Z"/>
                </g>
                <g class="cls-19">
                  <path class="cls-7" d="M1132.5,240.3c-.5-.3-1-.9-1.4-1.8l-2-4.3c-.4-.9-.6-1.7-.5-2.3,0-.7.4-1.2,1-1.5s1.2-.3,1.7,0,1,.9,1.4,1.8l2,4.3c.4.8.5,1.6.5,2.3s-.4,1.2-1,1.5-1.1.3-1.7,0ZM1133.5,237.2l-1.9-4.2c-.2-.4-.4-.7-.6-1-.2-.2-.4-.3-.7-.1-.2.1-.3.4-.3.7s.2.7.4,1.1l1.9,4.2c.2.4.4.7.6.9s.4.3.7.1c.4-.2.4-.8,0-1.7h0Z"/>
                </g>
                <g class="cls-2">
                  <path class="cls-7" d="M1189.8,66.8c-.3-.2-.5-.6-.7-1l-1-2.3c-.2-.5-.3-.8-.3-1.1s.2-.5.5-.6c.3,0,.5,0,.8.2s.5.6.7,1l1,2.3c.2.4.3.8.3,1.1s-.2.5-.4.6c-.3,0-.5,0-.8-.2h0ZM1190.2,65.5l-1-2.2c0-.2-.2-.4-.3-.5,0,0-.2-.2-.3-.2s-.2,0,0,.3c0,0,0,.3.2.6l1,2.2c0,.2.2.4.3.5,0,0,.2.2.3.2.2,0,.2-.3,0-.8h0Z"/>
                </g>
                <path class="cls-8" d="M745.1,439.2c-.2.4-1.3,1.3-3.2,2.8-1.5,1.3-2.2,2-2.3,2l-1.8-4c1.1-1.1,2.4-2.3,3.6-3.8,1.3-1.5,2.1-2.7,2.5-3.8l5.2-2.8,14.2,31-6.6,3.9-11.6-25.4h0Z"/>
                <path class="cls-4" d="M973.1,456.3c0,.2-.4.6-1,1.3-.5.6-.7.9-.7.9l-.8-1.8c.4-.5.7-1.1,1.1-1.8.4-.7.6-1.3.7-1.8l1.8-1.3,6.5,14.2-2.3,1.8-5.3-11.6h0Z"/>
                <g class="cls-23">
                  <path class="cls-7" d="M898.7,228.2c-.9-.4-1.5-1.2-2-2.3l-2.5-5.4c-.5-1.1-.6-2.1-.4-2.9.3-.8.9-1.4,2.1-1.8,1.1-.4,2.1-.4,2.9,0,.8.4,1.5,1.2,2,2.3l2.4,5.3c.5,1.1.6,2,.3,2.9-.3.8-.9,1.5-2,1.9s-2,.4-2.9,0h.1ZM901.1,224.3l-2.4-5.3c-.2-.5-.5-.9-.8-1.2s-.7-.3-1.1-.2c-.4.2-.7.4-.7.8s0,.8.4,1.4l2.4,5.3c.2.5.5.9.8,1.2s.7.3,1.1.2c.7-.3.8-1,.3-2.2Z"/>
                </g>
                <path class="cls-6" d="M938.5,157.9c-.2.2-.9.7-2.1,1.5-1,.7-1.5,1.1-1.5,1.1l-1.6-3.6c.8-.6,1.6-1.3,2.4-2.2.8-.9,1.4-1.7,1.6-2.4l3.6-1,12.8,27.9-4.7,1.5-10.4-22.8h0Z"/>
                <path class="cls-8" d="M1169.1,71c0,0-.3.3-.7.6-.3.3-.5.4-.5.4l-.8-1.9c.2-.2.5-.6.7-1s.4-.8.4-1.1l1.3-.3,6.6,14.5-1.6.5-5.4-11.8h0Z"/>
                <path class="cls-8" d="M656.4,344.8c-.3.4-1.6,1.3-3.9,2.7-1.9,1.3-2.8,1.9-2.8,2l-2-4.5c1.4-1,2.9-2.3,4.5-3.8s2.6-2.7,3.2-3.8l6.3-2.5,15.8,34.6-8.1,3.5-13-28.3h0Z"/>
                <g class="cls-23">
                  <path class="cls-7" d="M718.1,371c-2.9-.9-5.1-3-6.5-6.1l-7.2-15.7c-1.5-3.2-1.6-6.2-.5-8.9,1.2-2.7,3.8-4.8,7.8-6.5,3.9-1.6,7.3-1.9,10.1-.9s4.9,3.1,6.3,6.2l7,15.3c1.4,3,1.5,5.9.4,8.6s-3.6,5-7.4,6.7c-3.8,1.8-7.2,2.2-10.1,1.2h.1ZM727.4,357.8l-7-15.3c-.7-1.5-1.5-2.6-2.5-3.4-1-.7-2.3-.8-3.8-.1-1.6.7-2.5,1.6-2.6,2.8,0,1.2.2,2.6.9,4.1l7.1,15.4c.6,1.4,1.5,2.5,2.5,3.2s2.3.8,3.8,0c2.6-1.2,3.2-3.5,1.6-6.9v.2Z"/>
                </g>
              </g>
            </g>
          </g>
        </g>
      </g>
    </g>
  </g>
</svg>