<?xml version="1.0" encoding="UTF-8"?>
<svg xmlns="http://www.w3.org/2000/svg" version="1.1" viewBox="0 0 292.4 289.7">
  <defs>
    <style>
      .cls-1 {
        fill: #454543;
      }

      .cls-2 {
        fill: #7c161b;
      }
    </style>
  </defs>
  <!-- Generator: Adobe Illustrator 28.7.1, SVG Export Plug-In . SVG Version: 1.2.0 Build 142)  -->
  <g>
    <g id="Camada_1">
      <path class="cls-1" d="M158.5,144.4c.2-1.6-.8-2.5-2.7-2.7l-2.7-.3-.5,4.8,2.4.3c2.1.2,3.3-.5,3.4-2.1Z"/>
      <g>
        <path class="cls-2" d="M136.1,65.1c-2.9.9-3.5,4.3-1.8,10.3,1.5,5.6,3.7,8,6.4,7.2,1.5-.5,2.4-1.5,2.6-3,.3-1.6,0-4.2-1.1-7.8-1.4-5.3-3.5-7.5-6.1-6.7Z"/>
        <path class="cls-2" d="M218.3,151.5c1.2.1,2.2-.3,2.8-1.4.6-1.1,1.1-3.1,1.4-6.1.4-4.3-.5-6.6-2.7-6.9-2.4-.3-3.8,2.1-4.3,7-.5,4.6.4,7.1,2.7,7.4Z"/>
        <path class="cls-2" d="M265.6,181.7l5.4-71.7-53.6-5.8.2-2.3c.1-1.4-.9-2.7-2.2-2.9-1.4-.1-2.6.9-2.7,2.4l-.2,2.3-39.4-4.3,2.5-.7-16.7-64.1-93.3,27,16.7,64.1,41.7-12.1,3.5,13.5-93.3,17.7,10.6,62.7,48.4-9.2,2.1,12.6c-1.7.3-3,.7-4.5,2.8-1.9,2.7-3.3,5.8-4.6,8.9-2.9,7.1-5.2,14.6-7,22.1-.7,2.8-1.2,5.7-1.5,8.6h17.3c.9-7.1,1.4-14.3,1.6-21.5,0-.4,1.3-.6,2.1-.7l1.1,6.7,3.1-.6-1.2-7.1s0,0,0,0c.2,0,.3-.1.4-.2h0c.3-.1.5-.3.8-.4.5-.3.8-.6,1.2-1,.2,0,.3-.2.5-.3.7-.4,1.5-.7,2.1-1.1,1-.8,1.7-2.1,1.3-3.5,0-.1-.1-.3-.1-.4,0-.3.1-.5.2-.8.2-.4.3-.9,0-1.3-.1-.3-.3-.5-.6-.7-.2-.2-.4-.5-.5-.8,0,0,.1,0,.2,0h-.2c0,0,0,0,0,0,0-.4.2-.8.3-1.1.1-.4.3-.9.1-1.3-.2-.8-.8-1.5-1.5-1.8.8-2.7-1.2-4.3-3.3-5.2-1.2-.5-2.5-.3-3.8,0,0,0,0,0,0,0,0,0-.1,0-.2,0-.1,0-.3,0-.4.1l-2.1-12.6,29.1-5.5c-1.9,15.7-4.8,31.2-9.1,46.4-1.4,4.9-2.9,9.9-4.5,14.7h26.6c0-.3.1-.7.2-1,2.7-14.8,4.5-29.8,4-45,0-2.4-.8-7-.2-9.3,0-.1,0-.3.1-.4,0,0,.2,0,.2-.1h-.2c0,0,.1-.2.2-.3,3.5-1.6,7.9-4.1,10.1-7.6,1.9-1.9,3.8-6.1,2.1-8.9-.2-.3-.4-.6-.5-1-.1-.7.3-1.4.2-2.1-.2-.9-1.3-1.3-1.7-2.2-.4-.9.2-2,.2-3,0-1.5-1.5-3.1-2.9-2.6,0-.2,0-.4,0-.6-.1-1.3-1.3-2.7-2.6-2.4,0,0-.1,0-.2,0-.5-.1-1.1-.2-1.6,0,.3-.5.6-1.1.6-1.7,0-1.3-1-2.7-2.1-2.5-.5,0-.9.3-1.4.6-.3.2-.6.3-.9.4l-13.2-51.5,26.3-7.6-4.9,64.6,55.4,6-2.5,26.2c-.3,0-.6-.1-.9-.2-.4-.2-.9-.4-1.4-.3-1.1,0-1.9,1.5-1.6,2.7.1.6.4,1.1.8,1.5-.5,0-1,.1-1.5.3,0,0,0,0-.1,0-1.2,0-2.1,1.5-2.1,2.7,0,.2,0,.4,0,.6-1.4-.3-2.6,1.5-2.4,2.9.2.9.8,1.8.6,2.7-.2.9-1.2,1.4-1.3,2.3,0,.7.5,1.2.4,1.9,0,.4-.2.7-.3,1-1.2,2.9,1.2,6.5,3.3,8,2.7,3.1,7.5,4.7,11.1,5.6,0,0,0,.1,0,.2h-.5c.2,0,.3,0,.5,0-1,6.7-1.9,13.4-2.6,20h21.4c-.4-3.3-.8-6.6-1.3-9.9-1-6.6-1.6-14.5-3.4-21.8-1.9-7.6-5-14.6-10.9-18.8,0,0,0,.2,0,.2-.9-.6-1.9-1-2.9-1.2l2.5-26.2,55,6ZM103.6,186.4c-5.9-3.4-11.4-7.7-16.8-12-4.2,6.7-8.3,13.4-12.4,20.1-1.3,2.1-4.3-.1-3-2.2,4.1-6.8,8.3-13.5,12.5-20.3-.7-.6-1.4-1.2-2.1-1.7-7.2-5.8-14.2-11.9-21-18.2-1.8-1.6.3-4.8,2.1-3.2,6.8,6.3,13.8,12.4,21,18.2.7.6,1.4,1.1,2.1,1.7,5-8,10-15.9,15.1-23.8,1.3-2.1,4.3.2,3,2.2-5.1,7.9-10.1,15.9-15.1,23.9,5.4,4.4,11,8.7,16.9,12.1,2.1,1.2,0,4.4-2.1,3.2ZM118.1,96.5l-11.5-11c-1.5-1.4-3.1-3.2-4.7-5.3,1,1.8,1.7,3.4,2,4.8l4,14.7-7.1,2.2-8.3-30.3,8.3-2.5,9.7,9c1.9,1.8,3.5,3.4,4.6,4.9-1.2-2.4-2.1-5-2.8-7.7l-2.5-9,7.1-2.2,8.3,30.3-7.1,2.2ZM151.2,82.1c-1.7,3.7-4.6,6.1-8.6,7.4-4,1.2-7.7.8-11-1.2-3.3-2-5.6-5.4-6.9-10.2-1.2-4.5-1.1-8.6.6-12.3,1.6-3.7,4.6-6.2,8.8-7.5,4-1.2,7.6-.8,10.8,1.2,3.3,2,5.5,5.3,6.8,10,1.3,4.8,1.1,9-.6,12.7ZM234.5,133.4l10.1,1.1c2.5.3,4.4.8,5.6,1.6,1.2.8,2.2,1.8,2.8,3.1.6,1.3.9,2.8.7,4.4-.2,2.4-1.2,4.2-2.9,5.5-1.7,1.3-3.9,1.8-6.5,1.5l-4.1-.5-.9,9.1-7.3-.8,2.5-25ZM177.4,134.9c.3.3,1,.6,2,1,2.8.9,4.7,1.7,5.8,2.3,1.1.6,2,1.6,2.7,2.8.7,1.3.9,2.7.8,4.3-.2,2.5-1.4,4.5-3.5,5.8-2.1,1.4-4.7,1.9-7.8,1.5-5.7-.6-9-3.6-9.9-8.8l6.8-.5c.4,2.1,1.7,3.2,4,3.5,1.8.2,2.8-.2,2.9-1.2,0-.5-.1-1-.5-1.3-.4-.3-1.1-.7-2.2-1-4-1.3-6.6-2.7-7.6-4.2-1-1.5-1.5-3.1-1.3-5,.2-2.4,1.3-4.2,3.1-5.6,1.8-1.4,4.3-1.9,7.5-1.5,4.8.5,7.8,2.9,8.9,7.2l-6.2,1.3c-.5-1.7-1.6-2.7-3.5-2.9-1.6-.2-2.4.3-2.5,1.3,0,.5,0,.8.4,1.1ZM202.5,135.9l-1.9,19-6.8-.8,1.9-19-4.9-.5.6-6,16.6,1.8-.6,6-4.9-.5ZM207.8,143.1c.4-3.7,1.7-6.7,3.9-8.9s5.1-3.1,8.7-2.7c3.3.4,5.8,1.8,7.7,4.3,1.8,2.5,2.6,5.7,2.2,9.5-.4,4-1.7,7-4.1,9.2-2.3,2.2-5.1,3.1-8.4,2.7-3.3-.4-5.9-1.8-7.8-4.4-1.9-2.6-2.6-5.8-2.2-9.7Z"/>
        <path class="cls-2" d="M179.9,220c-.6-.2-4.5-1-4.7-.5.7-1.5.6-3.4.6-5.1,0-.6,0-1.2-.2-1.7-.4-.9-1.4-1.5-2.3-1.6-1,0-1.9.7-2.8.5-.9-.1-1.4-1-2.6-.9-1.1.1-2.2,1-2.6,2.1-.2-.5-.6-.8-1.1-1-.5-.3-1.1-.5-1.7-.5-1.6,0-2.2,1.6-2.4,3.1-.5-.8-1.2-1.3-2.2-1.3-1,0-1.7.8-1.9,1.7-.2.1-.3.3-.4.4-.1.3-.2.6-.3,1-.4,1.4-.5,2.8-.6,4.3,0,1.4-.2,2.9-.2,4.3-.3,9.5-.6,19.1-1,28.6h18.6s0,0,0,0c-.1-2.7-.2-5.3-.4-8-.1-2.3-.6-5.1-.3-7.4.6-3.7,3.9-5.4,6.1-7.8,1.7-1.9,3.3-3.6,4-6.1.5-1.8.2-3.4-1.6-4Z"/>
      </g>
    </g>
  </g>
</svg>