<?xml version="1.0" encoding="UTF-8"?>
<svg xmlns="http://www.w3.org/2000/svg" version="1.1" viewBox="0 0 841.9 595.3">
  <defs>
    <style>
      .cls-1 {
        fill: #000;
      }

      .cls-1, .cls-2, .cls-3, .cls-4, .cls-5, .cls-6, .cls-7, .cls-8, .cls-9 {
        stroke-width: 0px;
      }

      .cls-10 {
        fill: none;
        stroke: #0d553f;
        stroke-miterlimit: 10;
      }

      .cls-2 {
        fill: #7c161b;
      }

      .cls-3 {
        fill: #009ed4;
      }

      .cls-4 {
        fill: #1d1d1b;
      }

      .cls-5 {
        fill: #f2aa2f;
      }

      .cls-6 {
        fill: #fff;
      }

      .cls-11 {
        display: none;
      }

      .cls-7 {
        fill: #007c66;
      }

      .cls-8 {
        fill: #d43716;
      }

      .cls-9 {
        fill: #0d553f;
      }
    </style>
  </defs>
  <g id="Camada_1" data-name="Camada 1" class="cls-11">
    <g>
      <g>
        <path class="cls-6" d="M680.2,245c-6.3-2.8-13.1-4.2-20.3-4.2-11.2,0-21.5,3.5-29.7,9.9v-22.4h-88v8.4h-.2c-9.1-6.3-20.3-9.6-32.5-9.6s-14.4,1.2-20.8,3.6l.8-2.4h-53.3l-2.5,8.4h-2.7l-2.5-8.4h-53.6l3,8.4h-11.3l5.9,16.7h-5.9c-8.9-6.1-20.1-9.6-32.3-9.6s-26.3,4.3-35.9,12.3c-4.9-4.1-17.1-12.3-36.6-12.3s-23.9,3.5-33.1,9.9v-8.7h-77.9v102.9h79.4v-7.4c8.8,5.7,19.6,8.7,31.5,8.7,18.2,0,30.5-7.4,36.8-12.4,9.6,8.1,22.1,12.4,35.8,12.4,26,0,46.5-15.8,52.4-39l16.3,46.1h5.4l3,8.4h41.9l8.2-23.1c1.6,1.6,3.2,3.1,5,4.5,10,12.6,25.6,19.9,43,19.9s22.5-3.1,31.4-9v7.8h89.9v-50.3c1.3.2,2.7.3,4.1.3,12.9,0,23.9-7.6,28.5-19.8l2.6-6.7c9.7-5.3,17.3-14.1,21.6-25.3l4.7-12.3-12.1-5.4Z"/>
        <g>
          <polygon class="cls-9" points="218.2 315.5 189.3 315.5 189.3 304.7 211.3 304.7 211.3 286.8 189.3 286.8 189.3 276.5 216.7 276.5 216.7 258.5 166.7 258.5 166.7 333.5 218.2 333.5 218.2 315.5"/>
          <path class="cls-9" d="M263.6,334.8c20.9,0,31-12.1,31-12.1l-10.3-17s-6.9,8.7-18.9,8.7-19.4-9-19.4-18.7,6.3-18.2,19.4-18.2,18.3,7.1,18.3,7.1l8.8-17.4s-9.4-10.1-28.7-10.1-40.8,16.7-40.8,38.8,16.3,38.7,40.7,38.7Z"/>
          <path class="cls-9" d="M336.2,334.8c24.1,0,40.3-16.9,40.3-39.2s-16.2-38.3-40.3-38.3-40.3,16.5-40.3,38.3,16.2,39.2,40.3,39.2ZM336.2,277.3c9.9,0,17,7.3,17,18.3s-7.1,19.2-17,19.2-17-7.8-17-19.2,7.1-18.3,17-18.3Z"/>
          <path class="cls-9" d="M414.8,341.9h5.4l3,8.4h22.1l17.6-49.9c0,1.2-.2,2.4-.2,3.6,0,13.4,5.8,24.8,15.6,31.8,7,9.7,18.6,15.8,33.1,15.8s31-9,36.9-22.7v13h8.4v8.4h62v-19h-8.4v-8.4h0v-6.1h8.4v-19h-6.3l5.8-7.7v-14.9h-8.4v-7.5l8.4-11.1v-14.9h-60.1v8.4h-8.4v16c-5-15.2-19.1-25.6-38.3-25.6s-26.4,6.1-33.4,15.8c-6.5,4.6-11.2,11.2-13.5,18.9h-4.1l2.9-8.4h-.5l8.8-25.1h-23.2l-2.5,8.4h-5.9l-8.8,29.5c0,0,0-.1,0-.2l-11.2-37.7h-23.5l3,8.4h-11.3l5.9,16.7h-5.9l26.5,75ZM551.1,285.8h7v8.4h2.7l-9.5,12.1c-.5-3.8-1.6-7.3-3.1-10.6,1.4-3.1,2.4-6.4,2.9-9.9ZM511.4,294c2.5,0,4.8.5,6.9,1.4,0,.1.1.2.2.4-.1.3-.2.6-.4.9-2,.9-4.3,1.3-6.7,1.3s-5.7-.7-8.1-2c2.4-1.3,5.1-1.9,8.1-1.9Z"/>
          <path class="cls-9" d="M652.3,289.3c-2.1-1-4.6-1.5-7.2-1.5-7.4,0-13.2,4.1-15.7,10.7,2.2,1.1,4.6,1.6,7.3,1.6,7.2,0,13-4.2,15.5-10.9Z"/>
          <path class="cls-9" d="M676.4,257.3c-4.4-1.9-9.3-3-14.6-3-15,0-26.9,8.3-32,21.8,4.5,2.2,9.5,3.4,14.9,3.4,14.7,0,26.4-8.5,31.6-22.1Z"/>
          <path class="cls-9" d="M687.9,261.3c-4.1,10.9-11.9,20.6-22.2,26h-.2c-1.6,3.9-2.9,7.9-4.8,11.4-6,10.9-19,16.4-31.1,14.1v1.4s-.4,48.6-.4,48.6l-85.8-.6v-5.4s0-4.4,0-4.4c0,0-3.7,2.5-3.7,2.5-21.8,14.3-54.8,10.5-71.1-10.5,0,0-5.1-4.6-5.2-4.7,0,0-3-2.7-3-2.7-.6,1.5-6.7,19-8.9,25h-38c-1-2.9-2.6-7.6-2.9-8.5-1,0-3.5,0-5.4,0l-15.8-44.2s-2.9-8.1-2.9-8.1c-2.5,11-6.3,22.7-14.7,30.6-18.9,19.2-53.2,19.7-73.2,1.8-19.1,16.6-49.6,17.7-70.2,3.1,0,1.8,0,6.3,0,9.2l-76.3.6c-.4-29.3-.6-58.5-1.2-87.8-.5,29.7-.8,59.3-1.2,89v1.2s1.2,0,1.2,0l79.4.7s1.8,0,1.8,0c0-.9,0-3.7,0-6.1,15.5,8.7,34.6,9.8,51.3,4.1,5.4-1.9,10.4-4.6,15-8,28.7,22.2,74.7,12.2,88.4-21.3l13.6,38.7.6,1.8h2s3.4,0,3.4,0l2.3,6.5.7,1.8h1.9s41.9-.1,41.9-.1h1.9s.6-1.8.6-1.8l6.8-19.5c.8.8,1.6,1.5,2,1.8,17.1,21.7,50.2,26.4,73.9,13.3v3.5s0,2.4,0,2.4h2.4s89.9-.7,89.9-.7h1.7s0-1.7,0-1.7l-.4-49c7.9.6,15.9-1.7,22.1-6.7,6.4-4.6,10.9-14.8,12.2-20.5,6.9-3.9,12.8-9.7,16.9-16.4,2.1-3.4,3.7-7,5-10.7l4-11.1s-4.4,10.9-4.4,10.9Z"/>
        </g>
      </g>
      <g>
        <g>
          <path class="cls-6" d="M396.6,258.5h23.5l11.2,37.7c1.4,4.7,2.7,13.1,2.7,13.1h.4s1.4-8.4,2.8-13.1l11.2-37.7h23.2l-26.4,75h-22.1l-26.5-75Z"/>
          <path class="cls-6" d="M511.4,257.2c24.1,0,40.3,16.5,40.3,38.3s-16.2,39.2-40.3,39.2-40.3-16.9-40.3-39.2,16.2-38.3,40.3-38.3ZM511.4,314.7c9.9,0,17-7.8,17-19.2s-7.1-18.3-17-18.3-17,7.3-17,18.3,7.1,19.2,17,19.2Z"/>
          <path class="cls-6" d="M556.7,318.4l27-34.4c3-3.9,6-6.4,6-6.4v-.4s-2.4.3-5.8.3h-25.8v-19h60.1v14.9l-26.1,34.5c-2.7,3.7-5.9,6.5-5.9,6.5v.4s2.4-.3,5.8-.3h26.8v19h-62v-15.1Z"/>
        </g>
        <path class="cls-6" d="M518.6,295.5c-2.6,6.7-8.3,10.9-15.5,10.9s-5.1-.6-7.3-1.6c2.5-6.6,8.3-10.7,15.7-10.7s5,.5,7.2,1.5Z"/>
      </g>
    </g>
  </g>
  <g id="Camada_2" data-name="Camada 2" class="cls-11">
    <g>
      <path class="cls-6" d="M680.2,245c-6.3-2.8-13.1-4.2-20.3-4.2-11.2,0-21.5,3.5-29.7,9.9v-22.4h-88v8.4h-.2c-9.1-6.3-20.3-9.6-32.5-9.6s-14.4,1.2-20.8,3.6l.8-2.4h-53.3l-2.5,8.4h-2.7l-2.5-8.4h-53.6l3,8.4h-11.3l5.9,16.7h-5.9c-8.9-6.1-20.1-9.6-32.3-9.6s-26.3,4.3-35.9,12.3c-4.9-4.1-17.1-12.3-36.6-12.3s-23.9,3.5-33.1,9.9v-8.7h-77.9v102.9h79.4v-7.4c8.8,5.7,19.6,8.7,31.5,8.7,18.2,0,30.5-7.4,36.8-12.4,9.6,8.1,22.1,12.4,35.8,12.4,26,0,46.5-15.8,52.4-39l16.3,46.1h5.4l3,8.4h41.9l8.2-23.1c1.6,1.6,3.2,3.1,5,4.5,10,12.6,25.6,19.9,43,19.9s22.5-3.1,31.4-9v7.8h89.9v-50.3c1.3.2,2.7.3,4.1.3,12.9,0,23.9-7.6,28.5-19.8l2.6-6.7c9.7-5.3,17.3-14.1,21.6-25.3l4.7-12.3-12.1-5.4Z"/>
      <g>
        <path class="cls-10" d="M388.6,280.3"/>
        <g>
          <path class="cls-4" d="M166.7,258.5h50v18h-27.4v10.3h21.9v17.8h-21.9v10.8h28.9v18h-51.5v-75Z"/>
          <path class="cls-4" d="M263.7,257.2c19.3,0,28.7,10.1,28.7,10.1l-8.8,17.4s-7.5-7.1-18.3-7.1-19.4,8.5-19.4,18.2,6.5,18.7,19.4,18.7,18.9-8.7,18.9-8.7l10.3,17s-10.1,12.1-31,12.1-40.7-16.3-40.7-38.7,16.7-38.8,40.8-38.8Z"/>
          <path class="cls-4" d="M336.2,257.2c24.1,0,40.3,16.5,40.3,38.3s-16.2,39.2-40.3,39.2-40.3-16.9-40.3-39.2,16.2-38.3,40.3-38.3ZM336.2,314.7c9.9,0,17-7.8,17-19.2s-7.1-18.3-17-18.3-17,7.3-17,18.3,7.1,19.2,17,19.2Z"/>
        </g>
        <g>
          <path class="cls-1" d="M396.6,241.8h23.5l11.2,37.7c1.4,4.7,2.7,13.1,2.7,13.1h.4s1.4-8.4,2.8-13.1l11.2-37.7h23.2l-26.4,75h-22.1l-26.5-75Z"/>
          <path class="cls-1" d="M511.4,240.5c24.1,0,40.3,16.5,40.3,38.3s-16.2,39.2-40.3,39.2-40.3-16.9-40.3-39.2,16.2-38.3,40.3-38.3ZM511.4,298c9.9,0,17-7.8,17-19.2s-7.1-18.3-17-18.3-17,7.3-17,18.3,7.1,19.2,17,19.2Z"/>
          <path class="cls-1" d="M556.7,301.7l27-34.4c3-3.9,6-6.4,6-6.4v-.4s-2.4.3-5.8.3h-25.8v-19h60.1v14.9l-26.1,34.5c-2.7,3.7-5.9,6.5-5.9,6.5v.4s2.4-.3,5.8-.3h26.8v19h-62v-15.1Z"/>
        </g>
        <g>
          <path class="cls-1" d="M388.3,250.1h23.5l11.2,37.7c1.4,4.7,2.7,13.1,2.7,13.1h.4s1.4-8.4,2.8-13.1l11.2-37.7h23.2l-26.4,75h-22.1l-26.5-75Z"/>
          <path class="cls-1" d="M503,248.9c24.1,0,40.3,16.5,40.3,38.3s-16.2,39.2-40.3,39.2-40.3-16.9-40.3-39.2,16.2-38.3,40.3-38.3ZM503,306.4c9.9,0,17-7.8,17-19.2s-7.1-18.3-17-18.3-17,7.3-17,18.3,7.1,19.2,17,19.2Z"/>
          <path class="cls-1" d="M548.4,310l27-34.4c3-3.9,6-6.4,6-6.4v-.4s-2.4.3-5.8.3h-25.8v-19h60.1v14.9l-26.1,34.5c-2.7,3.7-5.9,6.5-5.9,6.5v.4s2.4-.3,5.8-.3h26.8v19h-62v-15.1Z"/>
        </g>
        <g>
          <path class="cls-1" d="M396.6,275.2h23.5l11.2,37.7c1.4,4.7,2.7,13.1,2.7,13.1h.4s1.4-8.4,2.8-13.1l11.2-37.7h23.2l-26.4,75h-22.1l-26.5-75Z"/>
          <path class="cls-1" d="M511.4,274c24.1,0,40.3,16.5,40.3,38.3s-16.2,39.2-40.3,39.2-40.3-16.9-40.3-39.2,16.2-38.3,40.3-38.3ZM511.4,331.5c9.9,0,17-7.8,17-19.2s-7.1-18.3-17-18.3-17,7.3-17,18.3,7.1,19.2,17,19.2Z"/>
          <path class="cls-1" d="M556.7,335.1l27-34.4c3-3.9,6-6.4,6-6.4v-.4s-2.4.3-5.8.3h-25.8v-19h60.1v14.9l-26.1,34.5c-2.7,3.7-5.9,6.5-5.9,6.5v.4s2.4-.3,5.8-.3h26.8v19h-62v-15.1Z"/>
        </g>
        <g>
          <path class="cls-1" d="M388.3,266.9h23.5l11.2,37.7c1.4,4.7,2.7,13.1,2.7,13.1h.4s1.4-8.4,2.8-13.1l11.2-37.7h23.2l-26.4,75h-22.1l-26.5-75Z"/>
          <path class="cls-1" d="M503,265.6c24.1,0,40.3,16.5,40.3,38.3s-16.2,39.2-40.3,39.2-40.3-16.9-40.3-39.2,16.2-38.3,40.3-38.3ZM503,323.1c9.9,0,17-7.8,17-19.2s-7.1-18.3-17-18.3-17,7.3-17,18.3,7.1,19.2,17,19.2Z"/>
          <path class="cls-1" d="M548.4,326.8l27-34.4c3-3.9,6-6.4,6-6.4v-.4s-2.4.3-5.8.3h-25.8v-19h60.1v14.9l-26.1,34.5c-2.7,3.7-5.9,6.5-5.9,6.5v.4s2.4-.3,5.8-.3h26.8v19h-62v-15.1Z"/>
        </g>
        <path class="cls-2" d="M166.7,352.3"/>
        <g>
          <path class="cls-6" d="M396.6,258.5h23.5l11.2,37.7c1.4,4.7,2.7,13.1,2.7,13.1h.4s1.4-8.4,2.8-13.1l11.2-37.7h23.2l-26.4,75h-22.1l-26.5-75Z"/>
          <path class="cls-6" d="M511.4,257.2c24.1,0,40.3,16.5,40.3,38.3s-16.2,39.2-40.3,39.2-40.3-16.9-40.3-39.2,16.2-38.3,40.3-38.3ZM511.4,314.7c9.9,0,17-7.8,17-19.2s-7.1-18.3-17-18.3-17,7.3-17,18.3,7.1,19.2,17,19.2Z"/>
          <path class="cls-6" d="M556.7,318.4l27-34.4c3-3.9,6-6.4,6-6.4v-.4s-2.4.3-5.8.3h-25.8v-19h60.1v14.9l-26.1,34.5c-2.7,3.7-5.9,6.5-5.9,6.5v.4s2.4-.3,5.8-.3h26.8v19h-62v-15.1Z"/>
        </g>
        <path class="cls-6" d="M518.6,295.5c-2.6,6.7-8.3,10.9-15.5,10.9s-5.1-.6-7.3-1.6c2.5-6.6,8.3-10.7,15.7-10.7s5,.5,7.2,1.5Z"/>
        <path class="cls-4" d="M652.3,289.3c-2.6,6.7-8.3,10.9-15.5,10.9s-5.1-.6-7.3-1.6c2.5-6.6,8.3-10.7,15.7-10.7s5,.5,7.2,1.5Z"/>
        <path class="cls-4" d="M676.4,257.3c-5.2,13.7-16.9,22.1-31.6,22.1s-10.5-1.2-14.9-3.4c5.1-13.5,17-21.8,32-21.8s10.2,1.1,14.6,3Z"/>
      </g>
      <path class="cls-4" d="M150.8,258.9c.5,29.7.8,59.3,1.2,89l-1.2-1.2,79.4-.7-1.9,1.9c0-2.4,0-8.7,0-11.1,20.5,14.6,51.1,13.5,70.2-3.1,20,17.8,54.3,17.4,73.2-1.8,8.4-8,12.2-19.6,14.7-30.6,0,0,2.9,8.1,2.9,8.1l16.4,46-2.6-1.9c1.5,0,6,0,7.4,0,.4,1.2,3.1,8.9,3.6,10.2,0,0-2.6-1.8-2.6-1.8h41.9c0,.1-2.5,1.9-2.5,1.9.9-2.5,8.9-25.1,9.5-26.8,0,0,3,2.7,3,2.7.1.1,5.3,4.7,5.2,4.7,16.2,21,49.3,24.8,71.1,10.5,0,0,3.7-2.5,3.7-2.5v4.4s0,7.7,0,7.7l-2.4-2.4,89.9.7-1.7,1.7.4-50.4v-1.4c12.1,2.3,25.1-3.2,31.1-14.1,2-3.5,3.2-7.4,4.8-11.2,0,0,.2-.1.2-.1,10.3-5.5,18.1-15.1,22.2-26,0,0,4.4-10.9,4.4-10.9l-4,11.1c-1.3,3.7-2.9,7.3-5,10.7-4.1,6.7-10,12.5-16.9,16.4-1.3,5.7-5.8,15.8-12.2,20.5-6.5,5.3-15.2,7.5-23.6,6.5,0,0,1.4-1.3,1.4-1.3l.4,50.4v1.7s-1.7,0-1.7,0l-89.9.7h-2.4s0-2.4,0-2.4v-7.7s3.7,2,3.7,2c-23.9,15.8-59.8,11.7-77.8-11.3,2,1.9-5.2-4.6-4.9-4.3,0,0,4.3-.9,4.3-.9l-8.1,23.2-.6,1.8h-1.9s-41.9.1-41.9.1h-1.9s-.7-1.8-.7-1.8l-3-8.4,2.6,1.9h-5.4s-2,0-2,0l-.6-1.8-16.2-46.1,5.1-.2c-9.6,40.2-61.9,53.2-92.4,27.8,0,0,3,0,3,0-5,4-10.5,7.1-16.5,9.1-17.8,6.1-38.3,4.5-54.2-5.8,0,0,3-1.6,3-1.6,0,1.6,0,8,0,9.4,0,0-1.8,0-1.8,0l-79.4-.7h-1.2s0-1.2,0-1.2c.4-29.7.7-59.3,1.2-89h0Z"/>
    </g>
  </g>
  <g id="Camada_3" data-name="Camada 3">
    <g>
      <path class="cls-6" d="M680.2,245c-6.3-2.8-13.1-4.2-20.3-4.2-11.2,0-21.5,3.5-29.7,9.9v-22.4h-88v8.4h-.2c-9.1-6.3-20.3-9.6-32.5-9.6s-14.4,1.2-20.8,3.6l.8-2.4h-53.3l-2.5,8.4h-2.7l-2.5-8.4h-53.6l3,8.4h-11.3l5.9,16.7h-5.9c-8.9-6.1-20.1-9.6-32.3-9.6s-26.3,4.3-35.9,12.3c-4.9-4.1-17.1-12.3-36.6-12.3s-23.9,3.5-33.1,9.9v-8.7h-77.9v102.9h79.4v-7.4c8.8,5.7,19.6,8.7,31.5,8.7,18.2,0,30.5-7.4,36.8-12.4,9.6,8.1,22.1,12.4,35.8,12.4,26,0,46.5-15.8,52.4-39l16.3,46.1h5.4l3,8.4h41.9l8.2-23.1c1.6,1.6,3.2,3.1,5,4.5,10,12.6,25.6,19.9,43,19.9s22.5-3.1,31.4-9v7.8h89.9v-50.3c1.3.2,2.7.3,4.1.3,12.9,0,23.9-7.6,28.5-19.8l2.6-6.7c9.7-5.3,17.3-14.1,21.6-25.3l4.7-12.3-12.1-5.4Z"/>
      <g>
        <path class="cls-10" d="M388.6,280.3"/>
        <g>
          <path class="cls-9" d="M166.7,258.5h50v18h-27.4v10.3h21.9v17.8h-21.9v10.8h28.9v18h-51.5v-75Z"/>
          <path class="cls-9" d="M263.7,257.2c19.3,0,28.7,10.1,28.7,10.1l-8.8,17.4s-7.5-7.1-18.3-7.1-19.4,8.5-19.4,18.2,6.5,18.7,19.4,18.7,18.9-8.7,18.9-8.7l10.3,17s-10.1,12.1-31,12.1-40.7-16.3-40.7-38.7,16.7-38.8,40.8-38.8Z"/>
          <path class="cls-9" d="M336.2,257.2c24.1,0,40.3,16.5,40.3,38.3s-16.2,39.2-40.3,39.2-40.3-16.9-40.3-39.2,16.2-38.3,40.3-38.3ZM336.2,314.7c9.9,0,17-7.8,17-19.2s-7.1-18.3-17-18.3-17,7.3-17,18.3,7.1,19.2,17,19.2Z"/>
        </g>
        <g>
          <path class="cls-3" d="M396.6,241.8h23.5l11.2,37.7c1.4,4.7,2.7,13.1,2.7,13.1h.4s1.4-8.4,2.8-13.1l11.2-37.7h23.2l-26.4,75h-22.1l-26.5-75Z"/>
          <path class="cls-3" d="M511.4,240.5c24.1,0,40.3,16.5,40.3,38.3s-16.2,39.2-40.3,39.2-40.3-16.9-40.3-39.2,16.2-38.3,40.3-38.3ZM511.4,298c9.9,0,17-7.8,17-19.2s-7.1-18.3-17-18.3-17,7.3-17,18.3,7.1,19.2,17,19.2Z"/>
          <path class="cls-3" d="M556.7,301.7l27-34.4c3-3.9,6-6.4,6-6.4v-.4s-2.4.3-5.8.3h-25.8v-19h60.1v14.9l-26.1,34.5c-2.7,3.7-5.9,6.5-5.9,6.5v.4s2.4-.3,5.8-.3h26.8v19h-62v-15.1Z"/>
        </g>
        <g>
          <path class="cls-7" d="M388.3,250.1h23.5l11.2,37.7c1.4,4.7,2.7,13.1,2.7,13.1h.4s1.4-8.4,2.8-13.1l11.2-37.7h23.2l-26.4,75h-22.1l-26.5-75Z"/>
          <path class="cls-7" d="M503,248.9c24.1,0,40.3,16.5,40.3,38.3s-16.2,39.2-40.3,39.2-40.3-16.9-40.3-39.2,16.2-38.3,40.3-38.3ZM503,306.4c9.9,0,17-7.8,17-19.2s-7.1-18.3-17-18.3-17,7.3-17,18.3,7.1,19.2,17,19.2Z"/>
          <path class="cls-7" d="M548.4,310l27-34.4c3-3.9,6-6.4,6-6.4v-.4s-2.4.3-5.8.3h-25.8v-19h60.1v14.9l-26.1,34.5c-2.7,3.7-5.9,6.5-5.9,6.5v.4s2.4-.3,5.8-.3h26.8v19h-62v-15.1Z"/>
        </g>
        <g>
          <path class="cls-8" d="M396.6,275.2h23.5l11.2,37.7c1.4,4.7,2.7,13.1,2.7,13.1h.4s1.4-8.4,2.8-13.1l11.2-37.7h23.2l-26.4,75h-22.1l-26.5-75Z"/>
          <path class="cls-8" d="M511.4,274c24.1,0,40.3,16.5,40.3,38.3s-16.2,39.2-40.3,39.2-40.3-16.9-40.3-39.2,16.2-38.3,40.3-38.3ZM511.4,331.5c9.9,0,17-7.8,17-19.2s-7.1-18.3-17-18.3-17,7.3-17,18.3,7.1,19.2,17,19.2Z"/>
          <path class="cls-8" d="M556.7,335.1l27-34.4c3-3.9,6-6.4,6-6.4v-.4s-2.4.3-5.8.3h-25.8v-19h60.1v14.9l-26.1,34.5c-2.7,3.7-5.9,6.5-5.9,6.5v.4s2.4-.3,5.8-.3h26.8v19h-62v-15.1Z"/>
        </g>
        <g>
          <path class="cls-2" d="M388.3,266.9h23.5l11.2,37.7c1.4,4.7,2.7,13.1,2.7,13.1h.4s1.4-8.4,2.8-13.1l11.2-37.7h23.2l-26.4,75h-22.1l-26.5-75Z"/>
          <path class="cls-2" d="M503,265.6c24.1,0,40.3,16.5,40.3,38.3s-16.2,39.2-40.3,39.2-40.3-16.9-40.3-39.2,16.2-38.3,40.3-38.3ZM503,323.1c9.9,0,17-7.8,17-19.2s-7.1-18.3-17-18.3-17,7.3-17,18.3,7.1,19.2,17,19.2Z"/>
          <path class="cls-2" d="M548.4,326.8l27-34.4c3-3.9,6-6.4,6-6.4v-.4s-2.4.3-5.8.3h-25.8v-19h60.1v14.9l-26.1,34.5c-2.7,3.7-5.9,6.5-5.9,6.5v.4s2.4-.3,5.8-.3h26.8v19h-62v-15.1Z"/>
        </g>
        <path class="cls-2" d="M166.7,352.3"/>
        <g>
          <path class="cls-5" d="M396.6,258.5h23.5l11.2,37.7c1.4,4.7,2.7,13.1,2.7,13.1h.4s1.4-8.4,2.8-13.1l11.2-37.7h23.2l-26.4,75h-22.1l-26.5-75Z"/>
          <path class="cls-5" d="M511.4,257.2c24.1,0,40.3,16.5,40.3,38.3s-16.2,39.2-40.3,39.2-40.3-16.9-40.3-39.2,16.2-38.3,40.3-38.3ZM511.4,314.7c9.9,0,17-7.8,17-19.2s-7.1-18.3-17-18.3-17,7.3-17,18.3,7.1,19.2,17,19.2Z"/>
          <path class="cls-5" d="M556.7,318.4l27-34.4c3-3.9,6-6.4,6-6.4v-.4s-2.4.3-5.8.3h-25.8v-19h60.1v14.9l-26.1,34.5c-2.7,3.7-5.9,6.5-5.9,6.5v.4s2.4-.3,5.8-.3h26.8v19h-62v-15.1Z"/>
        </g>
        <path class="cls-6" d="M518.6,295.5c-2.6,6.7-8.3,10.9-15.5,10.9s-5.1-.6-7.3-1.6c2.5-6.6,8.3-10.7,15.7-10.7s5,.5,7.2,1.5Z"/>
        <path class="cls-9" d="M652.3,289.3c-2.6,6.7-8.3,10.9-15.5,10.9s-5.1-.6-7.3-1.6c2.5-6.6,8.3-10.7,15.7-10.7s5,.5,7.2,1.5Z"/>
        <path class="cls-9" d="M676.4,257.3c-5.2,13.7-16.9,22.1-31.6,22.1s-10.5-1.2-14.9-3.4c5.1-13.5,17-21.8,32-21.8s10.2,1.1,14.6,3Z"/>
      </g>
      <path class="cls-9" d="M687.9,261.3c-4.1,10.9-11.9,20.6-22.2,26h-.2c-1.6,3.9-2.9,7.9-4.8,11.4-6,10.9-19,16.4-31.1,14.1v1.4s-.4,48.6-.4,48.6l-85.8-.6v-5.4s0-4.4,0-4.4c0,0-3.7,2.5-3.7,2.5-21.8,14.3-54.8,10.5-71.1-10.5,0,0-5.1-4.6-5.2-4.7,0,0-3-2.7-3-2.7-.6,1.5-6.7,19-8.9,25h-38c-1-2.9-2.6-7.6-2.9-8.5-1,0-3.5,0-5.4,0l-15.8-44.2s-2.9-8.1-2.9-8.1c-2.5,11-6.3,22.7-14.7,30.6-18.9,19.2-53.2,19.7-73.2,1.8-19.1,16.6-49.6,17.7-70.2,3.1,0,1.8,0,6.3,0,9.2l-76.3.6c-.4-29.3-.6-58.5-1.2-87.8-.5,29.7-.8,59.3-1.2,89v1.2s1.2,0,1.2,0l79.4.7s1.8,0,1.8,0c0-.9,0-3.7,0-6.1,15.5,8.7,34.6,9.8,51.3,4.1,5.4-1.9,10.4-4.6,15-8,28.7,22.2,74.7,12.2,88.4-21.3l13.6,38.7.6,1.8h2s3.4,0,3.4,0l2.3,6.5.7,1.8h1.9s41.9-.1,41.9-.1h1.9s.6-1.8.6-1.8l6.8-19.5c.8.8,1.6,1.5,2,1.8,17.1,21.7,50.2,26.4,73.9,13.3v3.5s0,2.4,0,2.4h2.4s89.9-.7,89.9-.7h1.7s0-1.7,0-1.7l-.4-49c7.9.6,15.9-1.7,22.1-6.7,6.4-4.6,10.9-14.8,12.2-20.5,6.9-3.9,12.8-9.7,16.9-16.4,2.1-3.4,3.7-7,5-10.7l4-11.1s-4.4,10.9-4.4,10.9Z"/>
    </g>
  </g>
</svg>