<?xml version="1.0" encoding="UTF-8"?>
<svg xmlns="http://www.w3.org/2000/svg" version="1.1" viewBox="0 0 200 200">
  <defs>
    <style>
      .cls-1 {
        fill: #fff;
        fill-rule: evenodd;
      }
    </style>
  </defs>
  <!-- Generator: Adobe Illustrator 28.7.1, SVG Export Plug-In . SVG Version: 1.2.0 Build 142)  -->
  <g>
    <g id="Camada_1">
      <path id="path833" class="cls-1" d="M99.7,39.2c-34.1,0-61.8,27.7-61.8,61.8s17.7,50.5,42.3,58.6c3.1.5,4.2-1.3,4.2-2.9v-11.5c-15.5,2.9-19.5-3.8-20.8-7.3-.7-1.8-3.7-7.3-6.3-8.7-2.2-1.2-5.3-4,0-4.1,4.9,0,8.3,4.5,9.5,6.3,5.6,9.3,14.4,6.7,18,5.1.5-4,2.2-6.7,3.9-8.3-13.8-1.5-28.1-6.9-28.1-30.5s2.4-12.3,6.3-16.6c-.6-1.5-2.8-7.9.6-16.4,0,0,5.2-1.6,17,6.3,4.9-1.4,10.2-2.1,15.5-2.1s10.5.7,15.5,2.1c11.8-8,17-6.3,17-6.3,3.4,8.5,1.2,14.8.6,16.4,3.9,4.3,6.3,9.8,6.3,16.6,0,23.7-14.4,29-28.2,30.5,2.2,1.9,4.2,5.6,4.2,11.4v17c0,2.1,1.2,3.6,4.2,2.9,24.4-8.2,42.1-31.4,42.1-58.6s-27.7-61.8-61.8-61.8h-.2Z"/>
    </g>
  </g>
</svg>